<?xml version="1.0" encoding="UTF-8" standalone="no"?>
<svg
   xmlns:dc="http://purl.org/dc/elements/1.1/"
   xmlns:cc="http://creativecommons.org/ns#"
   xmlns:rdf="http://www.w3.org/1999/02/22-rdf-syntax-ns#"
   xmlns:svg="http://www.w3.org/2000/svg"
   xmlns="http://www.w3.org/2000/svg"
   viewBox="0 0 133.33333 133.33333"
   height="133.33333"
   width="133.33333"
   xml:space="preserve"
   id="svg2"
   version="1.1"><metadata
     id="metadata8"><rdf:RDF><cc:Work
         rdf:about=""><dc:format>image/svg+xml</dc:format><dc:type
           rdf:resource="http://purl.org/dc/dcmitype/StillImage" /></cc:Work></rdf:RDF></metadata><defs
     id="defs6"><clipPath
       id="clipPath18"
       clipPathUnits="userSpaceOnUse"><path
         id="path16"
         d="M 0,100 H 100 V 0 H 0 Z" /></clipPath></defs><g
     transform="matrix(1.3333333,0,0,-1.3333333,0,133.33333)"
     id="g10"><g
       id="g12"><g
         clip-path="url(#clipPath18)"
         id="g14"><g
           transform="translate(50,96.4771)"
           id="g20"><path
             id="path22"
             style="fill:#ffffff;fill-opacity:1;fill-rule:nonzero;stroke:none"
             d="m 0,0 c -25.638,0 -46.496,-20.841 -46.496,-46.459 0,-25.637 20.858,-46.496 46.496,-46.496 25.637,0 46.495,20.859 46.495,46.496 C 46.495,-20.841 25.637,0 0,0" /></g><g
           transform="translate(50,3.5225)"
           id="g24"><path
             id="path26"
             style="fill:#231f20;fill-opacity:1;fill-rule:nonzero;stroke:none"
             d="m 0,0 c -25.638,0 -46.496,20.858 -46.496,46.495 0,25.618 20.858,46.46 46.496,46.46 25.637,0 46.495,-20.842 46.495,-46.46 C 46.495,20.858 25.637,0 0,0 m 0,96.477 c -27.58,0 -50.018,-22.422 -50.018,-49.982 0,-27.58 22.438,-50.017 50.018,-50.017 27.58,0 50.018,22.437 50.018,50.017 0,27.56 -22.438,49.982 -50.018,49.982" /></g><g
           transform="translate(77.9795,29.0156)"
           id="g28"><path
             id="path30"
             style="fill:#231f20;fill-opacity:1;fill-rule:nonzero;stroke:none"
             d="M 0,0 -20.984,20.984 0,41.968 -6.995,48.963 -27.979,27.979 -48.964,48.963 -55.958,41.968 -34.974,20.984 -55.958,0 l 6.994,-6.995 20.985,20.984 20.984,-20.984 z" /></g></g></g></g></svg>