<?xml version="1.0" encoding="UTF-8" standalone="no"?>
<svg
   xmlns:dc="http://purl.org/dc/elements/1.1/"
   xmlns:cc="http://creativecommons.org/ns#"
   xmlns:rdf="http://www.w3.org/1999/02/22-rdf-syntax-ns#"
   xmlns:svg="http://www.w3.org/2000/svg"
   xmlns="http://www.w3.org/2000/svg"
   viewBox="0 0 400 178.75999"
   height="178.75999"
   width="400"
   xml:space="preserve"
   id="svg2"
   version="1.1"><metadata
     id="metadata8"><rdf:RDF><cc:Work
         rdf:about=""><dc:format>image/svg+xml</dc:format><dc:type
           rdf:resource="http://purl.org/dc/dcmitype/StillImage" /></cc:Work></rdf:RDF></metadata><defs
     id="defs6"><clipPath
       id="clipPath18"
       clipPathUnits="userSpaceOnUse"><path
         id="path16"
         d="M 0,134.07 H 300 V 0 H 0 Z" /></clipPath></defs><g
     transform="matrix(1.3333333,0,0,-1.3333333,0,178.76)"
     id="g10"><g
       id="g12"><g
         clip-path="url(#clipPath18)"
         id="g14"><g
           transform="translate(293.6445,34.1494)"
           id="abc"><path
             id="path22"
             style="fill:#ffffff;fill-opacity:1;fill-rule:nonzero;stroke:none"
             d="m 0,0 c 0.15,0.353 0.304,0.718 0.461,1.096 1.071,2.577 0.722,5.582 -0.917,7.844 -0.522,0.719 -1.159,1.331 -1.868,1.833 2.324,2.552 3.607,5.863 3.607,9.435 0,2.397 -0.272,5.231 -0.833,8.665 -0.488,2.989 -0.56,4.522 -0.56,5.102 l 0.031,3.128 c 0,0 0,3.464 -0.001,3.511 -0.121,5.511 -0.934,9.84 -2.461,13.185 -3.116,6.968 -9.345,10.964 -17.088,10.964 -2.466,0 -4.878,-0.449 -7.209,-1.339 -2.148,1.346 -4.676,2.084 -7.35,2.084 -3.693,0 -7.168,-1.393 -9.784,-3.918 -0.162,-0.157 -0.32,-0.318 -0.473,-0.481 -0.406,0.192 -0.822,0.375 -1.251,0.551 -3.643,1.521 -7.169,2.292 -10.478,2.292 -7.137,0 -13.66,-2.508 -18.996,-7.278 -3.421,4.704 -8.594,7.375 -14.662,7.375 -3.092,0 -5.998,-0.517 -8.663,-1.535 -2.466,1.225 -5.25,1.86 -8.232,1.86 -1.815,0 -3.639,-0.34 -5.459,-1.015 -2.403,1.776 -5.238,2.733 -8.192,2.733 -0.798,0 -1.612,-0.07 -2.427,-0.215 -0.302,1.314 -0.754,2.484 -1.319,3.515 0.945,1.707 1.448,3.646 1.448,5.669 0,8.437 -5.892,12.852 -11.712,12.852 -2.801,0 -5.47,-0.978 -7.577,-2.77 -2.22,0.829 -4.719,1.248 -7.46,1.248 -3.565,0 -6.861,-0.978 -9.675,-2.822 -2.354,1.837 -5.274,2.859 -8.48,2.859 -1.635,0 -3.205,-0.208 -4.694,-0.62 -1.489,0.528 -3.088,0.8 -4.747,0.8 -0.841,0 -1.679,-0.089 -2.511,-0.265 -1.577,0.803 -3.317,1.225 -5.115,1.225 -2.103,0 -4.467,-0.608 -6.509,-2.083 -1.855,0.589 -3.675,0.888 -5.432,0.888 -1.821,0 -3.583,-0.236 -5.266,-0.701 -0.903,2.874 -3.232,6.233 -8.86,8.459 -2.992,1.204 -5.602,1.79 -7.979,1.79 -4.1,0 -8.021,-1.548 -11.33,-4.47 -3.32,-2.922 -6.035,-6.686 -8.072,-11.192 -0.094,0.002 -0.189,0.003 -0.283,0.003 -2.326,0 -10.161,-0.796 -13.298,-10.971 -0.88,-2.747 -1.326,-5.536 -1.326,-8.29 0,-1.437 -0.006,-2.792 -0.019,-4.061 -1.778,-0.254 -3.643,-0.564 -5.584,-0.926 l -1.125,-0.212 c 0.037,0.667 0.083,1.409 0.137,2.235 0.245,3.715 0.364,6.488 0.364,8.477 0,3.725 -1.416,7.219 -3.987,9.837 -2.621,2.668 -6.145,4.138 -9.923,4.138 -3.779,0 -7.303,-1.47 -9.923,-4.138 -2.571,-2.617 -3.988,-6.11 -3.988,-9.837 0,-1.016 -0.053,-3.059 -0.303,-7.02 -0.232,-3.687 -0.346,-6.429 -0.346,-8.383 0,-1.337 0.047,-3.29 0.137,-5.804 0.102,-2.813 0.124,-4.269 0.124,-4.994 0,-1.362 -0.093,-4.095 -0.532,-9.369 -0.406,-4.895 -0.604,-8.545 -0.604,-11.157 0,-3.669 1.392,-7.132 3.92,-9.752 2.629,-2.723 6.176,-4.223 9.99,-4.223 3.818,0 7.367,1.5 9.99,4.221 2.528,2.619 3.922,6.083 3.922,9.754 0,1.08 0.09,3.198 0.52,7.15 0.016,0.149 0.032,0.296 0.047,0.443 l 5.44,1.061 c 0.357,0.07 0.709,0.134 1.058,0.198 0.02,-0.296 0.042,-0.599 0.064,-0.908 0.272,-3.758 0.329,-5.689 0.329,-6.646 0,-3.74 1.445,-7.246 4.071,-9.874 2.625,-2.625 6.119,-4.069 9.84,-4.069 3.44,0 6.669,1.217 9.196,3.448 3.372,-2.163 8.056,-3.837 14.475,-3.837 2.31,0 4.766,0.476 7.506,1.458 1.746,-1.052 3.84,-1.848 6.34,-1.848 1.215,0 2.407,0.17 3.558,0.478 0.161,-0.893 0.454,-1.748 0.894,-2.525 l 0.089,-8.022 c -1.17,-1.655 -1.714,-3.745 -1.375,-5.857 0.623,-3.881 3.929,-6.7 7.862,-6.7 0.008,0 6.756,0.109 6.736,0.109 1.311,0 2.615,0.329 3.767,0.948 l 1.439,0.772 c 0.256,-0.025 0.513,-0.038 0.77,-0.038 5.157,0 7.313,3.806 10.522,9.573 1.997,-1.864 4.764,-3.352 8.499,-4.094 2.668,-0.533 5.727,-0.792 9.349,-0.792 3.723,0 7.102,0.462 10.122,1.372 0.191,-0.73 0.48,-1.439 0.874,-2.099 l -0.244,-0.76 c -1.679,-1.745 -2.538,-4.207 -2.179,-6.741 0.549,-3.865 3.779,-6.783 7.682,-6.937 l 1.749,-0.069 c 0.084,-0.002 0.169,-0.004 0.254,-0.004 h 2.226 c 0.032,0 1.769,0.076 1.78,0.076 1.697,0.084 3.258,0.678 4.522,1.645 0.671,-0.177 1.374,-0.271 2.095,-0.271 h 6.778 c 1.838,0 3.569,0.628 4.953,1.701 0.37,0.041 0.734,0.109 1.091,0.199 1.991,0.509 2.395,0.632 2.932,0.852 1.498,0.608 2.952,1.465 4.344,2.553 0.823,-0.275 1.688,-0.418 2.563,-0.418 0.755,0 1.503,0.107 2.225,0.314 0.998,-0.426 2.079,-0.649 3.171,-0.649 1.119,0 2.225,0.234 3.247,0.681 1.361,-0.966 2.994,-1.49 4.675,-1.49 0.011,0 1.873,0.033 1.885,0.033 1.56,0.033 3.063,0.522 4.335,1.373 0.985,-0.416 2.045,-0.632 3.138,-0.632 0.282,0 0.564,0.015 0.845,0.045 0.554,-0.118 1.124,-0.179 1.703,-0.179 0.177,0 0.177,0 3.96,0.178 2.155,0.104 4.101,1.052 5.505,2.556 l 1.221,-6.998 c 0.675,-3.88 4.022,-6.695 7.959,-6.695 0.086,0 0.236,0.003 0.321,0.007 4.038,0.16 7.359,3.314 7.725,7.334 l 0.207,2.267 c 0.581,0.766 1.027,1.635 1.307,2.564 0.983,-0.367 2.055,-0.551 3.213,-0.551 0.112,10e-4 0.224,0.005 0.337,0.009 0.679,-0.175 1.387,-0.266 2.103,-0.266 2.46,0 4.355,1.033 5.61,1.889 h 3.494 c 0.159,0 0.317,0.003 0.472,0.013 1.36,-1.004 3.066,-1.645 5.214,-1.645 0.113,10e-4 0.226,0.005 0.337,0.009 0.682,-0.175 1.388,-0.266 2.104,-0.266 2.463,0 4.357,1.033 5.634,1.904 2.449,0.036 8.074,0.119 8.079,0.119 3.362,0.053 6.373,2.219 7.497,5.4 l 1.515,4.31 C 1.677,-4.634 1.314,-2.045 0,0" /></g><g
           transform="translate(292.9531,22.787)"
           id="g24"><path
             id="path26"
             style="fill: black;fill-opacity:1;fill-rule:nonzero;stroke:none"
             d="m 0,0 c -1.124,-3.181 -4.135,-5.347 -7.496,-5.399 -0.006,0 -5.631,-0.083 -8.079,-0.12 -1.278,-0.871 -3.172,-1.904 -5.635,-1.904 -0.716,0 -1.422,0.091 -2.103,0.267 -0.112,-0.005 -0.225,-0.009 -0.337,-0.01 -2.149,0 -3.855,0.642 -5.214,1.645 -0.156,-0.009 -0.314,-0.013 -0.473,-0.013 h -3.494 c -1.255,-0.856 -3.149,-1.889 -5.609,-1.889 -0.716,0 -1.424,0.091 -2.104,0.267 -0.112,-0.005 -0.225,-0.009 -0.337,-0.01 -1.158,0 -2.229,0.185 -3.213,0.552 -0.28,-0.93 -0.725,-1.799 -1.306,-2.565 l -0.207,-2.266 c -0.367,-4.021 -3.688,-7.175 -7.726,-7.334 -0.085,-0.004 -0.234,-0.008 -0.32,-0.008 -3.938,0 -7.285,2.815 -7.959,6.695 l -1.222,6.998 c -1.403,-1.504 -3.35,-2.452 -5.505,-2.555 -3.783,-0.179 -3.783,-0.179 -3.96,-0.179 -0.579,0 -1.148,0.061 -1.703,0.18 -0.28,-0.031 -0.562,-0.045 -0.845,-0.045 -1.092,0 -2.153,0.215 -3.137,0.631 -1.273,-0.851 -2.776,-1.339 -4.335,-1.373 -0.013,0 -1.874,-0.033 -1.885,-0.033 -1.682,0 -3.315,0.525 -4.676,1.49 -1.021,-0.447 -2.128,-0.68 -3.247,-0.68 -1.092,0 -2.173,0.222 -3.171,0.648 -0.722,-0.207 -1.47,-0.313 -2.224,-0.313 -0.875,0 -1.741,0.142 -2.564,0.418 -1.392,-1.089 -2.846,-1.946 -4.344,-2.554 -0.537,-0.22 -0.94,-0.343 -2.931,-0.852 -0.358,-0.089 -0.722,-0.158 -1.091,-0.199 -1.385,-1.073 -3.115,-1.701 -4.953,-1.701 h -6.779 c -0.72,0 -1.423,0.094 -2.094,0.272 -1.265,-0.967 -2.826,-1.562 -4.523,-1.646 -0.011,0 -1.748,-0.076 -1.78,-0.076 h -2.226 c -0.085,0 -0.17,0.002 -0.254,0.005 l -1.749,0.068 c -3.903,0.154 -7.132,3.072 -7.681,6.938 -0.36,2.533 0.5,4.996 2.179,6.74 l 0.244,0.761 c -0.395,0.66 -0.684,1.369 -0.874,2.098 -3.021,-0.91 -6.4,-1.372 -10.123,-1.372 -3.622,0 -6.68,0.259 -9.349,0.792 -3.734,0.742 -6.502,2.231 -8.498,4.094 -3.21,-5.767 -5.366,-9.572 -10.523,-9.572 -0.256,0 -0.513,0.012 -0.77,0.038 l -1.439,-0.773 c -1.152,-0.619 -2.456,-0.948 -3.766,-0.948 0.019,0 -6.728,-0.108 -6.736,-0.108 -3.933,0 -7.24,2.818 -7.862,6.7 -0.339,2.111 0.204,4.201 1.375,5.856 l -0.09,8.023 c -0.439,0.776 -0.733,1.632 -0.893,2.524 -1.152,-0.307 -2.344,-0.477 -3.558,-0.477 -2.5,0 -4.595,0.795 -6.34,1.847 -2.741,-0.981 -5.196,-1.458 -7.507,-1.458 -6.419,0 -11.103,1.674 -14.475,3.837 -2.526,-2.23 -5.755,-3.448 -9.196,-3.448 -3.72,0 -7.214,1.444 -9.839,4.069 -2.626,2.628 -4.072,6.134 -4.072,9.874 0,0.957 -0.056,2.888 -0.328,6.647 -0.023,0.308 -0.044,0.611 -0.065,0.907 -0.348,-0.063 -0.701,-0.128 -1.058,-0.197 l -5.439,-1.062 c -0.015,-0.146 -0.031,-0.294 -0.048,-0.443 -0.43,-3.951 -0.52,-6.07 -0.52,-7.15 0,-3.67 -1.393,-7.134 -3.922,-9.753 -2.623,-2.721 -6.172,-4.222 -9.989,-4.222 -3.814,0 -7.362,1.5 -9.991,4.223 -2.528,2.621 -3.919,6.083 -3.919,9.752 0,2.613 0.197,6.262 0.604,11.158 0.439,5.274 0.531,8.006 0.531,9.368 0,0.725 -0.022,2.181 -0.123,4.994 -0.091,2.514 -0.137,4.468 -0.137,5.805 0,1.954 0.113,4.695 0.346,8.382 0.25,3.961 0.303,6.004 0.303,7.02 0,3.727 1.416,7.22 3.987,9.837 2.62,2.668 6.144,4.138 9.923,4.138 3.778,0 7.302,-1.47 9.924,-4.138 2.571,-2.618 3.987,-6.111 3.987,-9.837 0,-1.988 -0.119,-4.762 -0.364,-8.477 -0.055,-0.825 -0.1,-1.567 -0.138,-2.235 l 1.125,0.212 c 1.942,0.363 3.806,0.672 5.584,0.927 0.013,1.268 0.019,2.623 0.019,4.061 0,2.754 0.446,5.543 1.326,8.289 3.138,10.175 10.972,10.972 13.298,10.972 0.095,0 0.189,-0.001 0.283,-0.004 2.038,4.506 4.753,8.271 8.072,11.192 3.31,2.922 7.23,4.47 11.331,4.47 2.376,0 4.986,-0.585 7.979,-1.789 5.627,-2.226 7.956,-5.586 8.86,-8.459 1.683,0.464 3.444,0.7 5.266,0.7 1.757,0 3.577,-0.298 5.431,-0.888 2.042,1.475 4.407,2.084 6.509,2.084 1.799,0 3.539,-0.423 5.116,-1.225 0.832,0.175 1.67,0.264 2.511,0.264 1.659,0 3.257,-0.272 4.746,-0.8 1.49,0.412 3.06,0.62 4.694,0.62 3.206,0 6.126,-1.022 8.481,-2.859 2.814,1.844 6.109,2.822 9.674,2.822 2.741,0 5.241,-0.419 7.461,-1.248 2.106,1.792 4.775,2.77 7.577,2.77 5.819,0 11.712,-4.415 11.712,-12.852 0,-2.023 -0.503,-3.962 -1.449,-5.669 0.566,-1.03 1.017,-2.201 1.32,-3.515 0.814,0.146 1.629,0.216 2.426,0.216 2.955,0 5.79,-0.958 8.193,-2.733 1.819,0.674 3.643,1.014 5.459,1.014 2.981,0 5.765,-0.635 8.231,-1.86 2.665,1.019 5.572,1.535 8.663,1.535 6.069,0 11.242,-2.671 14.662,-7.375 5.336,4.771 11.86,7.278 18.997,7.278 3.308,0 6.835,-0.771 10.477,-2.292 0.43,-0.175 0.846,-0.359 1.251,-0.551 0.153,0.164 0.312,0.324 0.474,0.481 2.615,2.526 6.091,3.919 9.783,3.919 2.675,0 5.202,-0.739 7.351,-2.084 2.331,0.89 4.743,1.338 7.209,1.338 7.743,0 13.971,-3.996 17.087,-10.963 1.528,-3.346 2.34,-7.675 2.461,-13.185 0.001,-0.048 0.001,-3.512 0.001,-3.512 L 0.581,45.337 c 0,-0.58 0.072,-2.112 0.561,-5.102 0.56,-3.433 0.833,-6.267 0.833,-8.665 0,-3.572 -1.284,-6.883 -3.608,-9.434 0.709,-0.503 1.347,-1.115 1.868,-1.833 C 1.874,18.04 2.224,15.035 1.152,12.458 0.995,12.08 0.842,11.715 0.691,11.362 2.006,9.317 2.368,6.729 1.516,4.311 Z m 5.086,11.55 c 1.281,3.655 0.721,7.785 -1.516,10.966 1.567,2.714 2.405,5.829 2.405,9.054 0,2.612 -0.289,5.657 -0.885,9.309 -0.485,2.966 -0.509,4.234 -0.509,4.458 l 0.031,3.088 c 0,3.548 -0.001,3.583 -0.002,3.64 -0.133,6.065 -1.056,10.893 -2.821,14.758 -3.72,8.319 -11.473,13.302 -20.726,13.302 -2.315,0 -4.605,-0.333 -6.83,-0.99 -2.386,1.14 -5.023,1.736 -7.73,1.736 -4.052,0 -7.903,-1.311 -11.039,-3.727 -3.75,1.438 -7.433,2.17 -10.946,2.17 -6.747,0 -13.072,-1.99 -18.505,-5.792 -4.033,3.825 -9.285,5.889 -15.154,5.889 -2.965,0 -5.809,-0.417 -8.475,-1.242 -2.612,1.04 -5.436,1.567 -8.419,1.567 -1.617,0 -3.244,-0.214 -4.86,-0.635 -2.429,1.396 -5.113,2.19 -7.894,2.331 0.53,1.596 0.805,3.285 0.805,4.991 0,10.946 -8.095,16.852 -15.712,16.852 -2.95,0 -5.822,-0.824 -8.29,-2.354 -2.098,0.553 -4.359,0.832 -6.748,0.832 -3.36,0 -6.603,-0.736 -9.518,-2.147 -2.601,1.436 -5.54,2.184 -8.637,2.184 -1.559,0 -3.088,-0.159 -4.559,-0.472 -1.569,0.433 -3.205,0.652 -4.881,0.652 -0.656,0 -1.315,-0.041 -1.97,-0.122 -1.797,0.719 -3.694,1.083 -5.657,1.083 -2.484,0 -4.951,-0.619 -7.123,-1.768 -1.629,0.38 -3.242,0.572 -4.817,0.572 -0.996,0 -1.983,-0.06 -2.957,-0.179 -1.655,2.729 -4.571,5.63 -9.698,7.657 -3.453,1.39 -6.552,2.07 -9.45,2.07 -5.091,0 -9.924,-1.892 -13.978,-5.471 -3.186,-2.804 -5.871,-6.278 -8.001,-10.349 -5.723,-0.802 -12.067,-4.682 -14.827,-13.631 -0.032,-0.1 -0.064,-0.2 -0.094,-0.299 -0.685,3.383 -2.32,6.489 -4.769,8.983 -3.382,3.441 -7.919,5.335 -12.778,5.335 -4.861,0 -9.398,-1.894 -12.777,-5.335 -3.31,-3.369 -5.133,-7.858 -5.133,-12.64 0,-0.958 -0.051,-2.909 -0.295,-6.768 -0.239,-3.775 -0.354,-6.599 -0.354,-8.634 0,-1.378 0.047,-3.379 0.139,-5.949 0.1,-2.748 0.121,-4.154 0.121,-4.85 0,-1.286 -0.09,-3.898 -0.518,-9.037 -0.415,-5.007 -0.617,-8.765 -0.617,-11.489 0,-4.71 1.79,-9.159 5.04,-12.529 3.39,-3.512 7.96,-5.446 12.87,-5.446 4.913,0 9.483,1.933 12.868,5.445 2.687,2.782 4.377,6.306 4.883,10.106 0.705,-3.384 2.371,-6.488 4.861,-8.98 3.38,-3.38 7.879,-5.241 12.668,-5.241 3.388,0 6.668,0.942 9.484,2.693 4.107,-2.047 8.866,-3.082 14.187,-3.082 2.272,0 4.622,0.369 7.14,1.126 2.159,-1.007 4.407,-1.515 6.707,-1.515 0.157,0 0.315,0.002 0.473,0.006 l 0.055,-4.961 c -1.269,-2.322 -1.734,-4.974 -1.312,-7.605 0.936,-5.833 5.903,-10.066 11.812,-10.066 0.003,0 1.72,0.026 3.435,0.054 l 2.314,0.037 0.763,0.012 c 0.075,0.002 0.15,0.004 0.224,0.008 v -0.003 c 1.969,0 3.926,0.492 5.66,1.425 l 0.482,0.259 c 5.784,0.064 8.957,3.482 11.639,7.795 1.913,-1.02 4.065,-1.77 6.436,-2.241 2.925,-0.585 6.24,-0.869 10.128,-0.869 1.708,0 3.364,0.09 4.962,0.271 -0.467,-1.617 -0.593,-3.334 -0.348,-5.061 0.819,-5.779 5.649,-10.141 11.484,-10.371 l 1.749,-0.069 c 0.142,-0.005 0.278,-0.008 0.411,-0.008 h 2.226 c 0.022,0 0.826,0.031 1.415,0.057 l 0.45,0.019 h 0.014 l 0.099,0.005 c 1.83,0.091 3.584,0.581 5.163,1.434 0.417,-0.043 0.836,-0.065 1.256,-0.065 h 6.779 c 2.292,0 4.56,0.669 6.495,1.901 0.179,0.037 0.356,0.078 0.532,0.122 2.027,0.518 2.646,0.692 3.461,1.026 1.261,0.512 2.5,1.168 3.7,1.958 0.56,-0.079 1.126,-0.119 1.695,-0.119 0.658,0 1.315,0.054 1.964,0.162 1.111,-0.33 2.26,-0.497 3.431,-0.497 0.952,0 1.889,0.109 2.802,0.328 1.594,-0.749 3.332,-1.138 5.121,-1.138 0.006,0 0.468,0.008 0.95,0.016 l 0.969,0.017 h 0.008 l 0.042,0.001 c 1.617,0.035 3.201,0.392 4.668,1.048 0.885,-0.204 1.795,-0.307 2.72,-0.307 0.21,0 0.422,0.005 0.632,0.016 0.634,-0.1 1.276,-0.151 1.916,-0.151 0.272,0 0.272,0 4.149,0.182 0.797,0.04 1.581,0.155 2.339,0.343 l 0.258,-1.477 c 1.009,-5.797 6.014,-10.007 11.9,-10.007 0.125,0 0.344,0.006 0.469,0.01 6.046,0.239 11.012,4.955 11.56,10.969 l 0.061,0.659 c 0.2,-0.01 0.402,-0.015 0.605,-0.017 0.825,-0.171 1.67,-0.257 2.518,-0.257 2.345,0 4.568,0.619 6.76,1.889 h 1.659 c 1.875,-1.072 3.985,-1.62 6.294,-1.632 0.827,-0.171 1.67,-0.257 2.517,-0.257 2.361,0 4.602,0.63 6.815,1.921 l 5.415,0.08 1.514,0.023 h 0.001 0.015 0.009 0.007 c 5.026,0.079 9.529,3.321 11.205,8.067 l 1.518,4.316 c 0.997,2.828 0.91,5.852 -0.203,8.566" /></g><g
           transform="translate(94.8667,103.1523)"
           id="g28"><path
             id="path30"
             style="fill:#231f20;fill-opacity:1;fill-rule:nonzero;stroke:none"
             d="M 0,0 C 0.247,0.278 0.486,0.493 0.717,0.658 0.711,0.479 0.708,0.304 0.708,0.132 c 0,-1.405 0.129,-3.296 0.393,-5.745 -0.33,-0.144 -0.796,-0.22 -1.357,-0.22 -0.304,0 -0.444,0.053 -0.508,0.118 -0.076,0.107 -0.456,0.738 -0.456,2.586 0,1.199 0.387,2.193 1.22,3.129 m -0.256,-9.072 c 1.16,0 2.144,0.212 2.954,0.634 0.434,0.23 1.044,0.689 1.83,1.377 -0.387,3.201 -0.58,5.599 -0.58,7.193 0,0.52 0.033,1.084 0.099,1.695 0.067,0.61 0.166,1.259 0.299,1.947 -0.447,0.23 -0.83,0.399 -1.15,0.508 -0.32,0.108 -0.577,0.163 -0.77,0.163 -1.872,0 -3.488,-0.764 -4.847,-2.292 -1.359,-1.528 -2.038,-3.289 -2.038,-5.282 0,-1.981 0.35,-3.467 1.051,-4.457 0.7,-0.991 1.751,-1.486 3.152,-1.486" /></g><g
           transform="translate(148.5864,106.1113)"
           id="g32"><path
             id="path34"
             style="fill:#231f20;fill-opacity:1;fill-rule:nonzero;stroke:none"
             d="m 0,0 c -1.039,0.966 -2.495,1.449 -4.367,1.449 -1.473,0 -2.699,-0.57 -3.678,-1.712 -0.978,-1.141 -1.709,-2.86 -2.192,-5.154 l 5.562,2.645 C -2.488,-1.709 -0.93,-0.785 0,0" /></g><g
           transform="translate(62.7637,100.4682)"
           id="g36"><path
             id="path38"
             style="fill:#fff200;fill-opacity:1;fill-rule:nonzero;stroke:none"
             d="M 0,0 C 0,-0.759 -0.149,-1.562 -0.452,-2.494 -0.149,-4.531 0.527,-6.151 1.589,-7.339 3.075,-9 5.304,-9.83 8.275,-9.83 c 3.262,0 6.091,1.108 8.489,3.325 1.859,1.718 3.215,3.89 4.083,6.505 0.035,1.92 0.417,3.707 1.137,5.354 C 21.973,5.365 21.966,5.378 21.955,5.389 21.604,5.74 21.169,5.915 20.65,5.915 14.26,5.915 9.761,5.118 7.152,3.523 6.512,3.125 6.191,2.593 6.191,1.929 c 0,-0.495 0.163,-0.93 0.49,-1.305 0.35,-0.411 0.791,-0.616 1.322,-0.616 0.266,0 0.538,0.067 0.815,0.2 2.392,1.123 5.261,1.769 8.607,1.938 -0.664,-2.693 -1.836,-4.765 -3.515,-6.214 -1.595,-1.366 -3.473,-2.048 -5.635,-2.048 -2.041,0 -3.442,0.495 -4.203,1.486 -0.701,0.906 -1.051,2.494 -1.051,4.765 0,4.324 1.395,8.335 4.185,12.031 0.93,1.244 1.643,2.102 2.138,2.573 0.99,0.942 1.939,1.413 2.844,1.413 1.269,0 2.827,-0.562 4.675,-1.685 0.483,-0.302 0.858,-0.453 1.124,-0.453 0.507,0 0.942,0.193 1.304,0.58 0.362,0.386 0.543,0.827 0.543,1.322 0,1.051 -1.099,2.011 -3.297,2.881 -1.8,0.725 -3.249,1.087 -4.349,1.087 -1.727,0 -3.363,-0.682 -4.91,-2.047 C 4.959,15.795 3.06,13.117 1.58,9.801 0.491,7.36 -0.194,4.971 -0.481,2.632 -0.171,1.806 0,0.921 0,0" /></g><g
           transform="translate(92.4458,105.3051)"
           id="g40"><path
             id="path42"
             style="fill:#fff200;fill-opacity:1;fill-rule:nonzero;stroke:none"
             d="m 0,0 c 1.359,1.528 2.975,2.292 4.847,2.292 0.193,0 0.45,-0.055 0.77,-0.163 C 5.937,2.02 6.32,1.851 6.767,1.622 6.634,0.933 6.535,0.284 6.468,-0.326 6.402,-0.937 6.369,-1.501 6.369,-2.021 c 0,-1.594 0.193,-3.992 0.58,-7.192 -0.786,-0.689 -1.396,-1.148 -1.83,-1.377 -0.81,-0.423 -1.794,-0.635 -2.954,-0.635 -1.401,0 -2.452,0.496 -3.152,1.486 -0.701,0.99 -1.052,2.476 -1.052,4.457 0,1.993 0.68,3.754 2.039,5.282 m -5.608,-5.119 c 0,-3.092 0.61,-5.387 1.83,-6.885 1.293,-1.594 3.352,-2.392 6.179,-2.392 0.592,0 1.328,0.161 2.21,0.481 0.882,0.32 1.903,0.794 3.062,1.422 0.09,-0.13 0.218,-0.276 0.339,-0.418 1.035,0.514 2.187,0.785 3.417,0.785 0.019,0 0.038,-0.003 0.057,-0.003 -0.078,0.178 -0.143,0.333 -0.189,0.451 -0.64,1.595 -1.021,2.658 -1.142,3.189 -0.217,0.87 -0.32,2.054 -0.307,3.552 0.011,1.642 0.051,2.989 0.117,4.04 0.067,1.051 0.16,1.806 0.281,2.265 0.242,0.254 0.362,0.543 0.362,0.869 0,0.955 -0.821,1.77 -2.463,2.447 C 6.84,5.227 5.662,5.499 4.611,5.499 1.821,5.499 -0.58,4.46 -2.591,2.382 -4.602,0.305 -5.608,-2.195 -5.608,-5.119" /></g><g
           transform="translate(107.0947,95.6205)"
           id="g44"><path
             id="path46"
             style="fill:#fff200;fill-opacity:1;fill-rule:nonzero;stroke:none"
             d="m 0,0 c 0,-1.511 0.165,-2.647 0.488,-3.422 0.555,-0.321 1.076,-0.73 1.55,-1.233 0.003,0 0.006,-10e-4 0.009,-10e-4 0.495,0 0.928,0.169 1.296,0.507 0.368,0.338 0.553,0.755 0.553,1.25 0,0.29 -0.058,0.761 -0.173,1.413 -0.115,0.653 -0.172,1.16 -0.172,1.522 0,0.677 0.067,1.721 0.199,3.135 0.133,1.413 0.2,2.482 0.2,3.207 0.423,0.471 0.731,0.851 0.924,1.141 l 2.138,2.392 c 0.869,0.87 1.727,1.498 2.572,1.884 0.363,-0.712 0.544,-1.709 0.544,-2.989 0,-1.462 0.148,-3.621 0.444,-6.478 0.238,-2.297 0.379,-4.135 0.426,-5.529 0.113,0.002 0.227,0.013 0.341,0.013 1.136,0 2.203,-0.144 3.216,-0.385 -0.029,1.147 -0.136,2.521 -0.332,4.153 L 13.68,5.417 c -0.073,1.136 -0.103,2.271 -0.091,3.407 0.362,0.423 1.123,0.984 2.283,1.685 1.22,0.761 2.053,1.141 2.5,1.141 0.483,0 0.93,-0.543 1.341,-1.63 0.29,-0.798 0.495,-1.613 0.616,-2.446 l 0.616,-5.617 c 0.218,-2.416 0.435,-4.288 0.652,-5.617 0.17,-1.051 0.749,-1.576 1.74,-1.576 0.519,0 0.96,0.169 1.322,0.507 0.362,0.338 0.526,0.749 0.489,1.232 -0.531,4.844 -0.966,8.305 -1.304,10.382 -0.35,2.959 -0.598,4.657 -0.743,5.092 -0.737,2.174 -2.114,3.261 -4.131,3.261 -1.184,0 -2.235,-0.221 -3.153,-0.661 -0.918,-0.441 -1.709,-1.103 -2.373,-1.985 -0.713,1.885 -2.017,2.827 -3.914,2.827 -0.857,0 -1.896,-0.523 -3.116,-1.567 C 5.194,12.807 4.27,11.638 3.642,10.346 l -0.037,1.902 c 0,0.254 0.031,0.622 0.091,1.106 0.06,0.482 0.091,0.839 0.091,1.068 0,0.484 -0.197,0.931 -0.589,1.341 -0.393,0.411 -0.824,0.616 -1.296,0.616 -1.232,0 -1.848,-1.371 -1.848,-4.113 0,-0.652 0.058,-1.618 0.173,-2.899 C 0.341,8.087 0.398,7.126 0.398,6.486 0.398,5.762 0.332,4.681 0.199,3.243 0.066,1.806 0,0.725 0,0" /></g><g
           transform="translate(140.5415,105.8486)"
           id="g48"><path
             id="path50"
             style="fill:#fff200;fill-opacity:1;fill-rule:nonzero;stroke:none"
             d="M 0,0 C 0.979,1.142 2.205,1.712 3.678,1.712 5.55,1.712 7.006,1.229 8.045,0.263 7.115,-0.522 5.557,-1.447 3.37,-2.509 L -2.192,-5.155 C -1.709,-2.86 -0.979,-1.142 0,0 m -2.464,-12.747 c 1.691,-1.364 3.901,-2.047 6.631,-2.047 1.752,0 3.552,0.411 5.4,1.232 2.162,0.966 3.243,2.12 3.243,3.461 0,0.423 -0.166,0.794 -0.498,1.114 -0.333,0.32 -0.71,0.48 -1.133,0.48 -0.471,0 -0.912,-0.323 -1.323,-0.969 -0.41,-0.647 -1.328,-1.169 -2.753,-1.567 -1.124,-0.314 -2.102,-0.471 -2.936,-0.471 -1.34,0 -2.515,0.253 -3.524,0.761 -1.008,0.507 -1.851,1.262 -2.527,2.264 l 6.921,3.28 c 1.957,0.918 3.237,1.594 3.841,2.029 1.365,0.991 2.047,2.09 2.047,3.298 0,1.727 -0.779,3.007 -2.337,3.841 -1.268,0.676 -2.905,1.015 -4.91,1.015 -2.766,0 -4.976,-1.16 -6.631,-3.479 -1.522,-2.126 -2.283,-4.76 -2.283,-7.9 0,-2.718 0.924,-4.832 2.772,-6.342" /></g><g
           transform="translate(157.8447,95.9828)"
           id="g52"><path
             id="path54"
             style="fill:#fff200;fill-opacity:1;fill-rule:nonzero;stroke:none"
             d="m 0,0 c 0,-0.543 0.175,-0.99 0.525,-1.341 0.338,-0.35 0.78,-0.525 1.324,-0.525 0.543,0 0.99,0.175 1.339,0.525 C 3.539,-0.99 3.715,-0.543 3.715,0 3.715,2.513 3.038,3.769 1.686,3.769 1.166,3.769 0.716,3.6 0.335,3.261 -0.045,2.923 -0.235,2.5 -0.235,1.993 -0.235,1.776 -0.196,1.447 -0.117,1.006 -0.039,0.565 0,0.229 0,0" /></g><g
           transform="translate(157.5371,109.2094)"
           id="g56"><path
             id="path58"
             style="fill:#fff200;fill-opacity:1;fill-rule:nonzero;stroke:none"
             d="m 0,0 c 0,-0.543 0.175,-0.99 0.525,-1.341 0.35,-0.35 0.797,-0.525 1.341,-0.525 0.543,0 0.988,0.175 1.331,0.525 C 3.542,-0.99 3.714,-0.543 3.714,0 3.714,2.09 3.05,3.135 1.721,3.135 1.189,3.135 0.742,2.965 0.38,2.627 0.018,2.289 -0.163,1.86 -0.163,1.341 -0.163,1.184 -0.136,0.958 -0.082,0.662 -0.027,0.365 0,0.145 0,0" /></g><g
           transform="translate(80.7974,62.3359)"
           id="g60"><path
             id="path62"
             style="fill:#231f20;fill-opacity:1;fill-rule:nonzero;stroke:none"
             d="m 0,0 c -0.818,-0.427 -1.923,-0.644 -3.286,-0.644 -1.526,0 -1.895,0.523 -2.116,0.835 -0.406,0.575 -1.088,2.05 -1.088,5.482 0,2.495 0.836,4.648 2.557,6.583 1.234,1.387 2.538,2.206 4.029,2.513 C -0.022,13.615 -0.082,12.52 -0.082,11.51 -0.082,8.873 0.179,5.249 0.712,0.478 0.297,0.169 0.078,0.042 0,0 m 4.416,14.542 c 0.118,1.092 0.297,2.254 0.535,3.486 -0.8,0.411 -1.487,0.713 -2.059,0.908 -0.574,0.194 -1.033,0.292 -1.379,0.292 -3.35,0 -6.242,-1.368 -8.674,-4.102 -2.432,-2.735 -3.648,-5.886 -3.648,-9.453 0,-3.545 0.627,-6.204 1.881,-7.977 1.254,-1.772 3.135,-2.659 5.642,-2.659 2.076,0 3.837,0.379 5.286,1.136 0.778,0.41 1.87,1.231 3.275,2.464 -0.692,5.729 -1.038,10.02 -1.038,12.873 0,0.93 0.059,1.94 0.179,3.032" /></g><g
           transform="translate(151.3545,69.3193)"
           id="g64"><path
             id="path66"
             style="fill:#231f20;fill-opacity:1;fill-rule:nonzero;stroke:none"
             d="m 0,0 c -0.021,-0.107 -0.038,-0.215 -0.05,-0.324 -0.161,-1.381 -0.911,-2.898 -2.206,-4.48 -0.667,-0.8 -1.949,-2.142 -3.037,-2.142 -1.413,0 -1.743,0.437 -1.901,0.647 -0.275,0.364 -0.914,1.531 -0.914,4.47 0,2.964 0.683,5.271 2.079,7.042 0.891,1.123 2.498,2.615 6.15,2.615 0.335,0 0.654,-0.034 0.969,-0.104 C 0.703,4.333 0.339,1.741 0,0 m 0.122,12.147 c -4.107,0 -7.285,-1.416 -9.534,-4.248 -2.01,-2.551 -3.015,-5.794 -3.015,-9.728 0,-3.134 0.594,-5.49 1.783,-7.068 1.189,-1.579 2.973,-2.368 5.351,-2.368 2.183,0 4.302,1.233 6.355,3.697 1.86,2.269 2.918,4.518 3.178,6.744 0.454,2.335 0.941,5.999 1.459,10.993 -0.864,0.67 -1.761,1.167 -2.691,1.492 -0.93,0.324 -1.892,0.486 -2.886,0.486" /></g><g
           transform="translate(233.5156,51.6992)"
           id="g68"><path
             id="path70"
             style="fill:#231f20;fill-opacity:1;fill-rule:nonzero;stroke:none"
             d="m 0,0 c -5.059,0 -8.744,1.427 -11.058,4.28 -2.183,2.681 -3.275,6.787 -3.275,12.322 0,5.231 1.8,9.706 5.399,13.424 3.6,3.719 7.896,5.578 12.89,5.578 1.881,0 3.988,-0.486 6.323,-1.459 2.941,-1.211 4.41,-2.67 4.41,-4.378 0,-0.583 -0.216,-1.102 -0.648,-1.556 -0.217,-0.822 -0.384,-2.173 -0.503,-4.054 -0.119,-1.88 -0.189,-4.291 -0.211,-7.231 -0.021,-2.68 0.162,-4.799 0.552,-6.356 0.216,-0.951 0.896,-2.853 2.043,-5.707 0.151,-0.388 0.399,-0.962 0.745,-1.718 l 0.195,-0.551 c 0,-0.865 -0.302,-1.578 -0.908,-2.141 -0.605,-0.561 -1.308,-0.843 -2.108,-0.843 -0.41,0 -1.157,0.476 -2.238,1.427 C 10.636,1.924 9.912,2.713 9.437,3.404 7.36,2.28 5.534,1.432 3.956,0.859 2.378,0.286 1.06,0 0,0 m -19.521,-0.033 c -0.648,-0.605 -1.437,-0.907 -2.367,-0.907 -1.772,0 -2.81,0.94 -3.113,2.82 -0.389,2.378 -0.778,5.729 -1.167,10.053 l -1.103,10.052 c -0.216,1.492 -0.583,2.951 -1.102,4.377 -0.735,1.946 -1.535,2.919 -2.399,2.919 -0.8,0 -2.292,-0.681 -4.476,-2.043 -2.075,-1.254 -3.437,-2.259 -4.085,-3.016 -0.022,-2.032 0.032,-4.064 0.162,-6.096 l 0.973,-8.658 c 0.41,-3.415 0.616,-6.237 0.616,-8.463 0,-0.951 -0.298,-1.734 -0.892,-2.351 -0.594,-0.616 -1.357,-0.925 -2.286,-0.925 -0.929,0 -1.692,0.309 -2.286,0.925 -0.595,0.617 -0.892,1.4 -0.892,2.351 0,2.615 -0.265,6.479 -0.794,11.593 -0.53,5.112 -0.795,8.976 -0.795,11.592 0,2.291 -0.325,4.075 -0.973,5.35 -1.513,-0.691 -3.048,-1.816 -4.604,-3.372 l -3.827,-4.28 c -0.345,-0.519 -0.897,-1.2 -1.653,-2.043 0,-1.298 -0.119,-3.211 -0.357,-5.74 -0.238,-2.529 -0.357,-4.399 -0.357,-5.61 0,-0.648 0.103,-1.557 0.309,-2.724 0.205,-1.167 0.307,-2.01 0.307,-2.529 0,-0.886 -0.33,-1.632 -0.989,-2.237 -0.659,-0.606 -1.432,-0.908 -2.318,-0.908 -2.443,0 -3.664,2.778 -3.664,8.334 0,1.297 0.119,3.231 0.356,5.803 0.238,2.574 0.358,4.508 0.358,5.805 0,1.146 -0.104,2.865 -0.309,5.156 -0.205,2.291 -0.308,4.021 -0.308,5.188 0,4.908 1.103,7.361 3.308,7.361 0.843,0 1.615,-0.368 2.318,-1.102 0.702,-0.735 1.054,-1.535 1.054,-2.4 0,-0.41 -0.055,-1.049 -0.162,-1.913 -0.108,-0.865 -0.162,-1.524 -0.162,-1.978 l 0.064,-3.405 c 1.124,2.313 2.779,4.405 4.962,6.275 2.183,1.869 4.042,2.804 5.577,2.804 3.394,0 5.729,-1.686 7.004,-5.058 1.19,1.578 2.605,2.762 4.248,3.551 1.643,0.789 3.524,1.183 5.642,1.183 3.61,0 6.075,-1.945 7.393,-5.837 0.26,-0.778 0.704,-3.815 1.331,-9.112 0.604,-3.718 1.382,-9.911 2.333,-18.58 0.066,-0.864 -0.226,-1.6 -0.875,-2.205 m 37.37,23.917 c 0.079,1.255 0.169,2.058 0.243,2.555 0.228,0.381 0.401,0.784 0.546,1.197 -0.009,-2.088 -0.161,-5.019 -0.455,-8.731 -0.173,-2.171 -0.297,-4.065 -0.377,-5.724 -0.101,0.894 -0.173,2.092 -0.16,3.715 0.021,2.834 0.088,5.186 0.203,6.988 m 4.639,-5.32 c 0.313,3.945 0.47,7.031 0.47,9.258 0,0.691 -0.038,1.718 -0.113,3.08 -0.076,1.362 -0.114,2.389 -0.114,3.08 0,0.93 0.308,1.692 0.924,2.287 0.616,0.594 1.378,0.892 2.286,0.892 1.989,0 3.08,-1.406 3.276,-4.216 l 0.096,-3.794 c 3.632,4.843 7.362,7.264 11.188,7.264 3.459,0 5.866,-1.524 7.228,-4.573 0.93,-2.031 1.438,-5.036 1.524,-9.014 v -3.275 l -0.032,-3.016 c 0,-1.794 0.238,-4.112 0.703,-6.955 0.464,-2.843 0.691,-5.15 0.691,-6.924 0,-0.951 -0.302,-1.723 -0.919,-2.318 -0.616,-0.595 -1.394,-0.892 -2.324,-0.892 -1.856,0 -2.904,1.017 -3.143,3.048 l -0.907,7.102 c -0.302,2.529 -0.454,4.896 -0.454,7.101 0,0.606 0.037,1.633 0.113,3.081 0.076,1.448 0.114,2.475 0.114,3.08 0,4.67 -0.865,7.004 -2.594,7.004 -2.421,0 -4.734,-1.437 -6.939,-4.312 -1.99,-2.616 -3.545,-5.924 -4.669,-9.923 -0.044,-0.843 -0.141,-1.902 -0.292,-3.178 -0.13,-1.081 -0.196,-2.129 -0.196,-3.145 0,-0.649 0.066,-1.621 0.196,-2.918 0.128,-1.297 0.194,-2.27 0.194,-2.918 0,-0.974 -0.298,-1.763 -0.892,-2.367 -0.594,-0.606 -1.356,-0.909 -2.286,-0.909 -0.951,0 -1.719,0.303 -2.303,0.909 -0.583,0.604 -0.875,1.393 -0.875,2.367 0,0.648 -0.07,1.621 -0.21,2.918 -0.141,1.297 -0.211,2.269 -0.211,2.918 0,2.226 0.157,5.313 0.47,9.258 m -93.243,3.259 c -0.497,-2.984 -0.789,-5.015 -0.875,-6.096 L -72.376,4.831 c -0.13,-4.323 -0.573,-7.857 -1.329,-10.603 -0.974,-3.502 -2.529,-6.085 -4.67,-7.75 -2.594,-2.01 -6.345,-3.016 -11.252,-3.016 -2.875,0 -5.286,0.194 -7.231,0.584 -2.724,0.54 -4.086,1.664 -4.086,3.372 0,1.924 0.941,2.886 2.821,2.886 0.779,0 2.076,-0.189 3.892,-0.568 1.815,-0.378 3.826,-0.546 6.031,-0.502 4.15,0.065 7.014,2.076 8.593,6.032 1.038,2.636 1.588,6.69 1.654,12.159 C -79.121,5.264 -80.51,3.643 -82.12,2.562 -83.731,1.48 -85.574,0.94 -87.649,0.94 c -3.913,0 -7.096,1.335 -9.55,4.004 -2.453,2.67 -3.68,6.135 -3.68,10.393 0,5.837 1.675,10.539 5.026,14.106 3.459,3.675 8.172,5.513 14.138,5.513 2.011,0 3.696,-0.26 5.059,-0.779 1.362,-0.519 2.399,-1.297 3.113,-2.335 2.313,-0.064 3.47,-1.351 3.47,-3.858 0,-1.535 -0.228,-3.589 -0.682,-6.161 M -105.889,0.34 c -0.616,-0.595 -1.389,-0.892 -2.319,-0.892 -1.858,0 -2.907,1.017 -3.145,3.048 l -0.908,7.102 c -0.302,2.529 -0.454,4.896 -0.454,7.101 0,0.606 0.038,1.633 0.114,3.081 0.076,1.448 0.113,2.475 0.113,3.08 0,4.67 -0.865,7.004 -2.594,7.004 -2.421,0 -4.734,-1.437 -6.939,-4.312 -1.989,-2.616 -3.545,-5.924 -4.669,-9.923 -0.044,-0.843 -0.141,-1.902 -0.292,-3.178 -0.13,-1.081 -0.195,-2.129 -0.195,-3.145 0,-0.649 0.065,-1.621 0.195,-2.918 0.129,-1.297 0.194,-2.27 0.194,-2.918 0,-0.974 -0.297,-1.763 -0.892,-2.367 -0.594,-0.606 -1.356,-0.909 -2.285,-0.909 -0.952,0 -1.719,0.303 -2.303,0.909 -0.584,0.604 -0.876,1.393 -0.876,2.367 0,0.648 -0.07,1.621 -0.21,2.918 -0.141,1.297 -0.211,2.269 -0.211,2.918 0,2.226 0.157,5.313 0.47,9.258 0.314,3.945 0.47,7.031 0.47,9.258 0,0.691 -0.037,1.718 -0.113,3.08 -0.075,1.362 -0.114,2.389 -0.114,3.08 0,0.93 0.309,1.692 0.925,2.287 0.616,0.594 1.378,0.892 2.286,0.892 1.989,0 3.08,-1.406 3.275,-4.216 l 0.097,-3.794 c 3.632,4.843 7.361,7.264 11.187,7.264 3.459,0 5.87,-1.524 7.231,-4.573 0.93,-2.031 1.438,-5.036 1.524,-9.014 v -3.275 l -0.032,-3.016 c 0,-1.794 0.233,-4.112 0.697,-6.955 0.465,-2.843 0.697,-5.15 0.697,-6.924 0,-0.951 -0.308,-1.723 -0.924,-2.318 m -31.844,23.545 c 0.079,1.254 0.169,2.057 0.242,2.554 0.229,0.38 0.402,0.783 0.546,1.196 -0.009,-2.093 -0.16,-5.023 -0.455,-8.729 -0.172,-2.17 -0.297,-4.064 -0.376,-5.723 -0.101,0.893 -0.173,2.091 -0.16,3.712 0.021,2.849 0.089,5.2 0.203,6.99 m -1.895,-23.432 c -0.606,-0.561 -1.309,-0.843 -2.108,-0.843 -0.411,0 -1.157,0.476 -2.238,1.427 -0.973,0.887 -1.697,1.676 -2.172,2.367 -2.076,-1.124 -3.902,-1.972 -5.48,-2.545 C -153.205,0.286 -154.523,0 -155.583,0 c -5.058,0 -8.744,1.427 -11.057,4.28 -2.183,2.681 -3.275,6.787 -3.275,12.322 0,5.231 1.8,9.706 5.399,13.424 3.599,3.719 7.896,5.578 12.89,5.578 1.88,0 3.988,-0.486 6.323,-1.459 2.94,-1.211 4.409,-2.67 4.409,-4.378 0,-0.583 -0.215,-1.102 -0.648,-1.556 -0.216,-0.822 -0.383,-2.173 -0.502,-4.054 -0.12,-1.88 -0.189,-4.291 -0.211,-7.231 -0.022,-2.68 0.162,-4.799 0.551,-6.356 0.216,-0.951 0.897,-2.853 2.043,-5.707 0.151,-0.388 0.4,-0.962 0.745,-1.718 l 0.195,-0.551 c 0,-0.865 -0.302,-1.578 -0.907,-2.141 m -32.447,26.128 c 0.03,0.347 0.058,0.692 0.091,1.055 0.393,4.45 0.584,7.735 0.584,10.043 0,0.376 -0.008,0.862 -0.021,1.437 1.742,-1.866 4.099,-2.968 7.018,-3.298 -1.119,-0.814 -2.196,-1.734 -3.216,-2.787 -1.902,-1.965 -3.371,-4.126 -4.456,-6.45 m -3.288,20.858 c -0.324,-0.907 -0.486,-2.237 -0.486,-3.988 0,-0.648 0.021,-1.61 0.065,-2.886 0.043,-1.275 0.065,-2.237 0.065,-2.886 0,-2.161 -0.19,-5.383 -0.568,-9.663 -0.378,-4.28 -0.567,-7.501 -0.567,-9.663 0,-1.643 0.119,-4.107 0.356,-7.393 0.238,-3.286 0.357,-5.762 0.357,-7.426 0,-0.887 -0.297,-1.632 -0.892,-2.237 -0.594,-0.606 -1.335,-0.908 -2.221,-0.908 -0.865,0 -1.6,0.302 -2.205,0.908 -0.605,0.605 -0.908,1.35 -0.908,2.237 0,1.664 -0.119,4.14 -0.357,7.426 -0.237,3.286 -0.356,5.75 -0.356,7.393 0,1.578 0.054,3.178 0.162,4.799 -3.697,-0.065 -8.269,-0.616 -13.716,-1.653 l -13.619,-2.66 c 0,-1.945 -0.195,-4.707 -0.584,-8.284 -0.39,-3.578 -0.584,-6.351 -0.584,-8.318 0,-0.886 -0.297,-1.637 -0.892,-2.254 -0.594,-0.616 -1.334,-0.923 -2.221,-0.923 -0.886,0 -1.627,0.307 -2.221,0.923 -0.595,0.617 -0.892,1.368 -0.892,2.254 0,2.291 0.189,5.712 0.567,10.263 0.379,4.551 0.568,7.972 0.568,10.263 0,1.189 -0.043,2.983 -0.13,5.383 -0.086,2.399 -0.129,4.205 -0.129,5.415 0,1.708 0.108,4.275 0.324,7.701 0.216,3.427 0.324,5.994 0.324,7.702 0,0.908 0.297,1.664 0.892,2.269 0.594,0.606 1.335,0.909 2.221,0.909 0.886,0 1.627,-0.303 2.221,-0.909 0.595,-0.605 0.892,-1.361 0.892,-2.269 0,-1.73 -0.113,-4.318 -0.34,-7.766 -0.227,-3.448 -0.341,-6.037 -0.341,-7.767 l 0.195,-8.203 13.911,2.626 c 5.555,1.038 10.236,1.578 14.04,1.622 0.238,3.091 0.357,7.749 0.357,13.975 0,1.643 0.27,3.308 0.811,4.994 0.713,2.313 1.718,3.47 3.015,3.47 0.822,0 1.557,-0.298 2.206,-0.892 0.648,-0.595 0.972,-1.346 0.972,-2.254 0,-0.324 -0.097,-0.768 -0.292,-1.33 m 11.889,19.167 c 1.547,1.365 3.183,2.047 4.911,2.047 1.099,0 2.548,-0.362 4.348,-1.087 2.198,-0.87 3.298,-1.83 3.298,-2.881 0,-0.495 -0.182,-0.936 -0.544,-1.322 -0.362,-0.387 -0.797,-0.58 -1.304,-0.58 -0.266,0 -0.641,0.151 -1.124,0.453 -1.848,1.123 -3.406,1.685 -4.674,1.685 -0.906,0 -1.854,-0.471 -2.845,-1.413 -0.495,-0.471 -1.208,-1.329 -2.138,-2.573 -2.79,-3.696 -4.185,-7.706 -4.185,-12.031 0,-2.271 0.35,-3.859 1.051,-4.765 0.761,-0.991 2.162,-1.486 4.203,-1.486 2.162,0 4.04,0.682 5.635,2.048 1.679,1.449 2.851,3.521 3.515,6.214 -3.346,-0.169 -6.215,-0.815 -8.607,-1.938 -0.277,-0.133 -0.549,-0.2 -0.815,-0.2 -0.531,0 -0.972,0.205 -1.322,0.616 -0.326,0.375 -0.49,0.81 -0.49,1.305 0,0.664 0.321,1.196 0.961,1.594 2.609,1.595 7.108,2.392 13.498,2.392 0.519,0 0.954,-0.175 1.305,-0.526 0.011,-0.011 0.018,-0.024 0.029,-0.035 -0.72,-1.647 -1.102,-3.434 -1.137,-5.353 -0.867,-2.616 -2.224,-4.788 -4.083,-6.506 -2.398,-2.217 -5.227,-3.325 -8.489,-3.325 -2.971,0 -5.2,0.83 -6.686,2.491 -1.062,1.188 -1.738,2.808 -2.041,4.845 0.303,0.933 0.452,1.735 0.452,2.494 0,0.921 -0.171,1.806 -0.481,2.632 0.287,2.339 0.972,4.728 2.061,7.169 1.48,3.316 3.38,5.994 5.698,8.036 m 26.334,-34.039 c -0.483,1.149 -1.336,2.341 -2.762,3.454 0.402,-0.029 0.809,-0.05 1.233,-0.05 0.563,0 1.167,0.082 1.811,0.231 -0.205,-0.701 -0.312,-1.443 -0.312,-2.22 0,-0.39 0.009,-0.859 0.03,-1.415 m -12.013,10.394 c 0.421,-1.308 1.01,-2.442 1.789,-3.399 0.079,-0.098 0.17,-0.181 0.252,-0.274 -1.574,0.406 -3.09,0.635 -4.514,0.635 -0.045,0 -0.087,-0.006 -0.131,-0.006 0.982,0.913 1.851,1.928 2.604,3.044 m 12.695,16.144 c 1.05,0 2.228,-0.272 3.533,-0.815 1.642,-0.677 2.464,-1.492 2.464,-2.447 0,-0.326 -0.121,-0.615 -0.363,-0.869 -0.12,-0.459 -0.214,-1.214 -0.28,-2.265 -0.067,-1.051 -0.106,-2.398 -0.118,-4.041 -0.012,-1.497 0.09,-2.681 0.307,-3.551 0.122,-0.531 0.502,-1.594 1.142,-3.189 0.046,-0.118 0.111,-0.273 0.19,-0.451 -0.02,0 -0.039,0.002 -0.058,0.002 -1.23,0 -2.382,-0.27 -3.417,-0.784 -0.121,0.142 -0.249,0.288 -0.338,0.418 -1.16,-0.628 -2.181,-1.102 -3.062,-1.422 -0.882,-0.32 -1.619,-0.481 -2.211,-0.481 -2.827,0 -4.886,0.798 -6.179,2.392 -1.219,1.498 -1.83,3.793 -1.83,6.885 0,2.924 1.006,5.424 3.017,7.501 2.012,2.078 4.412,3.117 7.203,3.117 m 16.951,-16.109 c -0.12,0.682 -0.123,0.935 -0.123,0.962 0,0.394 0.031,1.204 0.185,2.831 0.056,0.605 0.101,1.151 0.136,1.641 0.064,-0.77 0.143,-1.607 0.238,-2.515 0.252,-2.431 0.393,-4.332 0.421,-5.671 -0.247,-0.068 -0.494,-0.135 -0.739,-0.216 0.066,0.323 0.102,0.656 0.102,0.994 0,0.497 -0.067,1.106 -0.22,1.974 m -6.687,10.293 c -0.115,1.28 -0.173,2.247 -0.173,2.899 0,2.742 0.617,4.113 1.848,4.113 0.472,0 0.903,-0.206 1.296,-0.616 0.392,-0.411 0.589,-0.858 0.589,-1.341 0,-0.23 -0.031,-0.586 -0.091,-1.069 -0.06,-0.483 -0.09,-0.852 -0.09,-1.106 l 0.036,-1.902 c 0.628,1.293 1.552,2.461 2.772,3.506 1.22,1.045 2.259,1.567 3.116,1.567 1.897,0 3.202,-0.942 3.914,-2.826 0.664,0.882 1.456,1.543 2.373,1.984 0.918,0.44 1.969,0.661 3.153,0.661 2.017,0 3.394,-1.087 4.131,-3.261 0.145,-0.435 0.393,-2.132 0.743,-5.091 0.338,-2.078 0.773,-5.539 1.305,-10.383 0.036,-0.483 -0.127,-0.893 -0.49,-1.232 -0.362,-0.338 -0.803,-0.507 -1.322,-0.507 -0.991,0 -1.57,0.525 -1.74,1.577 -0.217,1.328 -0.434,3.2 -0.652,5.616 l -0.616,5.617 c -0.121,0.834 -0.326,1.649 -0.616,2.446 -0.411,1.087 -0.857,1.631 -1.341,1.631 -0.447,0 -1.28,-0.381 -2.5,-1.142 -1.159,-0.701 -1.921,-1.262 -2.283,-1.685 -0.012,-1.135 0.018,-2.271 0.091,-3.406 l 0.543,-4.838 c 0.197,-1.632 0.303,-3.006 0.332,-4.152 -1.013,0.241 -2.08,0.384 -3.216,0.384 -0.114,0 -0.228,-0.01 -0.341,-0.013 -0.047,1.395 -0.188,3.233 -0.426,5.53 -0.296,2.856 -0.443,5.016 -0.443,6.477 0,1.28 -0.182,2.277 -0.544,2.99 -0.846,-0.387 -1.704,-1.015 -2.573,-1.885 l -2.138,-2.392 c -0.193,-0.289 -0.501,-0.67 -0.924,-1.141 0,-0.725 -0.067,-1.794 -0.199,-3.207 -0.133,-1.413 -0.2,-2.458 -0.2,-3.134 0,-0.363 0.057,-0.87 0.172,-1.522 0.115,-0.653 0.173,-1.123 0.173,-1.414 0,-0.495 -0.184,-0.912 -0.553,-1.25 -0.368,-0.338 -0.8,-0.507 -1.296,-0.507 -0.003,0 -0.006,0.002 -0.009,0.002 -0.474,0.502 -0.995,0.911 -1.55,1.232 -0.323,0.775 -0.488,1.912 -0.488,3.422 0,0.725 0.067,1.806 0.199,3.244 0.133,1.437 0.2,2.518 0.2,3.243 0,0.64 -0.058,1.6 -0.172,2.881 m 30.267,2.355 c 1.655,2.319 3.865,3.479 6.631,3.479 2.005,0 3.642,-0.338 4.91,-1.015 1.558,-0.833 2.337,-2.113 2.337,-3.841 0,-1.208 -0.682,-2.307 -2.047,-3.297 -0.604,-0.435 -1.884,-1.112 -3.841,-2.03 l -6.921,-3.279 c 0.676,-1.003 1.519,-1.758 2.527,-2.265 1.009,-0.507 2.184,-0.761 3.524,-0.761 0.834,0 1.812,0.157 2.935,0.471 1.426,0.399 2.344,0.921 2.754,1.567 0.411,0.646 0.852,0.97 1.323,0.97 0.423,0 0.8,-0.161 1.133,-0.48 0.332,-0.321 0.498,-0.692 0.498,-1.115 0,-1.34 -1.081,-2.494 -3.243,-3.461 -1.848,-0.821 -3.648,-1.232 -5.4,-1.232 -2.73,0 -4.94,0.683 -6.631,2.048 -1.848,1.51 -2.772,3.624 -2.772,6.342 0,3.14 0.761,5.773 2.283,7.899 m 20.591,-8.099 c 0.381,0.338 0.831,0.507 1.351,0.507 1.352,0 2.029,-1.256 2.029,-3.768 0,-0.544 -0.176,-0.991 -0.526,-1.341 -0.35,-0.35 -0.797,-0.526 -1.34,-0.526 -0.544,0 -0.986,0.176 -1.324,0.526 -0.35,0.35 -0.525,0.797 -0.525,1.341 0,0.229 -0.039,0.565 -0.117,1.006 -0.079,0.44 -0.118,0.77 -0.118,0.987 0,0.507 0.19,0.93 0.57,1.268 m -33.642,-2.682 -0.536,4.759 c -0.032,0.525 -0.056,1.056 -0.069,1.589 0.071,0.047 0.148,0.097 0.231,0.15 0.018,-0.093 0.032,-0.186 0.046,-0.278 l 0.603,-5.496 c 0.228,-2.521 0.452,-4.434 0.681,-5.839 0.083,-0.513 0.239,-0.978 0.432,-1.414 -0.349,0.268 -0.708,0.52 -1.087,0.743 0.029,0.229 0.063,0.457 0.063,0.695 0,1.383 -0.12,3.056 -0.364,5.091 m 6.63,-17.182 c -0.312,2.366 -0.829,4.328 -1.559,5.923 -0.383,0.857 -0.853,1.617 -1.364,2.328 0.652,-0.305 1.383,-0.486 2.187,-0.486 1.345,0 2.567,0.477 3.531,1.377 0.781,0.727 1.265,1.642 1.442,2.643 0.207,-0.198 0.412,-0.399 0.638,-0.584 1.226,-0.989 2.644,-1.707 4.231,-2.166 -2.145,-1.093 -4.073,-2.525 -5.759,-4.316 -1.339,-1.425 -2.44,-3.01 -3.347,-4.719 m 26.749,32.457 c 0.363,0.338 0.81,0.507 1.341,0.507 1.329,0 1.993,-1.045 1.993,-3.135 0,-0.543 -0.172,-0.99 -0.516,-1.341 -0.344,-0.35 -0.788,-0.525 -1.331,-0.525 -0.544,0 -0.992,0.175 -1.341,0.525 -0.351,0.351 -0.526,0.798 -0.526,1.341 0,0.145 -0.027,0.365 -0.082,0.662 -0.053,0.296 -0.081,0.522 -0.081,0.679 0,0.52 0.181,0.948 0.543,1.287 M 8.459,-1.932 c 0.098,-0.09 0.195,-0.181 0.297,-0.273 1.707,-1.503 3.226,-2.503 5.091,-2.503 1.893,0 3.638,0.69 5.046,1.997 0.381,0.355 0.717,0.746 1.008,1.164 0.1,-0.118 0.198,-0.237 0.306,-0.35 1.406,-1.457 3.277,-2.228 5.409,-2.228 2.1,0 3.957,0.762 5.367,2.2 1.394,1.418 2.13,3.284 2.13,5.395 0,0.802 -0.07,1.897 -0.215,3.347 -0.143,1.436 -0.173,2.146 -0.173,2.489 0,0.838 0.054,1.722 0.166,2.638 0.134,1.143 0.228,2.114 0.284,2.951 0.959,3.259 2.244,5.963 3.814,8.029 0.41,0.534 1.032,1.267 1.722,1.823 0.039,-0.503 0.065,-1.124 0.065,-1.887 0,-0.362 -0.019,-1.152 -0.107,-2.854 -0.082,-1.538 -0.12,-2.619 -0.12,-3.307 0,-2.362 0.163,-4.924 0.489,-7.649 L 39.94,1.993 c 0.497,-4.234 3.344,-6.864 7.432,-6.864 2.058,0 3.898,0.727 5.322,2.101 1.465,1.414 2.241,3.291 2.241,5.428 0,2.042 -0.245,4.534 -0.749,7.62 -0.429,2.624 -0.646,4.73 -0.646,6.212 l 0.032,3.063 -0.001,3.368 c -0.1,4.615 -0.726,8.12 -1.898,10.683 -2.055,4.598 -6.022,7.129 -11.172,7.129 -2.881,0 -5.666,-0.913 -8.333,-2.726 -1.49,2.493 -3.945,3.472 -6.227,3.472 -2.033,0 -3.861,-0.727 -5.285,-2.103 -1.468,-1.416 -2.244,-3.281 -2.244,-5.394 0,-0.396 0.01,-0.865 0.03,-1.415 -0.81,1.927 -2.649,3.978 -6.502,5.565 -2.852,1.189 -5.539,1.791 -7.984,1.791 -6.184,0 -11.564,-2.319 -15.993,-6.892 -2.318,-2.396 -4.016,-5.076 -5.117,-8.003 -0.581,4.496 -0.852,5.582 -1.065,6.222 -1.916,5.655 -5.994,8.77 -11.483,8.77 -2.762,0 -5.29,-0.541 -7.513,-1.609 -0.558,-0.268 -1.099,-0.57 -1.62,-0.904 -2.034,1.856 -4.673,2.837 -7.762,2.837 -2.166,0 -4.414,-0.857 -6.832,-2.612 -0.355,0.671 -0.816,1.306 -1.38,1.893 -1.923,2.016 -4.02,2.438 -5.439,2.438 -2.513,0 -6.523,-1.19 -7.434,-8.444 -0.932,1.073 -2.157,1.86 -3.647,2.25 -1.042,0.995 -2.31,1.78 -3.788,2.343 -1.303,0.497 -2.754,0.806 -4.373,0.954 0.774,0.614 1.323,1.257 1.714,1.896 0.1,-0.123 0.187,-0.255 0.299,-0.369 0.957,-0.991 2.221,-1.515 3.655,-1.515 1.412,0 2.668,0.51 3.627,1.471 0.966,0.965 1.478,2.222 1.478,3.635 0,6.502 -4.033,7.008 -5.269,7.008 -1.315,0 -2.527,-0.459 -3.5,-1.325 -0.657,-0.582 -1.107,-1.31 -1.376,-2.109 -0.784,0.606 -1.685,0.963 -2.661,1.017 2.222,1.892 2.714,3.947 2.714,5.392 0,0.681 -0.086,1.328 -0.239,1.944 0.219,-0.88 0.65,-1.677 1.307,-2.336 0.965,-0.962 2.22,-1.47 3.629,-1.47 1.42,0 2.677,0.515 3.645,1.497 0.944,0.962 1.443,2.21 1.443,3.609 0,4.704 -2.821,6.373 -5.234,6.373 -1.355,0 -2.583,-0.476 -3.551,-1.378 -1.013,-0.947 -1.573,-2.245 -1.573,-3.654 0,-0.365 0.043,-0.769 0.135,-1.26 0.012,-0.068 0.022,-0.127 0.03,-0.178 0.005,-0.324 0.042,-0.638 0.101,-0.944 -0.548,1.911 -1.826,3.47 -3.746,4.497 -1.736,0.926 -3.901,1.395 -6.433,1.395 -3.807,0 -7.012,-1.672 -9.265,-4.831 -0.514,-0.718 -0.955,-1.484 -1.333,-2.288 -0.161,1.027 -0.263,1.408 -0.359,1.695 -1.176,3.47 -3.8,5.46 -7.198,5.46 -1.67,0 -3.203,-0.33 -4.554,-0.98 -0.163,-0.078 -0.323,-0.16 -0.48,-0.248 -1.216,0.918 -2.716,1.41 -4.407,1.41 -1.165,0 -2.347,-0.373 -3.581,-1.133 -0.126,0.163 -0.263,0.322 -0.41,0.476 -1.278,1.336 -2.682,1.617 -3.636,1.617 -1.19,0 -3.601,-0.447 -4.616,-3.763 -0.635,0.542 -1.461,1.056 -2.546,1.502 -1.695,0.707 -3.303,1.065 -4.778,1.065 -3.688,0 -6.895,-1.38 -9.531,-4.103 -0.405,-0.418 -0.768,-0.856 -1.111,-1.303 -0.862,0.636 -1.88,0.985 -3.002,0.985 -5.351,0 -9.499,-0.538 -12.579,-1.645 0.479,0.92 1.055,1.824 1.729,2.717 1.112,1.487 1.613,2.01 1.776,2.166 0.373,0.354 0.604,0.48 0.689,0.518 0.322,-0.021 1.221,-0.181 2.881,-1.19 1.031,-0.645 1.934,-0.946 2.841,-0.946 1.397,0 2.701,0.571 3.668,1.604 0.928,0.992 1.419,2.215 1.419,3.538 0,2.508 -1.798,4.491 -5.326,5.886 -2.208,0.889 -4.026,1.322 -5.559,1.322 -2.533,0 -4.907,-0.962 -7.05,-2.855 -2.661,-2.343 -4.853,-5.42 -6.517,-9.147 -0.759,-1.701 -1.338,-3.396 -1.752,-5.078 -1.29,0.928 -2.781,1.42 -4.367,1.42 -1.917,0 -5.394,-0.846 -7.128,-6.47 -0.675,-2.105 -1.017,-4.229 -1.017,-6.311 0,-3.916 -0.048,-7.212 -0.143,-9.854 -3.169,-0.256 -6.762,-0.758 -10.736,-1.5 l -8.914,-1.683 -0.072,3.017 c 0,1.627 0.112,4.144 0.331,7.482 0.236,3.572 0.35,6.206 0.35,8.049 0,2.046 -0.736,3.878 -2.13,5.298 -1.414,1.439 -3.247,2.199 -5.302,2.199 -2.055,0 -3.889,-0.761 -5.302,-2.2 -1.393,-1.418 -2.13,-3.249 -2.13,-5.297 0,-1.609 -0.106,-4.108 -0.315,-7.428 -0.224,-3.547 -0.334,-6.156 -0.334,-7.974 0,-1.262 0.045,-3.136 0.133,-5.571 0.084,-2.336 0.127,-4.095 0.127,-5.227 0,-2.162 -0.186,-5.494 -0.553,-9.906 -0.391,-4.714 -0.582,-8.189 -0.582,-10.621 0,-2.01 0.727,-3.826 2.103,-5.252 1.416,-1.467 3.259,-2.244 5.329,-2.244 2.071,0 3.914,0.777 5.328,2.243 1.377,1.425 2.104,3.243 2.104,5.253 0,1.803 0.188,4.445 0.559,7.851 0.212,1.96 0.369,3.675 0.47,5.168 l 10.247,2.001 c 3.11,0.592 5.929,1.02 8.427,1.281 v -0.184 c 0,-1.766 0.12,-4.287 0.367,-7.705 0.23,-3.169 0.346,-5.563 0.346,-7.114 0,-2.04 0.751,-3.87 2.173,-5.292 1.422,-1.421 3.24,-2.173 5.259,-2.173 2.056,0 3.889,0.762 5.302,2.201 1.394,1.418 2.13,3.239 2.13,5.264 0,0.271 -0.003,0.565 -0.009,0.87 0.525,-1.036 1.135,-1.984 1.836,-2.844 3.162,-3.901 8.012,-5.879 14.412,-5.879 1.582,0 3.358,0.366 5.43,1.118 0.937,0.341 1.95,0.765 3.028,1.27 0.098,-0.09 0.197,-0.182 0.298,-0.274 1.707,-1.503 3.226,-2.503 5.091,-2.503 1.895,0 3.64,0.69 5.047,1.997 0.382,0.355 0.717,0.745 1.008,1.163 0.1,-0.117 0.197,-0.236 0.304,-0.348 1.406,-1.458 3.277,-2.229 5.412,-2.229 2.096,0 3.952,0.761 5.368,2.201 1.392,1.419 2.128,3.284 2.128,5.394 0,0.8 -0.071,1.894 -0.216,3.347 -0.15,1.506 -0.173,2.206 -0.173,2.489 0,0.84 0.056,1.725 0.165,2.636 0.135,1.145 0.23,2.117 0.285,2.953 0.959,3.26 2.245,5.964 3.814,8.029 0.41,0.534 1.031,1.267 1.722,1.823 0.039,-0.503 0.065,-1.124 0.065,-1.887 0,-0.36 -0.018,-1.149 -0.108,-2.854 -0.08,-1.531 -0.119,-2.612 -0.119,-3.307 0,-2.365 0.163,-4.928 0.489,-7.649 l 0.903,-7.056 c 0.495,-4.234 3.344,-6.865 7.435,-6.865 2.053,0 3.892,0.727 5.317,2.102 1.399,1.35 2.161,3.12 2.231,5.128 0.096,-0.11 0.18,-0.228 0.28,-0.337 3.295,-3.584 7.577,-5.401 12.73,-5.401 1.453,0 2.841,0.193 4.154,0.578 -0.042,-0.119 -0.083,-0.23 -0.124,-0.333 -0.936,-2.346 -2.239,-3.276 -4.666,-3.314 -0.197,-0.004 -0.393,-0.006 -0.587,-0.006 -1.639,0 -3.145,0.142 -4.48,0.419 -2.156,0.449 -3.672,0.658 -4.771,0.658 -4.271,0 -7.14,-2.895 -7.14,-7.205 0,-1.836 0.737,-6.254 7.558,-7.607 2.246,-0.45 4.888,-0.667 8.078,-0.667 5.865,0 10.541,1.318 13.902,3.924 2.879,2.239 4.958,5.604 6.184,10.013 0.851,3.092 1.336,6.866 1.48,11.537 l 0.14,2.046 c 0.512,-9.413 5.118,-10.887 7.932,-10.887 1.969,0 3.783,0.708 5.237,2.044 1.54,1.412 2.389,3.338 2.389,5.421 0,0.79 -0.119,1.832 -0.373,3.279 -0.219,1.242 -0.243,1.794 -0.243,1.974 0,1.068 0.114,2.819 0.337,5.205 0.169,1.788 0.28,3.276 0.335,4.497 0.298,0.365 0.557,0.703 0.777,1.014 l 1.765,1.975 c 0.117,-2.419 0.361,-5.406 0.737,-9.034 0.511,-4.938 0.771,-8.688 0.771,-11.147 0,-2.074 0.728,-3.925 2.102,-5.349 1.416,-1.468 3.282,-2.246 5.395,-2.246 2.112,0 3.976,0.776 5.397,2.247 1.374,1.426 2.099,3.276 2.099,5.348 0,2.418 -0.212,5.354 -0.642,8.946 l -0.961,8.552 c -0.078,1.243 -0.126,2.495 -0.144,3.744 0.466,0.332 1.126,0.769 2.048,1.326 0.298,0.186 0.567,0.348 0.808,0.489 0.266,-0.86 0.467,-1.74 0.599,-2.626 l 1.085,-9.89 c 0.404,-4.47 0.798,-7.859 1.206,-10.352 0.641,-3.981 3.467,-6.454 7.377,-6.454 2.026,0 3.864,0.716 5.315,2.07 1.35,1.26 2.118,2.893 2.232,4.671 3.164,-3.845 7.987,-5.8 14.341,-5.8 1.582,0 3.357,0.366 5.429,1.118 0.952,0.346 1.956,0.765 3.03,1.269" /></g><g
           transform="translate(236.3789,62.3359)"
           id="g72"><path
             id="path74"
             style="fill:#231f20;fill-opacity:1;fill-rule:nonzero;stroke:none"
             d="m 0,0 c -0.817,-0.427 -1.922,-0.644 -3.284,-0.644 -1.528,0 -1.897,0.523 -2.116,0.834 -0.407,0.575 -1.089,2.052 -1.089,5.483 0,2.494 0.836,4.647 2.557,6.583 1.234,1.387 2.538,2.206 4.029,2.513 C -0.021,13.61 -0.081,12.515 -0.081,11.51 -0.081,8.873 0.18,5.249 0.713,0.478 0.299,0.169 0.079,0.042 0,0 m 4.416,14.542 c 0.119,1.092 0.298,2.254 0.535,3.486 -0.8,0.411 -1.485,0.713 -2.058,0.908 -0.574,0.194 -1.033,0.292 -1.378,0.292 -3.351,0 -6.243,-1.368 -8.675,-4.102 -2.432,-2.735 -3.648,-5.886 -3.648,-9.453 0,-3.545 0.627,-6.204 1.881,-7.977 1.254,-1.772 3.135,-2.659 5.642,-2.659 2.075,0 3.838,0.379 5.286,1.136 0.778,0.41 1.87,1.231 3.274,2.464 -0.691,5.729 -1.037,10.02 -1.037,12.873 0,0.93 0.06,1.94 0.178,3.032" /></g><g
           transform="translate(55.2671,103.6137)"
           id="g76"><path
             id="path78"
             style="fill:#fff200;fill-opacity:1;fill-rule:nonzero;stroke:none"
             d="m 0,0 c -1.297,0 -2.302,-1.157 -3.016,-3.47 -0.54,-1.686 -0.811,-3.35 -0.811,-4.993 0,-6.226 -0.118,-10.885 -0.356,-13.976 -3.805,-0.043 -8.485,-0.584 -14.041,-1.622 l -13.911,-2.626 -0.195,8.204 c 0,1.729 0.114,4.318 0.341,7.766 0.227,3.448 0.341,6.037 0.341,7.766 0,0.908 -0.298,1.665 -0.892,2.27 -0.595,0.605 -1.335,0.908 -2.221,0.908 -0.886,0 -1.627,-0.303 -2.221,-0.908 -0.595,-0.605 -0.893,-1.362 -0.893,-2.27 0,-1.708 -0.107,-4.275 -0.324,-7.701 -0.216,-3.427 -0.324,-5.994 -0.324,-7.702 0,-1.21 0.044,-3.015 0.13,-5.415 0.086,-2.399 0.129,-4.193 0.129,-5.382 0,-2.292 -0.189,-5.713 -0.567,-10.264 -0.378,-4.55 -0.567,-7.971 -0.567,-10.262 0,-0.887 0.297,-1.638 0.891,-2.254 0.595,-0.616 1.335,-0.924 2.221,-0.924 0.887,0 1.627,0.308 2.222,0.924 0.594,0.616 0.892,1.367 0.892,2.254 0,1.967 0.194,4.739 0.583,8.317 0.389,3.577 0.584,6.339 0.584,8.285 l 13.619,2.659 c 5.448,1.038 10.02,1.589 13.717,1.654 -0.109,-1.622 -0.163,-3.221 -0.163,-4.8 0,-1.643 0.119,-4.106 0.357,-7.393 0.238,-3.286 0.357,-5.761 0.357,-7.425 0,-0.887 0.303,-1.632 0.908,-2.238 0.605,-0.605 1.34,-0.908 2.205,-0.908 0.886,0 1.627,0.303 2.221,0.908 0.595,0.606 0.891,1.351 0.891,2.238 0,1.664 -0.118,4.139 -0.356,7.425 -0.238,3.287 -0.357,5.75 -0.357,7.393 0,2.162 0.189,5.383 0.568,9.664 0.378,4.28 0.567,7.501 0.567,9.663 0,0.648 -0.022,1.61 -0.065,2.886 -0.043,1.275 -0.065,2.237 -0.065,2.886 0,1.751 0.163,3.08 0.487,3.988 0.195,0.562 0.292,1.005 0.292,1.329 0,0.909 -0.324,1.66 -0.973,2.254 C 1.556,-0.297 0.821,0 0,0" /></g><g
           transform="translate(82.7969,58.5087)"
           id="g80"><path
             id="path82"
             style="fill:#fff200;fill-opacity:1;fill-rule:nonzero;stroke:none"
             d="m 0,0 c -1.448,-0.757 -3.21,-1.136 -5.285,-1.136 -2.508,0 -4.389,0.887 -5.643,2.659 -1.253,1.773 -1.88,4.432 -1.88,7.977 0,3.567 1.216,6.718 3.648,9.453 2.431,2.734 5.323,4.102 8.674,4.102 0.346,0 0.805,-0.097 1.378,-0.292 C 1.465,22.568 2.151,22.266 2.951,21.855 2.713,20.623 2.535,19.461 2.416,18.369 2.297,17.277 2.238,16.267 2.238,15.337 2.238,12.484 2.583,8.193 3.275,2.464 1.87,1.231 0.778,0.41 0,0 M 11.058,-1.946 C 9.912,0.907 9.231,2.81 9.015,3.761 8.625,5.317 8.442,7.437 8.463,10.117 c 0.022,2.94 0.092,5.35 0.211,7.231 0.119,1.881 0.287,3.232 0.503,4.053 0.432,0.454 0.648,0.973 0.648,1.557 0,1.708 -1.47,3.167 -4.409,4.377 -2.335,0.973 -4.443,1.459 -6.324,1.459 -4.993,0 -9.29,-1.859 -12.889,-5.577 -3.599,-3.718 -5.399,-8.193 -5.399,-13.425 0,-5.534 1.092,-9.641 3.275,-12.321 2.313,-2.854 5.999,-4.281 11.057,-4.281 1.059,0 2.378,0.287 3.956,0.86 1.578,0.572 3.405,1.421 5.48,2.545 0.476,-0.692 1.2,-1.481 2.173,-2.367 1.081,-0.952 1.827,-1.427 2.237,-1.427 0.8,0 1.503,0.281 2.108,0.843 0.605,0.562 0.908,1.276 0.908,2.14 l -0.195,0.551 c -0.345,0.757 -0.594,1.33 -0.745,1.719" /></g><g
           transform="translate(127.1567,68.2363)"
           id="g84"><path
             id="path86"
             style="fill:#fff200;fill-opacity:1;fill-rule:nonzero;stroke:none"
             d="m 0,0 0.032,3.016 v 3.275 c -0.086,3.978 -0.594,6.982 -1.524,9.014 -1.362,3.049 -3.772,4.572 -7.231,4.572 -3.826,0 -7.555,-2.42 -11.187,-7.263 l -0.097,3.794 c -0.195,2.81 -1.286,4.216 -3.275,4.216 -0.908,0 -1.67,-0.298 -2.286,-0.893 -0.617,-0.594 -0.925,-1.356 -0.925,-2.286 0,-0.691 0.038,-1.718 0.114,-3.08 0.076,-1.362 0.113,-2.389 0.113,-3.08 0,-2.227 -0.156,-5.313 -0.47,-9.258 -0.313,-3.945 -0.47,-7.032 -0.47,-9.258 0,-0.649 0.07,-1.622 0.211,-2.918 0.14,-1.297 0.21,-2.27 0.21,-2.918 0,-0.974 0.292,-1.763 0.876,-2.368 0.584,-0.605 1.351,-0.908 2.303,-0.908 0.929,0 1.691,0.303 2.285,0.908 0.595,0.605 0.892,1.394 0.892,2.368 0,0.648 -0.065,1.621 -0.195,2.918 -0.129,1.296 -0.194,2.269 -0.194,2.918 0,1.016 0.065,2.064 0.194,3.145 0.152,1.275 0.249,2.335 0.292,3.178 1.124,3.999 2.681,7.307 4.67,9.923 2.205,2.875 4.518,4.312 6.939,4.312 1.729,0 2.594,-2.334 2.594,-7.004 0,-0.605 -0.038,-1.632 -0.113,-3.08 -0.076,-1.449 -0.114,-2.475 -0.114,-3.081 0,-2.205 0.151,-4.572 0.454,-7.101 l 0.908,-7.102 c 0.238,-2.031 1.286,-3.048 3.145,-3.048 0.93,0 1.703,0.297 2.319,0.892 0.616,0.594 0.924,1.367 0.924,2.318 0,1.774 -0.232,4.081 -0.697,6.924 C 0.232,-4.112 0,-1.794 0,0" /></g><g
           transform="translate(155.5947,68.4955)"
           id="g88"><path
             id="path90"
             style="fill:#fff200;fill-opacity:1;fill-rule:nonzero;stroke:none"
             d="m 0,0 c -0.26,-2.227 -1.318,-4.475 -3.178,-6.745 -2.053,-2.463 -4.172,-3.696 -6.356,-3.696 -2.378,0 -4.161,0.789 -5.35,2.367 -1.189,1.578 -1.783,3.935 -1.783,7.069 0,3.934 1.005,7.177 3.015,9.728 2.249,2.832 5.426,4.248 9.534,4.248 0.994,0 1.956,-0.162 2.886,-0.487 C -0.303,12.16 0.595,11.663 1.459,10.993 0.94,5.999 0.454,2.335 0,0 m 4.378,15.046 c -0.714,1.038 -1.751,1.816 -3.113,2.335 -1.363,0.519 -3.048,0.778 -5.059,0.778 -5.966,0 -10.679,-1.838 -14.138,-5.513 -3.351,-3.566 -5.026,-8.268 -5.026,-14.105 0,-4.258 1.227,-7.723 3.68,-10.393 2.454,-2.669 5.637,-4.004 9.55,-4.004 2.075,0 3.918,0.54 5.529,1.621 1.61,1.081 2.999,2.702 4.167,4.863 -0.066,-5.468 -0.616,-9.522 -1.655,-12.159 -1.578,-3.956 -4.442,-5.967 -8.592,-6.031 -2.205,-0.044 -4.216,0.124 -6.032,0.502 -1.815,0.379 -3.112,0.567 -3.891,0.567 -1.881,0 -2.821,-0.962 -2.821,-2.885 0,-1.708 1.362,-2.832 4.086,-3.372 1.945,-0.39 4.356,-0.584 7.231,-0.584 4.907,0 8.658,1.005 11.252,3.015 2.141,1.665 3.696,4.248 4.67,7.75 0.756,2.746 1.199,6.28 1.329,10.604 L 6.291,-1.07 c 0.086,1.081 0.378,3.113 0.875,6.096 0.454,2.573 0.682,4.626 0.682,6.162 0,2.507 -1.158,3.793 -3.47,3.858" /></g><g
           transform="translate(211.2061,81.5634)"
           id="g92"><path
             id="path94"
             style="fill:#fff200;fill-opacity:1;fill-rule:nonzero;stroke:none"
             d="m 0,0 c -1.318,3.892 -3.783,5.837 -7.394,5.837 -2.118,0 -3.999,-0.395 -5.641,-1.184 -1.644,-0.789 -3.059,-1.972 -4.248,-3.55 -1.276,3.372 -3.611,5.058 -7.004,5.058 -1.535,0 -3.395,-0.935 -5.577,-2.805 -2.184,-1.87 -3.838,-3.961 -4.962,-6.274 l -0.065,3.405 c 0,0.453 0.054,1.113 0.162,1.977 0.108,0.865 0.163,1.503 0.163,1.914 0,0.865 -0.352,1.664 -1.054,2.399 -0.703,0.735 -1.476,1.103 -2.318,1.103 -2.206,0 -3.308,-2.454 -3.308,-7.361 0,-1.167 0.102,-2.897 0.308,-5.188 0.205,-2.291 0.308,-4.01 0.308,-5.156 0,-1.297 -0.119,-3.232 -0.357,-5.805 -0.238,-2.572 -0.357,-4.507 -0.357,-5.804 0,-5.555 1.222,-8.334 3.664,-8.334 0.887,0 1.659,0.303 2.319,0.909 0.659,0.605 0.989,1.351 0.989,2.237 0,0.518 -0.103,1.362 -0.308,2.529 -0.206,1.167 -0.308,2.075 -0.308,2.724 0,1.211 0.119,3.081 0.356,5.61 0.238,2.529 0.358,4.442 0.358,5.739 0.755,0.844 1.307,1.524 1.653,2.043 l 3.826,4.281 c 1.557,1.556 3.092,2.68 4.605,3.372 0.648,-1.276 0.972,-3.059 0.972,-5.35 0,-2.616 0.266,-6.48 0.795,-11.593 0.529,-5.113 0.795,-8.977 0.795,-11.592 0,-0.952 0.297,-1.735 0.892,-2.351 0.593,-0.616 1.356,-0.925 2.286,-0.925 0.929,0 1.691,0.309 2.286,0.925 0.594,0.616 0.892,1.399 0.892,2.351 0,2.226 -0.207,5.047 -0.617,8.463 l -0.972,8.658 c -0.13,2.032 -0.185,4.064 -0.162,6.096 0.648,0.757 2.009,1.762 4.085,3.016 2.183,1.361 3.675,2.043 4.475,2.043 0.864,0 1.664,-0.973 2.4,-2.919 0.518,-1.427 0.885,-2.886 1.102,-4.377 l 1.103,-10.053 c 0.388,-4.323 0.778,-7.674 1.167,-10.052 0.302,-1.88 1.34,-2.821 3.113,-2.821 0.93,0 1.719,0.303 2.367,0.908 0.649,0.605 0.94,1.34 0.875,2.205 C 2.713,-19.023 1.935,-12.83 1.33,-9.112 0.703,-3.815 0.26,-0.778 0,0" /></g><g
           transform="translate(238.3799,58.5087)"
           id="g96"><path
             id="path98"
             style="fill:#fff200;fill-opacity:1;fill-rule:nonzero;stroke:none"
             d="m 0,0 c -1.448,-0.757 -3.211,-1.136 -5.286,-1.136 -2.507,0 -4.388,0.887 -5.642,2.659 -1.254,1.773 -1.881,4.432 -1.881,7.977 0,3.567 1.216,6.718 3.648,9.453 2.432,2.734 5.324,4.102 8.675,4.102 0.345,0 0.804,-0.097 1.378,-0.292 C 1.465,22.568 2.15,22.266 2.95,21.855 2.713,20.623 2.534,19.461 2.415,18.369 2.297,17.277 2.237,16.267 2.237,15.337 2.237,12.484 2.583,8.193 3.274,2.464 1.87,1.231 0.778,0.41 0,0 m 6.744,-5.772 c 1.081,-0.952 1.827,-1.427 2.237,-1.427 0.801,0 1.503,0.281 2.109,0.843 0.605,0.562 0.908,1.276 0.908,2.14 l -0.195,0.551 c -0.346,0.757 -0.594,1.33 -0.745,1.719 C 9.911,0.907 9.23,2.81 9.015,3.761 8.625,5.317 8.441,7.437 8.463,10.117 c 0.021,2.94 0.092,5.35 0.211,7.231 0.119,1.881 0.286,3.232 0.503,4.053 0.431,0.454 0.648,0.973 0.648,1.557 0,1.708 -1.47,3.167 -4.41,4.377 -2.335,0.973 -4.442,1.459 -6.323,1.459 -4.994,0 -9.29,-1.859 -12.89,-5.577 -3.599,-3.718 -5.399,-8.193 -5.399,-13.425 0,-5.534 1.092,-9.641 3.275,-12.321 2.314,-2.854 5.999,-4.281 11.058,-4.281 1.059,0 2.378,0.287 3.956,0.86 1.578,0.572 3.404,1.421 5.48,2.545 0.476,-0.692 1.199,-1.481 2.172,-2.367" /></g><g
           transform="translate(255.9551,55.1689)"
           id="g100"><path
             id="path102"
             style="fill:#fff200;fill-opacity:1;fill-rule:nonzero;stroke:none"
             d="m 0,0 c 0,-0.974 0.292,-1.763 0.875,-2.367 0.584,-0.606 1.352,-0.908 2.303,-0.908 0.929,0 1.691,0.302 2.286,0.908 0.594,0.604 0.891,1.393 0.891,2.367 0,0.648 -0.065,1.621 -0.194,2.918 -0.13,1.297 -0.195,2.269 -0.195,2.918 0,1.017 0.065,2.064 0.195,3.145 0.151,1.276 0.248,2.335 0.292,3.179 1.124,3.999 2.68,7.306 4.669,9.922 2.205,2.875 4.519,4.313 6.94,4.313 1.729,0 2.593,-2.335 2.593,-7.004 0,-0.606 -0.038,-1.633 -0.113,-3.081 -0.076,-1.448 -0.113,-2.475 -0.113,-3.081 0,-2.205 0.151,-4.572 0.454,-7.101 l 0.907,-7.102 c 0.238,-2.031 1.286,-3.047 3.143,-3.047 0.929,0 1.708,0.296 2.324,0.891 0.616,0.595 0.919,1.367 0.919,2.318 0,1.774 -0.228,4.082 -0.692,6.924 -0.464,2.843 -0.703,5.161 -0.703,6.955 l 0.032,3.016 v 3.275 c -0.085,3.978 -0.593,6.983 -1.523,9.015 -1.362,3.048 -3.769,4.572 -7.228,4.572 -3.827,0 -7.556,-2.421 -11.188,-7.264 L 6.777,29.475 C 6.582,32.286 5.49,33.691 3.502,33.691 2.594,33.691 1.832,33.394 1.216,32.799 0.6,32.205 0.292,31.442 0.292,30.513 c 0,-0.692 0.037,-1.719 0.113,-3.08 0.075,-1.363 0.114,-2.39 0.114,-3.081 0,-2.227 -0.158,-5.312 -0.47,-9.258 -0.314,-3.945 -0.471,-7.031 -0.471,-9.258 0,-0.649 0.07,-1.621 0.211,-2.918 C -0.07,1.621 0,0.648 0,0" /></g><g
           transform="translate(109.3364,35.788)"
           id="g104"><path
             id="path106"
             style="fill:#231f20;fill-opacity:1;fill-rule:nonzero;stroke:none"
             d="M 0,0 0.53,0.707 0.206,8.129 -2.266,7.227 -2.102,0.979 Z" /></g><g
           transform="translate(109.542,43.9169)"
           id="g108"><path
             id="path110"
             style="fill:#ffffff;fill-opacity:1;fill-rule:nonzero;stroke:none"
             d="m 0,0 0.325,-7.422 -0.531,-0.707 -2.102,0.979 -0.163,6.248 z m -0.683,-16.41 -1.625,-0.463 -0.021,1.65 c -0.217,0.347 -0.267,0.683 -0.267,0.903 0,0.341 0.102,0.642 0.243,0.907 l -0.065,5.04 2.444,-1.25 0.089,-1.767 c 0.671,0.03 1.243,0.047 1.677,0.047 0.737,0 1.061,-0.047 1.239,-0.083 0.171,-0.033 0.323,-0.104 0.465,-0.189 l 0.034,0.281 -2.063,2.282 1.466,0.815 0.241,2.263 c -0.144,0.298 -0.19,0.643 -0.11,0.983 0.049,0.207 0.151,0.386 0.273,0.548 L 3.53,-2.642 0.488,1.404 -2.389,0.317 -2.445,0.128 -6.383,-1.529 c 0.599,-0.272 0.932,-0.724 1.006,-1.358 l 0.134,-13.552 c 0,-0.779 -0.497,-1.322 -1.492,-1.63 l 6.653,0.109 H 0 l 1.483,0.797 c -0.673,0.131 -1.387,0.373 -2.166,0.753" /></g><g
           transform="translate(119.1563,33.2499)"
           id="g112"><path
             id="path114"
             style="fill: black;fill-opacity:1;fill-rule:nonzero;stroke:none"
             d="m 0,0 c -2.082,-3.74 -3.295,-5.609 -3.638,-5.609 -0.02,0 -0.038,0.008 -0.055,0.027 -2.264,0.199 -3.558,0.362 -3.884,0.488 -0.815,0.11 -1.775,0.48 -2.88,1.115 -0.179,0.108 -0.269,0.217 -0.269,0.326 0,0.126 0.108,0.315 0.325,0.57 0.453,0.524 0.696,0.814 0.734,0.868 0.76,0.036 1.375,0.056 1.845,0.056 0.453,0 0.771,-0.02 0.95,-0.055 -0.017,-0.125 -0.079,-0.205 -0.19,-0.24 -0.216,-0.108 -0.787,-0.268 -1.71,-0.483 l -0.489,-0.615 c 0.635,-0.321 2.263,-0.473 4.889,-0.455 l 1.357,2.384 c 0.128,0.324 0.19,0.658 0.19,1.002 0,0.866 -0.524,2.688 -1.573,5.469 -0.146,0.163 -0.38,0.325 -0.707,0.489 h 3.993 C -1.62,5.228 -1.883,4.991 -1.901,4.63 L -1.574,2.729 C -1.43,1.878 -1.275,1.443 -1.112,1.426 -1.003,1.443 -0.298,2.82 1.006,5.558 0.988,5.755 0.941,5.871 0.871,5.908 L 0.19,6.232 3.395,6.178 C 2.491,4.498 1.359,2.438 0,0 m -9.614,-7.293 h -0.082 l -6.653,-0.109 c 0.995,0.308 1.492,0.851 1.492,1.63 L -14.992,7.78 c -0.073,0.634 -0.406,1.086 -1.006,1.358 l 3.939,1.657 0.056,0.189 2.877,1.087 3.042,-4.046 -0.193,-1.801 C -6.399,6.062 -6.501,5.883 -6.55,5.676 -6.63,5.336 -6.584,4.991 -6.44,4.693 L -6.682,2.43 -8.147,1.615 -6.084,-0.667 -6.118,-0.948 c -0.142,0.085 -0.294,0.156 -0.465,0.189 -0.179,0.036 -0.502,0.083 -1.239,0.083 -0.434,0 -1.006,-0.017 -1.677,-0.047 l -0.089,1.767 -2.444,1.25 0.065,-5.04 c -0.141,-0.265 -0.243,-0.566 -0.243,-0.907 0,-0.22 0.049,-0.556 0.267,-0.903 l 0.021,-1.65 1.625,0.463 c 0.779,-0.38 1.493,-0.622 2.166,-0.753 z m 4.63,7.621 -0.819,0.906 c 0.334,0.245 0.553,0.621 0.597,1.038 l 0.037,0.346 c 0.757,-2.191 0.861,-2.987 0.861,-3.239 0,-0.132 -0.019,-0.256 -0.058,-0.377 l -0.333,-0.585 0.088,0.743 c 0.05,0.425 -0.086,0.851 -0.373,1.168 M 3.42,7.661 c 0,0 -3.222,0.055 -3.23,0.055 -0.6,0 -1.131,-0.36 -1.363,-0.896 h -3.548 l 0.112,1.048 c 0.04,0.374 -0.064,0.748 -0.29,1.049 l -3.041,4.046 c -0.287,0.381 -0.729,0.592 -1.186,0.592 -0.176,0 -0.353,-0.032 -0.524,-0.096 l -2.878,-1.087 c -0.234,-0.088 -0.438,-0.232 -0.597,-0.416 l -3.448,-1.45 c -0.543,-0.228 -0.9,-0.757 -0.908,-1.346 -0.009,-0.59 0.333,-1.128 0.869,-1.372 0.102,-0.047 0.126,-0.064 0.137,-0.117 l 0.151,-13.432 c -0.024,-0.029 -0.156,-0.129 -0.465,-0.224 -0.705,-0.219 -1.142,-0.923 -1.025,-1.652 0.115,-0.72 0.737,-1.249 1.465,-1.249 0.008,0 6.735,0.11 6.735,0.11 0.245,0 0.486,0.06 0.702,0.176 l 2.933,1.576 c 0.078,0.042 0.146,0.096 0.215,0.151 0.477,-0.052 1.049,-0.107 1.757,-0.171 0.123,-0.032 0.248,-0.05 0.369,-0.05 1.031,0 1.559,0.309 4.934,6.372 C 2.653,1.711 3.798,3.796 4.702,5.474 4.947,5.931 4.937,6.48 4.675,6.927 4.414,7.374 3.938,7.651 3.42,7.661" /></g><g
           transform="translate(120.0273,39.1581)"
           id="g116"><path
             id="path118"
             style="fill:#ffffff;fill-opacity:1;fill-rule:nonzero;stroke:none"
             d="m 0,0 c 0.07,-0.037 0.117,-0.153 0.135,-0.351 -1.304,-2.737 -2.01,-4.114 -2.118,-4.131 -0.163,0.017 -0.318,0.452 -0.462,1.302 l -0.327,1.902 c 0.018,0.361 0.281,0.597 0.789,0.707 h -3.994 c 0.328,-0.164 0.562,-0.326 0.707,-0.49 1.05,-2.78 1.574,-4.602 1.574,-5.468 0,-0.344 -0.062,-0.678 -0.19,-1.002 l -1.357,-2.384 c -2.626,-0.019 -4.255,0.134 -4.889,0.455 l 0.488,0.615 c 0.924,0.215 1.495,0.375 1.711,0.483 0.111,0.035 0.173,0.115 0.19,0.24 -0.179,0.035 -0.497,0.055 -0.95,0.055 -0.471,0 -1.085,-0.02 -1.846,-0.056 -0.037,-0.054 -0.28,-0.344 -0.733,-0.868 -0.217,-0.255 -0.325,-0.445 -0.325,-0.571 0,-0.108 0.09,-0.217 0.269,-0.326 1.105,-0.634 2.065,-1.005 2.88,-1.114 0.325,-0.126 1.62,-0.289 3.884,-0.488 0.017,-0.019 0.035,-0.028 0.055,-0.028 0.342,0 1.556,1.87 3.638,5.61 1.359,2.438 2.491,4.498 3.395,6.178 l -3.205,0.054 z" /></g><g
           transform="translate(169.9053,35.0947)"
           id="g120"><path
             id="path122"
             style="fill: black;fill-opacity:1;fill-rule:nonzero;stroke:none"
             d="M 0,0 -1.784,-6.054 C 0.03,-7.709 1.528,-8.66 2.708,-8.905 L 2.341,-7.77 Z" /></g><g
           transform="translate(168.1211,29.041)"
           id="g124"><path
             id="path126"
             style="fill:#ffffff;fill-opacity:1;fill-rule:nonzero;stroke:none"
             d="m 0,0 1.784,6.054 2.341,-7.77 0.367,-1.136 C 3.313,-2.606 1.814,-1.655 0,0 m 9.809,-8.868 c -0.023,0.021 -0.152,0.38 -0.385,1.074 l -1.342,4.149 c 0.497,0.517 0.993,1.238 1.49,2.162 C 8.725,-1.954 8.112,-2.278 7.733,-2.458 L 4.01,9.038 c -0.135,0.427 -0.203,0.775 -0.203,1.045 0,0.787 0.214,1.28 0.639,1.483 h -5.022 c 0.382,-0.203 0.571,-0.731 0.571,-1.585 0,-0.292 -0.088,-0.719 -0.269,-1.281 L -2.667,1.18 C -4.062,0.978 -5.277,0.168 -6.309,-1.248 l 1.518,-1.651 -0.81,1.481 c 0.722,0.763 1.567,1.179 2.538,1.246 l -3.18,-9.877 c -0.203,-0.63 -0.338,-1 -0.403,-1.112 -0.135,-0.226 -0.472,-0.427 -1.013,-0.609 l 1.684,-0.067 h 2.226 l 1.384,0.067 c -0.651,0.271 -0.978,0.597 -0.978,0.98 0,0.247 0.067,0.585 0.196,1.013 l 2.598,8.058 0.152,0.469 c 2.28,-2.15 4.122,-3.37 5.521,-3.661 l 0.861,-2.872 c 0.143,-0.526 0.214,-0.857 0.214,-0.993 0,-0.572 -0.235,-0.914 -0.708,-1.029 l -0.842,-0.581 h 6.779 L 10.45,-9.8 c -0.293,0.276 -0.508,0.585 -0.641,0.932" /></g><g
           transform="translate(188.3994,24.8095)"
           id="g128"><path
             id="path130"
             style="fill:#ffffff;fill-opacity:1;fill-rule:nonzero;stroke:none"
             d="m 0,0 c -0.131,0.646 0.162,1.275 0.693,1.631 v 7.595 c -0.629,0.15 -1.111,0.659 -1.211,1.302 -0.075,0.484 0.081,0.957 0.394,1.308 l -2.453,1.669 c -0.615,-0.202 -0.999,-0.371 -1.158,-0.506 -0.366,-0.315 -0.992,-1.135 -1.877,-2.462 l -0.067,7.925 c -0.091,0.495 0.179,1.101 0.81,1.82 L -9.12,19.946 c 0.45,-0.541 0.676,-1.091 0.676,-1.653 L -8.747,-0.153 c -0.115,-0.472 -0.351,-0.866 -0.71,-1.18 l 4.316,-0.101 c -0.471,0.359 -0.65,0.9 -0.538,1.619 v 9.038 c 1.513,1.685 2.371,2.529 2.58,2.529 0.113,0 0.205,-0.057 0.275,-0.169 l 0.549,-1.416 c 0.068,-1.642 0.09,-3.789 0.068,-6.441 -0.022,-2.721 -0.077,-4.148 -0.167,-4.284 -0.069,-1.438 -0.879,-2.754 -2.429,-3.945 1.147,0.293 1.776,0.461 1.888,0.507 1.216,0.494 2.418,1.325 3.608,2.494 v 0.503 C 0.351,-0.771 0.088,-0.428 0,0" /></g><g
           transform="translate(203.7773,25.0331)"
           id="g132"><path
             id="path134"
             style="fill:#ffffff;fill-opacity:1;fill-rule:nonzero;stroke:none"
             d="m 0,0 c -0.201,0.948 -0.304,2.048 -0.304,3.267 0,1.666 0.167,3.429 0.497,5.243 0.043,0.231 0.149,0.438 0.283,0.627 -0.005,1.085 -0.013,1.64 -0.021,1.649 l -1.924,2.765 c -0.044,0.067 -0.124,0.101 -0.236,0.101 -0.179,0 -0.741,-0.359 -1.685,-1.079 -0.157,-0.113 -0.387,-0.433 -0.692,-0.962 -0.302,-0.527 -0.567,-0.882 -0.793,-1.061 -0.021,0.359 -0.044,0.55 -0.065,0.573 l -1.924,2.765 c -0.044,0.067 -0.124,0.101 -0.237,0.101 -0.177,0 -0.741,-0.359 -1.684,-1.079 -0.653,-0.899 -1.192,-1.72 -1.619,-2.462 v 3.035 c -0.429,-0.606 -1.024,-1.169 -1.787,-1.686 -0.384,-0.269 -1.092,-0.686 -2.122,-1.247 0.112,-0.023 0.274,0 0.488,0.067 0.214,0.068 0.365,0.102 0.455,0.102 0.381,0 0.685,-0.271 0.91,-0.81 l -0.17,-8.532 c 0,-0.359 -0.044,-0.585 -0.135,-0.674 -0.112,-0.157 -0.461,-0.359 -1.044,-0.607 0.204,0 0.509,0.011 0.926,0.034 0.415,0.021 0.725,0.034 0.928,0.034 0.312,0 0.793,-0.013 1.433,-0.034 0.641,-0.023 1.119,-0.034 1.432,-0.034 -0.65,0.157 -0.999,0.594 -1.046,1.315 -0.177,2.855 -0.235,5.485 -0.167,7.892 0.472,0.809 0.865,1.517 1.18,2.124 0.182,0.045 0.349,0.067 0.505,0.067 0.359,0 0.62,-0.158 0.776,-0.473 0.201,-3.866 0.314,-7.575 0.338,-11.127 -0.071,-0.383 -0.351,-0.799 -0.843,-1.248 v -0.135 l 3.162,1.822 c 0.231,0.067 0.346,0.213 0.346,0.438 v 0.302 0.743 0.472 3.339 3.708 c 0.508,0.72 0.886,1.304 1.131,1.754 0.175,0.046 0.343,0.067 0.496,0.067 0.358,0 0.609,-0.156 0.766,-0.471 0.181,-3.868 0.28,-7.577 0.304,-11.128 -0.068,-0.384 -0.337,-0.799 -0.809,-1.248 v -0.134 l 2.98,1.749 C 0.022,-0.05 0.006,-0.027 0,0" /></g><g
           transform="translate(211.2432,30.9628)"
           id="g136"><path
             id="path138"
             style="fill: black;fill-opacity:1;fill-rule:nonzero;stroke:none"
             d="m 0,0 -1.718,3.878 c -0.159,0.203 -0.261,0.305 -0.304,0.305 -0.09,0 -0.181,-0.08 -0.269,-0.237 L -2.697,0.102 C -1.437,0.169 -0.537,0.135 0,0" /></g><g
           transform="translate(208.9521,34.9091)"
           id="g140"><path
             id="path142"
             style="fill:#ffffff;fill-opacity:1;fill-rule:nonzero;stroke:none"
             d="m 0,0 c 0.088,0.156 0.179,0.236 0.269,0.236 0.043,0 0.145,-0.101 0.304,-0.304 l 1.718,-3.878 c -0.537,0.134 -1.437,0.169 -2.697,0.101 z m 1.921,-9.376 c -0.156,-0.877 -0.461,-1.606 -0.911,-2.191 -0.584,0.314 -0.966,0.663 -1.145,1.046 l -0.235,5.529 c 0.156,0.18 0.57,0.27 1.245,0.27 1.126,0 2.125,-0.258 3.003,-0.775 L 4.389,-4.434 4.232,-2.069 3.776,-0.506 1.046,1.28 C 0.864,1.393 0.64,1.403 0.37,1.314 l -3.775,-2.967 c -0.317,-1.732 -0.473,-3.384 -0.473,-4.956 0,-1.102 0.088,-2.08 0.27,-2.934 l 3.405,-2.968 1.721,0.032 2.055,2.936 -1.482,1.888 c -0.09,-1.058 -0.148,-1.63 -0.17,-1.721" /></g><g
           transform="translate(217.9834,34.9765)"
           id="g144"><path
             id="path146"
             style="fill: black;fill-opacity:1;fill-rule:nonzero;stroke:none"
             d="m 0,0 -0.264,-5.43 c -0.09,-1.911 0.132,-3.394 0.667,-4.451 l 2.268,1.078 v 7.588 L 0.988,0.877 Z" /></g><g
           transform="translate(220.6543,23.039)"
           id="g148"><path
             id="path150"
             style="fill: black;fill-opacity:1;fill-rule:nonzero;stroke:none"
             d="M 0,0 V 1.483 L -2.547,0.134 -5.363,2.191 -6.038,12.409 -1.924,14.735 0,12.038 v 6.912 c 0.087,0.495 -0.135,1.103 -0.676,1.822 H 3.235 C 2.785,20.187 2.563,19.637 2.563,19.119 L 2.864,1.349 C 2.978,0.877 3.213,0.482 3.572,0.169 Z m -7.824,4.772 c 0.156,0 0.313,0.024 0.467,0.071 0.073,0.021 0.14,0.055 0.209,0.088 l 0.091,-1.377 -0.966,1.231 c 0.065,-0.009 0.132,-0.013 0.199,-0.013 m -2.361,-5.38 -1.72,-0.033 -3.406,2.968 c -0.181,0.854 -0.269,1.832 -0.269,2.934 0,1.572 0.156,3.224 0.473,4.956 l 3.775,2.968 c 0.269,0.088 0.494,0.078 0.676,-0.035 l 2.73,-1.786 0.456,-1.563 0.157,-2.364 -0.511,-1.064 c -0.878,0.517 -1.877,0.775 -3.003,0.775 -0.675,0 -1.089,-0.09 -1.245,-0.27 l 0.235,-5.529 c 0.179,-0.383 0.561,-0.732 1.145,-1.046 0.45,0.585 0.754,1.314 0.911,2.191 0.022,0.091 0.08,0.663 0.17,1.721 l 1.482,-1.888 z m -9.643,0.777 v 0.134 c 0.473,0.449 0.741,0.864 0.809,1.248 -0.024,3.552 -0.123,7.261 -0.304,11.128 -0.156,0.315 -0.408,0.471 -0.766,0.471 -0.153,0 -0.321,-0.021 -0.496,-0.067 -0.245,-0.45 -0.623,-1.034 -1.131,-1.754 V 7.621 4.282 3.811 3.067 2.765 c 0,-0.225 -0.115,-0.37 -0.346,-0.438 l -3.162,-1.822 v 0.136 c 0.492,0.448 0.772,0.864 0.843,1.247 -0.024,3.552 -0.137,7.261 -0.338,11.128 -0.156,0.314 -0.417,0.472 -0.776,0.472 -0.156,0 -0.323,-0.022 -0.505,-0.067 -0.315,-0.607 -0.708,-1.315 -1.18,-2.124 -0.068,-2.407 -0.01,-5.037 0.167,-7.892 0.047,-0.72 0.396,-1.158 1.046,-1.315 -0.313,0 -0.791,0.012 -1.432,0.034 -0.64,0.022 -1.121,0.034 -1.433,0.034 -0.203,0 -0.513,-0.012 -0.928,-0.034 -0.417,-0.022 -0.722,-0.034 -0.926,-0.034 0.583,0.248 0.932,0.45 1.044,0.607 0.091,0.089 0.135,0.315 0.135,0.674 l 0.17,8.532 c -0.225,0.539 -0.529,0.81 -0.91,0.81 -0.09,0 -0.241,-0.034 -0.455,-0.102 -0.214,-0.067 -0.376,-0.09 -0.488,-0.067 1.03,0.561 1.738,0.978 2.122,1.247 0.763,0.518 1.358,1.08 1.787,1.687 v -3.036 c 0.427,0.743 0.966,1.563 1.619,2.462 0.943,0.72 1.507,1.079 1.684,1.079 0.113,0 0.193,-0.034 0.237,-0.101 l 1.924,-2.765 c 0.021,-0.023 0.044,-0.214 0.065,-0.573 0.226,0.18 0.491,0.534 0.793,1.061 0.305,0.529 0.535,0.849 0.692,0.962 0.944,0.72 1.506,1.079 1.685,1.079 0.112,0 0.192,-0.034 0.236,-0.101 l 1.924,-2.765 c 0.008,-0.009 0.016,-0.564 0.021,-1.649 -0.134,-0.189 -0.24,-0.396 -0.283,-0.627 -0.33,-1.814 -0.497,-3.577 -0.497,-5.243 0,-1.219 0.103,-2.319 0.304,-3.267 0.006,-0.027 0.023,-0.05 0.029,-0.076 z m -16.537,1.392 c 0,0.033 0.003,0.081 0.013,0.147 0.013,0.082 0.02,0.165 0.02,0.247 v 8.423 c 0.084,0.093 0.165,0.181 0.242,0.264 0.034,-1.407 0.044,-3.126 0.027,-5.133 -0.023,-2.801 -0.078,-3.615 -0.103,-3.846 -0.023,-0.081 -0.041,-0.164 -0.052,-0.248 -0.046,0.051 -0.095,0.101 -0.147,0.146 m 1.195,-3.787 c -0.112,-0.045 -0.741,-0.213 -1.888,-0.506 1.55,1.191 2.36,2.506 2.429,3.945 0.09,0.136 0.145,1.562 0.167,4.283 0.023,2.652 0,4.8 -0.068,6.442 l -0.549,1.416 c -0.069,0.112 -0.162,0.168 -0.275,0.168 -0.209,0 -1.067,-0.843 -2.58,-2.529 V 1.955 c -0.112,-0.719 0.067,-1.26 0.538,-1.618 l -4.316,0.1 c 0.359,0.315 0.595,0.709 0.71,1.18 l 0.303,18.446 c 0,0.563 -0.226,1.113 -0.676,1.654 l 4.251,0.336 c -0.631,-0.719 -0.9,-1.325 -0.81,-1.821 l 0.067,-7.924 c 0.886,1.327 1.512,2.146 1.877,2.462 0.159,0.134 0.543,0.303 1.158,0.505 l 2.453,-1.669 c -0.312,-0.35 -0.469,-0.824 -0.393,-1.307 0.099,-0.644 0.582,-1.153 1.21,-1.303 V 3.401 c -0.531,-0.355 -0.824,-0.985 -0.693,-1.63 0.088,-0.428 0.351,-0.771 0.693,-1 V 0.269 c -1.19,-1.169 -2.392,-2 -3.608,-2.495 m -7.484,4.232 c 0.019,0.026 0.039,0.059 0.059,0.086 l -0.004,-0.223 c -0.002,-0.004 -0.006,-0.007 -0.008,-0.011 z m 1.549,-6.39 h -6.779 l 0.842,0.581 c 0.473,0.115 0.708,0.457 0.708,1.029 0,0.136 -0.071,0.467 -0.214,0.993 l -0.861,2.872 c -1.4,0.291 -3.241,1.511 -5.522,3.661 l -0.151,-0.469 -2.599,-8.058 c -0.129,-0.428 -0.195,-0.766 -0.195,-1.013 0,-0.383 0.327,-0.709 0.978,-0.98 l -1.384,-0.067 h -2.226 l -1.684,0.067 c 0.541,0.182 0.878,0.383 1.012,0.609 0.066,0.112 0.201,0.482 0.404,1.112 l 3.18,9.877 c -0.971,-0.067 -1.816,-0.483 -2.538,-1.246 l 0.81,-1.481 -1.518,1.651 c 1.031,1.416 2.247,2.225 3.642,2.428 l 2.392,7.52 c 0.182,0.562 0.27,0.989 0.27,1.281 0,0.854 -0.19,1.382 -0.571,1.585 h 5.022 c -0.426,-0.203 -0.64,-0.696 -0.64,-1.483 0,-0.27 0.069,-0.618 0.204,-1.045 L -44.8,3.544 c 0.379,0.18 0.991,0.504 1.839,0.975 -0.497,-0.924 -0.993,-1.645 -1.49,-2.162 l 1.342,-4.149 c 0.233,-0.694 0.362,-1.053 0.384,-1.074 0.134,-0.347 0.349,-0.656 0.642,-0.932 z M 4.462,1.597 4.164,19.119 c 0,0.113 0.089,0.352 0.341,0.679 0.371,0.483 0.435,1.137 0.166,1.682 -0.27,0.547 -0.826,0.894 -1.436,0.894 h -3.911 c -0.605,0 -1.16,-0.343 -1.431,-0.885 -0.272,-0.543 -0.213,-1.191 0.151,-1.677 0.281,-0.375 0.352,-0.581 0.369,-0.644 -0.01,-0.071 -0.015,-0.145 -0.015,-0.217 v -2.648 c -0.106,0.022 -0.214,0.033 -0.324,0.033 -0.267,0 -0.538,-0.067 -0.786,-0.207 l -4.114,-2.326 c -0.321,-0.181 -0.549,-0.469 -0.683,-0.799 l -2.304,1.507 c -0.352,0.218 -0.762,0.335 -1.187,0.335 -0.272,0 -0.554,-0.048 -0.835,-0.142 -0.176,-0.058 -0.341,-0.145 -0.485,-0.261 l -2.55,-2.004 c -0.056,0.906 -0.148,1.166 -0.305,1.352 l -1.83,2.627 c -0.343,0.527 -0.918,0.829 -1.577,0.829 -0.636,0 -1.206,-0.302 -2.627,-1.385 -0.118,-0.086 -0.232,-0.189 -0.349,-0.315 l -0.841,1.21 c -0.343,0.525 -0.918,0.828 -1.579,0.828 -0.553,0 -1.057,-0.229 -2.132,-1.016 -0.184,0.197 -0.417,0.349 -0.687,0.435 -0.159,0.051 -0.323,0.074 -0.484,0.074 -0.51,0 -1.002,-0.244 -1.308,-0.678 -0.316,-0.446 -0.779,-0.879 -1.397,-1.296 -0.15,-0.106 -0.425,-0.282 -0.916,-0.566 l -3.03,2.062 c -0.269,0.182 -0.583,0.277 -0.9,0.277 -0.169,0 -0.339,-0.026 -0.503,-0.08 -0.392,-0.13 -0.706,-0.249 -0.966,-0.368 l -0.031,3.816 c -10e-4,0.051 -0.004,0.102 -0.009,0.152 0.033,0.079 0.135,0.275 0.42,0.599 0.43,0.49 0.521,1.191 0.229,1.775 -0.274,0.543 -0.829,0.882 -1.432,0.882 -0.041,0 -0.084,-10e-4 -0.126,-0.004 l -4.251,-0.337 c -0.597,-0.046 -1.117,-0.423 -1.35,-0.974 -0.232,-0.552 -0.137,-1.187 0.247,-1.647 0.201,-0.242 0.303,-0.453 0.304,-0.601 L -42.53,6.035 c -0.142,0.04 -0.284,0.084 -0.432,0.084 -0.265,0 -0.532,-0.065 -0.776,-0.201 -0.042,-0.024 -0.084,-0.047 -0.125,-0.069 l -3.134,9.672 c -0.127,0.404 -0.129,0.558 -0.129,0.564 0,0.09 0.005,0.159 0.011,0.211 0.489,0.374 0.729,1.006 0.59,1.626 -0.166,0.73 -0.814,1.248 -1.562,1.248 h -5.022 c -0.735,0 -1.375,-0.5 -1.554,-1.214 -0.148,-0.591 0.056,-1.204 0.5,-1.593 0.012,-0.078 0.023,-0.201 0.023,-0.378 0,-0.007 -0.006,-0.217 -0.193,-0.797 L -56.451,8.53 c -1.405,-0.451 -2.641,-1.4 -3.686,-2.834 -0.448,-0.616 -0.4,-1.464 0.116,-2.025 l 1.516,-1.65 -1.796,-5.577 c -0.094,-0.292 -0.161,-0.49 -0.208,-0.623 -0.049,-0.02 -0.111,-0.044 -0.19,-0.069 -0.734,-0.245 -1.187,-0.979 -1.078,-1.744 0.108,-0.766 0.749,-1.344 1.521,-1.374 l 1.748,-0.07 h 2.227 c 0.025,0 1.46,0.07 1.46,0.07 0.748,0.036 1.371,0.586 1.5,1.324 0.122,0.698 -0.231,1.39 -0.857,1.704 0.007,0.024 2.024,6.281 2.024,6.281 1.281,-1.028 2.426,-1.735 3.457,-2.131 l 0.604,-2.013 c 0.035,-0.13 0.064,-0.237 0.085,-0.323 l -0.786,-0.542 c -0.576,-0.399 -0.827,-1.125 -0.619,-1.794 0.209,-0.669 0.828,-1.125 1.528,-1.125 h 6.78 c 0.719,0 1.35,0.48 1.542,1.173 0.192,0.694 -0.102,1.431 -0.719,1.8 l -0.801,0.481 c -0.067,0.079 -0.117,0.16 -0.15,0.245 -0.016,0.04 -0.033,0.08 -0.052,0.118 -0.053,0.137 -0.153,0.431 -0.301,0.868 l -0.043,0.134 3.856,-0.089 c -0.083,-0.069 -0.17,-0.14 -0.26,-0.208 -0.603,-0.463 -0.797,-1.286 -0.465,-1.97 0.273,-0.56 0.839,-0.901 1.439,-0.901 0.131,0 0.264,0.016 0.397,0.05 1.819,0.464 1.963,0.522 2.095,0.575 1.402,0.57 2.791,1.523 4.128,2.835 0.306,0.301 0.479,0.713 0.479,1.143 v 0.243 c 0.096,0.005 0.177,0.007 0.288,0.012 0.375,0.021 0.656,0.033 0.84,0.033 0.301,0 0.762,-0.012 1.378,-0.034 0.23,-0.007 0.44,-0.013 0.63,-0.019 0,-0.571 0.304,-1.1 0.8,-1.386 0.248,-0.142 0.524,-0.215 0.8,-0.215 0.277,0 0.552,0.072 0.8,0.215 l 3.044,1.754 c 0.023,0.01 0.045,0.019 0.068,0.029 -0.077,-0.188 -0.117,-0.391 -0.117,-0.598 V 0.168 c 0,-0.573 0.307,-1.104 0.806,-1.389 0.246,-0.141 0.52,-0.212 0.795,-0.212 0.28,0 0.56,0.074 0.81,0.221 l 2.985,1.752 c 0.073,0.031 0.131,0.082 0.198,0.12 l 2.878,-2.508 c 0.292,-0.254 0.666,-0.393 1.052,-0.393 0.009,0 1.751,0.032 1.751,0.032 0.511,0.011 0.987,0.264 1.281,0.683 l 2.056,2.934 c 0.013,0.02 0.017,0.043 0.03,0.064 0.112,-0.224 0.273,-0.423 0.48,-0.575 l 2.816,-2.056 c 0.279,-0.204 0.611,-0.308 0.944,-0.308 0.256,0 0.514,0.062 0.749,0.186 l 0.542,0.287 c 0.046,-0.058 0.096,-0.113 0.151,-0.165 0.297,-0.284 0.694,-0.443 1.105,-0.443 0.024,0 3.647,0.171 3.647,0.171 0.654,0.032 1.222,0.455 1.437,1.072 C 5.299,0.258 5.118,0.943 4.627,1.373 4.551,1.439 4.498,1.51 4.462,1.597" /></g><g
           transform="translate(220.6543,26.1738)"
           id="g152"><path
             id="path154"
             style="fill:#ffffff;fill-opacity:1;fill-rule:nonzero;stroke:none"
             d="m 0,0 -2.268,-1.078 c -0.535,1.057 -0.756,2.54 -0.667,4.451 L -2.671,8.803 -1.683,9.68 0,7.588 Z m 2.563,15.984 c 0,0.518 0.222,1.068 0.672,1.654 H -0.676 C -0.135,16.918 0.087,16.311 0,15.815 V 8.903 L -1.924,11.601 -6.038,9.274 -5.363,-0.943 -2.547,-3.001 0,-1.651 v -1.484 l 3.572,0.169 c -0.359,0.314 -0.594,0.708 -0.708,1.18 z" /></g><g
           transform="translate(247.9844,30.2968)"
           id="g156"><path
             id="path158"
             style="fill:#ffffff;fill-opacity:1;fill-rule:nonzero;stroke:none"
             d="M 0,0 C 0.093,0.186 0.199,0.362 0.315,0.534 L 0.374,4.127 C 0.312,4.275 0.263,4.427 0.22,4.58 -0.145,3.857 -0.611,3.427 -1.196,3.331 H -5.647 L -5.749,9.737 0.387,9.872 C 1.04,9.894 1.685,9.703 2.327,9.3 2.547,9.16 2.725,8.999 2.909,8.842 3.088,8.952 3.271,9.065 3.48,9.192 L 2.547,13.21 c -2.832,-0.336 -5.632,-0.505 -8.398,-0.505 -1.079,0 -2.777,0.112 -5.09,0.338 l 0.065,-0.338 h -0.033 l 1.417,-10.184 -1.686,0.741 1.282,-8.362 -1.215,0.809 2.428,-13.927 0.741,8.094 1.079,-1.687 -0.201,8.801 0.134,-0.269 1.283,-1.956 v 5.968 h 3.91 c 0.709,0 1.258,-0.34 1.654,-1.006 C -0.057,-0.182 -0.043,-0.086 0,0" /></g><g
           transform="translate(258.1934,26.7558)"
           id="g160"><path
             id="path162"
             style="fill:#ffffff;fill-opacity:1;fill-rule:nonzero;stroke:none"
             d="m 0,0 0.024,0.026 -1.246,0.068 0.135,7.687 c 0.112,0.585 -0.429,1.35 -1.619,2.293 -0.832,0.653 -1.619,1.249 -2.36,1.788 C -7.045,10.693 -8.148,9.962 -8.373,9.67 -8.485,9.535 -8.541,9.366 -8.541,9.165 -8.541,8.625 -8.359,8.119 -8,7.647 l 1.01,-1.349 0.708,0.033 -0.302,1.113 c 0,0.405 0.414,0.866 1.246,1.383 0.496,0.315 0.799,0.506 0.911,0.573 l 0.508,0.27 V -0.21 C -4.057,-0.66 -4.304,-0.863 -4.663,-0.817 -5.316,0.06 -5.64,1.25 -5.64,2.757 c 0,0.315 0.022,0.63 0.066,0.944 -0.022,0.473 0.348,1.125 1.114,1.956 L -6.686,4.646 c -1.012,-0.45 -1.71,-1.058 -2.09,-1.821 0.841,-4.093 1.751,-6.048 2.727,-5.868 l 2.13,1.349 v -1.213 c -0.069,-0.271 0.011,-0.406 0.238,-0.406 0.253,0 0.664,0.203 1.236,0.607 l 1.674,1.852 C -0.631,-0.489 -0.367,-0.183 0,0" /></g><g
           transform="translate(265.2832,35.9208)"
           id="g164"><path
             id="path166"
             style="fill:#ffffff;fill-opacity:1;fill-rule:nonzero;stroke:none"
             d="m 0,0 c 0,0.567 0.181,1.085 0.521,1.503 l -0.975,1.7 c -0.044,0.068 -0.124,0.101 -0.236,0.101 -0.36,0 -1.122,-0.505 -2.292,-1.518 V 4.821 C -4.444,3.652 -5.748,2.674 -6.896,1.888 l 1.688,0.067 V -9.308 c 0,-0.359 -0.046,-0.585 -0.134,-0.674 -0.115,-0.159 -0.461,-0.36 -1.046,-0.607 h 0.928 0.925 1.435 1.432 c -0.652,0.156 -1.001,0.595 -1.045,1.315 -0.203,3.259 -0.258,6.564 -0.168,9.915 0.201,0.268 0.371,0.416 0.505,0.437 0.157,0.045 0.382,-0.247 0.676,-0.877 0.221,-0.494 0.381,-0.909 0.471,-1.247 -0.068,-0.383 -0.337,-0.799 -0.809,-1.247 V -2.429 L 0.175,-1.13 C 0.065,-0.766 0,-0.39 0,0" /></g><g
           transform="translate(274.9893,26.3027)"
           id="g168"><path
             id="path170"
             style="fill:#ffffff;fill-opacity:1;fill-rule:nonzero;stroke:none"
             d="m 0,0 c 0.129,0.169 0.243,0.321 0.366,0.484 l -1.152,0.063 0.135,7.687 c 0.112,0.585 -0.429,1.35 -1.62,2.293 -0.832,0.653 -1.619,1.249 -2.36,1.788 -1.978,-1.169 -3.082,-1.9 -3.306,-2.192 -0.113,-0.135 -0.168,-0.304 -0.168,-0.505 0,-0.54 0.181,-1.046 0.541,-1.517 l 1.009,-1.35 0.708,0.033 -0.301,1.113 c 0,0.405 0.414,0.866 1.246,1.383 0.496,0.315 0.798,0.506 0.911,0.574 l 0.508,0.269 v -9.88 c -0.138,-0.45 -0.385,-0.653 -0.745,-0.607 -0.653,0.877 -0.976,2.067 -0.976,3.574 0,0.315 0.021,0.63 0.065,0.944 -0.021,0.473 0.349,1.125 1.115,1.956 L -6.25,5.1 C -7.263,4.649 -7.96,4.041 -8.341,3.278 -7.499,-0.814 -6.59,-2.77 -5.613,-2.59 l 2.13,1.349 v -1.213 c -0.07,-0.271 0.01,-0.405 0.238,-0.405 0.253,0 0.664,0.202 1.235,0.606 l 1.967,2.176 C -0.026,-0.052 -0.018,-0.023 0,0" /></g><g
           transform="translate(285.3311,25.4658)"
           id="g172"><path
             id="path174"
             style="fill: black;fill-opacity:1;fill-rule:nonzero;stroke:none"
             d="m 0,0 -9.069,-0.134 c 4.001,5.238 6.193,8.711 6.575,10.42 L -5.9,9.544 C -6.957,9.611 -7.937,9.026 -8.834,7.79 l 1.518,4.418 8.63,0.674 C 0.08,9.915 -0.944,7.733 -1.753,6.341 -2.65,4.789 -3.798,3.294 -5.192,1.855 l 3.641,0.54 c 1.101,0.158 2.125,0.798 3.069,1.922 z m -12.352,-1.416 c -0.571,-0.404 -0.982,-0.606 -1.235,-0.606 -0.227,0 -0.308,0.134 -0.238,0.405 v 1.213 l -2.13,-1.349 c -0.977,-0.18 -1.886,1.775 -2.728,5.868 0.381,0.763 1.079,1.371 2.091,1.822 l 2.226,1.01 c -0.766,-0.831 -1.136,-1.483 -1.114,-1.956 -0.044,-0.314 -0.066,-0.629 -0.066,-0.944 0,-1.507 0.323,-2.697 0.977,-3.574 0.359,-0.046 0.606,0.157 0.744,0.607 v 9.88 l -0.508,-0.27 c -0.112,-0.067 -0.415,-0.258 -0.911,-0.573 C -16.076,9.6 -16.49,9.139 -16.49,8.734 l 0.302,-1.113 -0.708,-0.033 -1.01,1.35 c -0.36,0.471 -0.541,0.977 -0.541,1.517 0,0.201 0.055,0.37 0.168,0.505 0.224,0.292 1.328,1.023 3.306,2.192 0.742,-0.539 1.529,-1.135 2.361,-1.788 1.19,-0.943 1.731,-1.708 1.619,-2.293 L -11.128,1.384 -9.976,1.321 C -10.099,1.158 -10.213,1.006 -10.342,0.837 -10.359,0.813 -10.368,0.785 -10.385,0.76 Z m -9.734,9.442 v 0.136 c 0.472,0.448 0.741,0.864 0.81,1.247 -0.091,0.338 -0.25,0.753 -0.472,1.247 -0.294,0.63 -0.519,0.922 -0.676,0.877 -0.134,-0.021 -0.304,-0.169 -0.505,-0.437 -0.09,-3.351 -0.035,-6.656 0.168,-9.915 0.044,-0.72 0.393,-1.159 1.045,-1.315 h -1.431 -1.436 -0.925 -0.928 c 0.585,0.247 0.931,0.448 1.046,0.607 0.088,0.089 0.134,0.315 0.134,0.674 V 12.41 l -1.687,-0.067 c 1.147,0.786 2.451,1.764 3.913,2.933 v -3.035 c 1.17,1.013 1.932,1.518 2.292,1.518 0.112,0 0.192,-0.033 0.236,-0.101 l 0.975,-1.7 c -0.34,-0.418 -0.521,-0.936 -0.521,-1.503 0,-0.39 0.066,-0.766 0.175,-1.13 z m -7.497,-9.442 c -0.571,-0.404 -0.982,-0.606 -1.235,-0.606 -0.228,0 -0.308,0.134 -0.239,0.405 v 1.213 l -2.13,-1.349 c -0.976,-0.18 -1.885,1.775 -2.727,5.868 0.381,0.763 1.078,1.371 2.091,1.822 l 2.225,1.01 c -0.765,-0.831 -1.135,-1.483 -1.114,-1.956 -0.044,-0.314 -0.065,-0.629 -0.065,-0.944 0,-1.507 0.323,-2.697 0.976,-3.574 0.36,-0.046 0.607,0.157 0.744,0.607 v 9.88 l -0.507,-0.27 c -0.113,-0.067 -0.415,-0.258 -0.912,-0.573 -0.832,-0.517 -1.246,-0.978 -1.246,-1.383 l 0.302,-1.113 -0.708,-0.033 -1.01,1.35 c -0.359,0.471 -0.541,0.977 -0.541,1.517 0,0.201 0.056,0.37 0.168,0.505 0.225,0.292 1.328,1.023 3.307,2.192 0.741,-0.539 1.528,-1.135 2.36,-1.788 1.191,-0.943 1.732,-1.708 1.619,-2.293 l -0.134,-7.687 1.246,-0.068 -0.025,-0.026 c -0.367,-0.183 -0.631,-0.489 -0.771,-0.854 z m -7.155,13.403 c -0.167,-0.198 -0.293,-0.423 -0.384,-0.664 -0.576,-0.059 -1.095,-0.416 -1.322,-0.976 -0.154,-0.381 -0.286,-0.534 -0.338,-0.584 h -2.637 l -0.052,3.239 4.613,0.102 c 0.312,0 0.634,-0.108 0.982,-0.326 0.011,-0.007 0.018,-0.015 0.028,-0.022 -0.569,-0.402 -0.768,-0.609 -0.89,-0.769 m -2.346,-6.423 h -3.91 v -5.968 l -1.282,1.956 -0.135,0.269 0.201,-8.8 -1.079,1.686 -0.74,-8.094 -2.429,13.927 1.215,-0.809 -1.281,8.362 1.685,-0.74 -1.417,10.183 h 0.033 l -0.065,0.338 c 2.313,-0.226 4.012,-0.338 5.091,-0.338 2.765,0 5.565,0.169 8.397,0.505 l 0.934,-4.018 c -0.209,-0.127 -0.393,-0.24 -0.572,-0.35 -0.184,0.157 -0.362,0.318 -0.582,0.458 -0.642,0.403 -1.287,0.594 -1.94,0.572 l -6.136,-0.135 0.102,-6.406 h 4.451 c 0.585,0.096 1.052,0.526 1.416,1.249 0.043,-0.153 0.093,-0.305 0.154,-0.453 l -0.058,-3.593 c -0.116,-0.172 -0.223,-0.348 -0.316,-0.534 -0.043,-0.086 -0.056,-0.182 -0.083,-0.273 -0.396,0.666 -0.945,1.006 -1.654,1.006 m 12.228,4.75 c -0.068,0.155 -0.145,0.305 -0.235,0.451 0.05,-0.004 0.096,-0.023 0.147,-0.023 0.021,0 0.088,0.002 0.088,0.002 z M -8.991,2.634 C -9.146,2.739 -9.314,2.826 -9.5,2.871 l 0.06,3.449 c 0.197,-0.081 0.401,-0.132 0.606,-0.132 0.499,0 0.986,0.234 1.297,0.662 0.362,0.5 0.912,1.095 1.532,1.095 0.001,0 0.071,-0.003 0.105,-0.003 0.115,0 0.229,0.013 0.34,0.037 l 0.263,0.057 C -6.033,6.801 -7.197,5.058 -8.991,2.634 M 2.312,5.707 C 2.063,5.849 1.789,5.918 1.519,5.918 1.059,5.918 0.605,5.72 0.292,5.347 -0.218,4.739 -0.738,4.328 -1.264,4.119 c 0.322,0.469 0.619,0.942 0.894,1.417 0.853,1.467 1.889,3.668 3.163,6.731 0.215,0.514 0.145,1.103 -0.182,1.554 -0.302,0.418 -0.786,0.662 -1.297,0.662 -0.041,0 -0.082,-0.002 -0.124,-0.004 l -8.63,-0.674 c -0.637,-0.05 -1.183,-0.474 -1.39,-1.076 l -0.815,-2.371 c -0.418,0.922 -1.261,1.697 -1.981,2.268 -0.847,0.662 -1.65,1.271 -2.405,1.821 -0.28,0.203 -0.611,0.307 -0.942,0.307 -0.281,0 -0.563,-0.074 -0.814,-0.224 -1.168,-0.689 -1.947,-1.177 -2.486,-1.539 l -0.84,1.464 c -0.017,0.029 -0.036,0.06 -0.055,0.087 -0.344,0.521 -0.917,0.818 -1.57,0.818 -0.224,0 -0.449,-0.035 -0.692,-0.114 v 0.03 c 0,0.616 -0.352,1.177 -0.907,1.444 -0.221,0.105 -0.457,0.157 -0.693,0.157 -0.357,0 -0.711,-0.118 -1,-0.35 -1.433,-1.146 -2.717,-2.11 -3.819,-2.864 -0.437,-0.3 -0.685,-0.788 -0.693,-1.297 -0.106,0.09 -0.213,0.179 -0.315,0.26 -0.847,0.662 -1.65,1.27 -2.404,1.82 -0.28,0.204 -0.61,0.308 -0.943,0.308 -0.062,0 -0.121,-0.018 -0.183,-0.025 l -0.853,3.674 c -0.171,0.733 -0.823,1.24 -1.558,1.24 -0.063,0 -0.127,-0.004 -0.19,-0.011 -2.761,-0.328 -5.524,-0.494 -8.21,-0.494 -1.024,0 -2.684,0.11 -4.936,0.33 -0.052,0.005 -0.102,0.007 -0.154,0.007 -0.449,0 -0.88,-0.188 -1.185,-0.524 -0.34,-0.374 -0.484,-0.887 -0.386,-1.383 l 0.003,-0.017 c -10e-4,-0.078 0.004,-0.156 0.015,-0.235 l 1.063,-7.642 c -0.258,-0.041 -0.506,-0.146 -0.72,-0.311 -0.464,-0.355 -0.698,-0.935 -0.608,-1.512 l 0.903,-5.894 C -49.247,1.934 -49.291,1.907 -49.334,1.88 -49.87,1.53 -50.146,0.896 -50.036,0.265 l 2.429,-13.926 c 0.134,-0.77 0.801,-1.326 1.576,-1.326 0.022,0 0.044,10e-4 0.066,0.002 0.802,0.032 1.456,0.654 1.528,1.453 l 0.456,4.968 c 0.08,0.011 0.16,0.029 0.238,0.052 0.686,0.21 1.149,0.851 1.133,1.569 l -0.113,4.962 c 0.063,0.009 0.124,0.024 0.186,0.043 0.679,0.202 1.143,0.826 1.143,1.534 v 4.368 h 2.31 c 0.066,0 0.271,0 0.496,-0.729 0.206,-0.66 0.809,-1.096 1.481,-1.118 0.818,-3.347 1.863,-5.483 3.797,-5.483 h 0.001 c 0.137,10e-4 0.274,0.012 0.413,0.038 0.201,0.037 0.394,0.113 0.567,0.223 l 0.119,0.075 c 0.347,-0.378 0.846,-0.593 1.392,-0.593 0.624,0 1.27,0.269 2.161,0.902 0.095,0.067 0.183,0.145 0.261,0.232 l 0.988,1.092 c 0.272,-0.209 0.608,-0.338 0.972,-0.338 h 4.721 c 0.811,0 1.486,0.609 1.58,1.416 0.088,0.738 -0.352,1.432 -1.034,1.688 -0.105,1.721 -0.17,3.469 -0.191,5.23 0.029,0.014 0.056,0.03 0.085,0.047 l 2.143,1.257 0.816,-1.09 c -0.804,-0.534 -1.407,-1.198 -1.799,-1.982 -0.16,-0.321 -0.209,-0.687 -0.136,-1.039 0.885,-4.296 1.933,-7.158 4.173,-7.158 h 10e-4 c 0.137,10e-4 0.274,0.012 0.412,0.038 0.201,0.037 0.394,0.113 0.567,0.223 l 0.119,0.075 c 0.347,-0.378 0.846,-0.593 1.392,-0.593 0.625,0 1.271,0.269 2.161,0.902 0.096,0.067 0.184,0.145 0.262,0.232 l 1.05,1.161 c 0.287,-0.251 0.65,-0.407 1.045,-0.407 0.007,0 9.092,0.134 9.092,0.134 0.671,0.01 1.264,0.437 1.488,1.071 L 3.028,3.786 C 3.285,4.516 2.983,5.323 2.312,5.707" /></g><g
           transform="translate(283.7803,27.8603)"
           id="g176"><path
             id="path178"
             style="fill:#ffffff;fill-opacity:1;fill-rule:nonzero;stroke:none"
             d="m 0,0 -3.642,-0.539 c 1.395,1.438 2.542,2.934 3.44,4.485 0.808,1.393 1.833,3.575 3.067,6.541 L -5.766,9.813 -7.283,5.396 c 0.897,1.236 1.877,1.821 2.933,1.753 l 3.407,0.743 C -1.325,6.183 -3.518,2.709 -7.519,-2.528 l 9.07,0.133 1.517,4.318 C 2.125,0.799 1.101,0.158 0,0" /></g></g></g></g></svg>