<?xml version="1.0" encoding="UTF-8" standalone="no"?>
<svg
   xmlns:dc="http://purl.org/dc/elements/1.1/"
   xmlns:cc="http://creativecommons.org/ns#"
   xmlns:rdf="http://www.w3.org/1999/02/22-rdf-syntax-ns#"
   xmlns:svg="http://www.w3.org/2000/svg"
   xmlns="http://www.w3.org/2000/svg"
   viewBox="0 0 133.33333 106.6908"
   height="106.6908"
   width="133.33333"
   xml:space="preserve"
   id="svg2"
   version="1.1"><metadata
     id="metadata8"><rdf:RDF><cc:Work
         rdf:about=""><dc:format>image/svg+xml</dc:format><dc:type
           rdf:resource="http://purl.org/dc/dcmitype/StillImage" /></cc:Work></rdf:RDF></metadata><defs
     id="defs6"><clipPath
       id="clipPath18"
       clipPathUnits="userSpaceOnUse"><path
         id="path16"
         d="M 0,80.018 H 100 V 0 H 0 Z" /></clipPath></defs><g
     transform="matrix(1.3333333,0,0,-1.3333333,0,106.6908)"
     id="g10"><g
       id="g12"><g
         clip-path="url(#clipPath18)"
         id="g14"><g
           transform="translate(51.8848,25.1287)"
           id="g20"><path
             id="path22"
             style="fill:#96989b;fill-opacity:1;fill-rule:nonzero;stroke:none"
             d="m 0,0 -1.874,-25.129 h -0.022 c -53.468,16.135 -49.946,55.043 -49.946,55.043 0,13.79 11.189,24.979 24.979,24.979 12.559,0 22.955,-9.272 24.721,-21.339 l -8.137,-16.841 z" /></g><g
           transform="translate(100,53.5652)"
           id="g24"><path
             id="path26"
             style="fill:#96989b;fill-opacity:1;fill-rule:nonzero;stroke:none"
             d="m 0,0 c 0,-7.249 -2.741,-39.293 -49.989,-53.565 l 8.49,25.503 -13.586,16.713 4.828,16.467 c 0.043,-0.311 0.482,-0.311 0.525,0 2.055,14.047 15.813,24.303 31.071,20.556 C -7.591,22.955 -0.032,12.676 -0.032,1.263 -0.021,1.028 0,0.6 0,0" /></g><g
           transform="translate(50.0107,-2e-4)"
           id="g28"><path
             id="path30"
             style="fill:#ffffff;fill-opacity:1;fill-rule:nonzero;stroke:none"
             d="M 0,0 1.874,25.129 -8.405,41.842 -0.268,58.683 -5.096,42.216 8.49,25.503 Z" /></g></g></g></g></svg>