<?xml version="1.0" encoding="UTF-8" standalone="no"?>
<svg
   xmlns:dc="http://purl.org/dc/elements/1.1/"
   xmlns:cc="http://creativecommons.org/ns#"
   xmlns:rdf="http://www.w3.org/1999/02/22-rdf-syntax-ns#"
   xmlns:svg="http://www.w3.org/2000/svg"
   xmlns="http://www.w3.org/2000/svg"
   viewBox="0 0 66.666664 66.666664"
   height="66.666664"
   width="66.666664"
   xml:space="preserve"
   id="svg2"
   version="1.1"><metadata
     id="metadata8"><rdf:RDF><cc:Work
         rdf:about=""><dc:format>image/svg+xml</dc:format><dc:type
           rdf:resource="http://purl.org/dc/dcmitype/StillImage" /></cc:Work></rdf:RDF></metadata><defs
     id="defs6"><clipPath
       id="clipPath18"
       clipPathUnits="userSpaceOnUse"><path
         id="path16"
         d="M 0,50 H 50 V 0 H 0 Z" /></clipPath></defs><g
     transform="matrix(1.3333333,0,0,-1.3333333,0,66.666667)"
     id="g10"><g
       id="g12"><g
         clip-path="url(#clipPath18)"
         id="g14"><g
           transform="translate(25,4.2715)"
           id="g20"><path
             id="path22"
             style="fill:#fff200;fill-opacity:1;fill-rule:nonzero;stroke:none"
             d="m 0,0 c -11.43,0 -20.729,9.299 -20.729,20.729 0,11.429 9.299,20.728 20.729,20.728 11.43,0 20.729,-9.299 20.729,-20.728 C 20.729,9.299 11.43,0 0,0" /></g><g
           transform="translate(25,46.7285)"
           id="g24"><path
             id="path26"
             style="fill:#231f20;fill-opacity:1;fill-rule:nonzero;stroke:none"
             d="m 0,0 c -12,0 -21.729,-9.728 -21.729,-21.729 0,-12 9.729,-21.728 21.729,-21.728 12,0 21.729,9.728 21.729,21.728 C 21.729,-9.728 12,0 0,0 m 0,-2 c 10.878,0 19.729,-8.85 19.729,-19.729 0,-10.877 -8.851,-19.728 -19.729,-19.728 -10.878,0 -19.729,8.851 -19.729,19.728 C -19.729,-10.85 -10.878,-2 0,-2" /></g><g
           transform="translate(14.7529,28.8442)"
           id="g28"><path
             id="path30"
             style="fill:#231f20;fill-opacity:1;fill-rule:nonzero;stroke:none"
             d="m 0,0 v 0 c -0.552,0 -1,0.448 -1,1 v 5.024 c 0,0.553 0.448,1 1,1 h 5.024 c 0.553,0 1,-0.447 1,-1 0,-0.552 -0.447,-1 -1,-1 H 2 c -0.552,0 -1,-0.447 -1,-1 V 1 C 1,0.448 0.552,0 0,0" /></g><g
           transform="translate(19.7773,13.2998)"
           id="g32"><path
             id="path34"
             style="fill:#231f20;fill-opacity:1;fill-rule:nonzero;stroke:none"
             d="m 0,0 h -5.024 c -0.553,0 -1,0.448 -1,1 v 5.024 c 0,0.553 0.447,1 1,1 0.552,0 1,-0.447 1,-1 V 3 c 0,-0.552 0.447,-1 1,-1 H 0 C 0.552,2 1,1.553 1,1 1,0.448 0.552,0 0,0" /></g><g
           transform="translate(35.3213,13.2998)"
           id="g36"><path
             id="path38"
             style="fill:#231f20;fill-opacity:1;fill-rule:nonzero;stroke:none"
             d="m 0,0 h -5.024 c -0.553,0 -1,0.448 -1,1 0,0.553 0.447,1 1,1 H -2 c 0.552,0 1,0.448 1,1 v 3.024 c 0,0.553 0.447,1 1,1 0.552,0 1,-0.447 1,-1 V 1 C 1,0.448 0.552,0 0,0" /></g><g
           transform="translate(35.3213,28.8442)"
           id="g40"><path
             id="path42"
             style="fill:#231f20;fill-opacity:1;fill-rule:nonzero;stroke:none"
             d="m 0,0 v 0 c -0.553,0 -1,0.448 -1,1 v 3.024 c 0,0.553 -0.448,1 -1,1 h -3.024 c -0.553,0 -1,0.448 -1,1 0,0.553 0.447,1 1,1 H 0 c 0.552,0 1,-0.447 1,-1 V 1 C 1,0.448 0.552,0 0,0" /></g></g></g></g></svg>