<?xml version="1.0" encoding="UTF-8" standalone="no"?>
<svg
   xmlns:dc="http://purl.org/dc/elements/1.1/"
   xmlns:cc="http://creativecommons.org/ns#"
   xmlns:rdf="http://www.w3.org/1999/02/22-rdf-syntax-ns#"
   xmlns:svg="http://www.w3.org/2000/svg"
   xmlns="http://www.w3.org/2000/svg"
   viewBox="0 0 66.666664 66.666664"
   height="66.666664"
   width="66.666664"
   xml:space="preserve"
   id="svg2"
   version="1.1"><metadata
     id="metadata8"><rdf:RDF><cc:Work
         rdf:about=""><dc:format>image/svg+xml</dc:format><dc:type
           rdf:resource="http://purl.org/dc/dcmitype/StillImage" /></cc:Work></rdf:RDF></metadata><defs
     id="defs6"><clipPath
       id="clipPath18"
       clipPathUnits="userSpaceOnUse"><path
         id="path16"
         d="M 0,50 H 50 V 0 H 0 Z" /></clipPath></defs><g
     transform="matrix(1.3333333,0,0,-1.3333333,0,66.666667)"
     id="g10"><g
       id="g12"><g
         clip-path="url(#clipPath18)"
         id="g14"><g
           transform="translate(14.9443,45.376)"
           id="g20"><path
             id="path22"
             style="fill:#fff200;fill-opacity:1;fill-rule:nonzero;stroke:none"
             d="m 0,0 h -2.827 c -2.925,0 -5.306,-2.38 -5.306,-5.306 v -30.139 c 0,-2.927 2.381,-5.307 5.306,-5.307 H 0 c 1.536,0 2.784,1.249 2.784,2.784 V -2.784 C 2.784,-1.249 1.536,0 0,0" /></g><g
           transform="translate(17.7285,7.4082)"
           id="g24"><path
             id="path26"
             style="fill:#231f20;fill-opacity:1;fill-rule:nonzero;stroke:none"
             d="m 0,0 c 0,-1.535 -1.249,-2.784 -2.784,-2.784 h -2.827 c -2.926,0 -5.306,2.38 -5.306,5.306 v 30.14 c 0,2.925 2.38,5.306 5.306,5.306 h 2.827 C -1.249,37.968 0,36.719 0,35.184 Z m -2.784,40.886 h -2.827 c -4.542,0 -8.224,-3.682 -8.224,-8.224 V 2.522 c 0,-4.543 3.682,-8.224 8.224,-8.224 h 2.827 c 3.149,0 5.702,2.553 5.702,5.702 v 35.184 c 0,3.149 -2.553,5.702 -5.702,5.702" /></g><g
           transform="translate(37.8828,45.376)"
           id="g28"><path
             id="path30"
             style="fill:#f7931d;fill-opacity:1;fill-rule:nonzero;stroke:none"
             d="m 0,0 h -2.827 c -1.535,0 -2.784,-1.249 -2.784,-2.784 v -35.184 c 0,-1.535 1.249,-2.784 2.784,-2.784 H 0 c 2.926,0 5.306,2.38 5.306,5.307 V -5.306 C 5.306,-2.38 2.926,0 0,0" /></g><g
           transform="translate(43.1885,9.9307)"
           id="g32"><path
             id="path34"
             style="fill:#231f20;fill-opacity:1;fill-rule:nonzero;stroke:none"
             d="m 0,0 c 0,-2.927 -2.38,-5.307 -5.306,-5.307 h -2.827 c -1.535,0 -2.784,1.249 -2.784,2.785 v 35.183 c 0,1.535 1.249,2.784 2.784,2.784 h 2.827 C -2.38,35.445 0,33.065 0,30.139 Z m -5.306,38.364 h -2.827 c -3.149,0 -5.702,-2.553 -5.702,-5.703 V -2.522 c 0,-3.15 2.553,-5.703 5.702,-5.703 h 2.827 c 4.542,0 8.225,3.682 8.225,8.225 v 30.139 c 0,4.542 -3.683,8.225 -8.225,8.225" /></g></g></g></g></svg>