<?xml version="1.0" encoding="UTF-8" standalone="no"?>
<svg
   xmlns:dc="http://purl.org/dc/elements/1.1/"
   xmlns:cc="http://creativecommons.org/ns#"
   xmlns:rdf="http://www.w3.org/1999/02/22-rdf-syntax-ns#"
   xmlns:svg="http://www.w3.org/2000/svg"
   xmlns="http://www.w3.org/2000/svg"
   viewBox="0 0 66.666664 66.666664"
   height="66.666664"
   width="66.666664"
   xml:space="preserve"
   id="svg2"
   version="1.1"><metadata
     id="metadata8"><rdf:RDF><cc:Work
         rdf:about=""><dc:format>image/svg+xml</dc:format><dc:type
           rdf:resource="http://purl.org/dc/dcmitype/StillImage" /></cc:Work></rdf:RDF></metadata><defs
     id="defs6"><clipPath
       id="clipPath18"
       clipPathUnits="userSpaceOnUse"><path
         id="path16"
         d="M 0,50 H 50 V 0 H 0 Z" /></clipPath></defs><g
     transform="matrix(1.3333333,0,0,-1.3333333,0,66.666667)"
     id="g10"><g
       id="g12"><g
         clip-path="url(#clipPath18)"
         id="g14"><g
           transform="translate(45.7422,24.043)"
           id="g20"><path
             id="path22"
             style="fill:#231f20;fill-opacity:1;fill-rule:nonzero;stroke:none"
             d="m 0,0 -40.418,-20.281 c -0.676,-0.34 -1.45,0.228 -1.347,0.988 l 0.946,6.95 c -0.102,-0.749 -1.189,-0.673 -1.189,0.084 v 33.173 c 0,1.023 1.055,1.69 1.957,1.237 L -6.114,5.113 C -5.445,4.777 -5.864,3.748 -6.571,3.992 L -35.603,14.015 -0.114,1.763 C 0.679,1.489 0.75,0.377 0,0 m 0.918,4.856 -3.837,1.325 c -0.027,0.064 -0.057,0.127 -0.087,0.186 -0.147,0.285 -0.316,0.505 -0.418,0.628 -0.067,0.091 -0.21,0.259 -0.29,0.339 -0.296,0.292 -0.625,0.53 -0.98,0.708 l -33.937,17.04 c -0.636,0.319 -1.316,0.48 -2.02,0.48 -2.519,0 -4.568,-2.085 -4.568,-4.648 v -33.173 c 0,-0.328 0.044,-0.656 0.138,-1.017 0.021,-0.081 0.045,-0.157 0.072,-0.237 0.095,-0.287 0.217,-0.552 0.333,-0.743 0.03,-0.054 0.061,-0.106 0.091,-0.152 0.062,-0.097 0.13,-0.191 0.205,-0.282 l -0.566,-4.156 c -0.164,-1.21 0.193,-2.429 0.979,-3.349 0.792,-0.923 1.933,-1.452 3.133,-1.452 0.64,0 1.258,0.146 1.836,0.436 L 1.419,-2.93 c 1.512,0.757 2.417,2.353 2.308,4.064 -0.112,1.71 -1.213,3.171 -2.809,3.722" /></g><g
           transform="translate(8.3594,36.9399)"
           id="g24"><path
             id="path26"
             style="fill:#fbb03f;fill-opacity:1;fill-rule:nonzero;stroke:none"
             d="M 0,0 0.069,0.508 C 0.15,1.103 0.743,1.476 1.302,1.282 L 1.78,1.118 30.812,-8.905 c 0.707,-0.244 1.125,0.785 0.457,1.121 L -2.668,9.254 C -3.57,9.708 -4.625,9.04 -4.625,8.017 v -33.173 c 0,-0.757 1.087,-0.833 1.189,-0.084 l 1.722,12.651 z" /></g><g
           transform="translate(41.5156,23.2773)"
           id="g28"><path
             id="path30"
             style="fill:#fee827;fill-opacity:1;fill-rule:nonzero;stroke:none"
             d="M 0,0 -5.805,-2.865 C -5.997,-2.96 -6.216,-2.985 -6.424,-2.937 L -23.55,1.045 c -0.522,0.122 -1.037,-0.224 -1.134,-0.759 l -0.329,-1.825 c -0.096,-0.529 0.256,-1.034 0.779,-1.117 l 11.035,-1.761 c 0.917,-0.146 1.093,-1.413 0.251,-1.812 l -3.465,-1.64 c -0.157,-0.074 -0.333,-0.104 -0.505,-0.083 l -8.399,1.002 c -0.494,0.058 -0.948,-0.284 -1.035,-0.782 l -1.004,-5.729 c -0.051,-0.289 -0.23,-0.539 -0.485,-0.677 l -5.824,-3.136 c -0.677,-0.365 -1.476,0.205 -1.37,0.977 l 3.747,27.278 c 0.081,0.59 0.667,0.962 1.224,0.776 L -0.117,1.769 C 0.686,1.501 0.761,0.376 0,0 m 4.112,2.529 -35.488,12.251 -0.478,0.165 c -0.559,0.193 -1.152,-0.179 -1.233,-0.774 l -0.069,-0.508 -1.714,-12.59 -1.722,-12.65 -0.946,-6.95 c -0.104,-0.76 0.67,-1.328 1.346,-0.989 L 4.227,0.766 c 0.75,0.377 0.678,1.489 -0.115,1.763" /></g><g
           transform="translate(41.3984,25.0464)"
           id="g32"><path
             id="path34"
             style="fill:#231f20;fill-opacity:1;fill-rule:nonzero;stroke:none"
             d="m 0,0 -29.947,9.988 c -0.556,0.186 -1.142,-0.186 -1.223,-0.776 l -3.748,-27.278 c -0.106,-0.772 0.693,-1.342 1.371,-0.977 l 5.823,3.136 c 0.255,0.138 0.434,0.388 0.485,0.677 l 1.004,5.729 c 0.088,0.498 0.541,0.84 1.035,0.782 l 8.399,-1.002 c 0.173,-0.021 0.348,0.009 0.506,0.083 l 3.464,1.64 c 0.842,0.399 0.666,1.665 -0.251,1.812 l -11.035,1.761 c -0.523,0.083 -0.875,0.588 -0.779,1.117 l 0.329,1.825 c 0.097,0.535 0.612,0.88 1.134,0.759 l 17.126,-3.982 c 0.208,-0.048 0.427,-0.023 0.62,0.072 l 5.804,2.865 C 0.878,-1.393 0.803,-0.268 0,0" /></g></g></g></g></svg>