<?xml version="1.0" encoding="UTF-8" standalone="no"?>
<svg
   xmlns:dc="http://purl.org/dc/elements/1.1/"
   xmlns:cc="http://creativecommons.org/ns#"
   xmlns:rdf="http://www.w3.org/1999/02/22-rdf-syntax-ns#"
   xmlns:svg="http://www.w3.org/2000/svg"
   xmlns="http://www.w3.org/2000/svg"
   viewBox="0 0 66.666664 66.666664"
   height="66.666664"
   width="66.666664"
   xml:space="preserve"
   id="svg2"
   version="1.1"><metadata
     id="metadata8"><rdf:RDF><cc:Work
         rdf:about=""><dc:format>image/svg+xml</dc:format><dc:type
           rdf:resource="http://purl.org/dc/dcmitype/StillImage" /></cc:Work></rdf:RDF></metadata><defs
     id="defs6"><clipPath
       id="clipPath18"
       clipPathUnits="userSpaceOnUse"><path
         id="path16"
         d="M 0,50 H 50 V 0 H 0 Z" /></clipPath></defs><g
     transform="matrix(1.3333333,0,0,-1.3333333,0,66.666667)"
     id="g10"><g
       id="g12"><g
         clip-path="url(#clipPath18)"
         id="g14"><g
           transform="translate(49.3506,25)"
           id="g20"><path
             id="path22"
             style="fill:#231f20;fill-opacity:1;fill-rule:nonzero;stroke:none"
             d="m 0,0 c 0,-13.448 -10.902,-24.351 -24.351,-24.351 -13.448,0 -24.35,10.903 -24.35,24.351 0,13.448 10.902,24.351 24.35,24.351 C -10.902,24.351 0,13.448 0,0" /></g><g
           transform="translate(39.8848,27.1792)"
           id="g24"><path
             id="path26"
             style="fill:#fabc15;fill-opacity:1;fill-rule:nonzero;stroke:none"
             d="m 0,0 -22.159,7.519 c -0.615,0.209 -1.269,-0.195 -1.358,-0.839 l -2.623,-18.934 c -0.077,-0.563 -0.907,-0.505 -0.907,0.062 v 24.887 c 0,0.767 0.805,1.268 1.494,0.929 L 0.348,0.841 C 0.858,0.589 0.539,-0.183 0,0" /></g><g
           transform="translate(31.791,18.9365)"
           id="g28"><path
             id="path30"
             style="fill:#fee827;fill-opacity:1;fill-rule:nonzero;stroke:none"
             d="M 0,0 -2.644,-1.23 C -2.765,-1.286 -2.897,-1.308 -3.03,-1.292 l -6.41,0.751 c -0.377,0.044 -0.723,-0.213 -0.79,-0.586 l -0.766,-4.298 c -0.039,-0.218 -0.176,-0.405 -0.371,-0.509 l -4.444,-2.352 c -0.518,-0.274 -1.127,0.153 -1.046,0.733 l 2.86,20.465 c 0.062,0.442 0.509,0.721 0.934,0.582 L 9.793,6 c 0.613,-0.2 0.67,-1.045 0.09,-1.326 L 5.452,2.524 C 5.306,2.453 5.139,2.434 4.979,2.47 L -8.092,5.458 C -8.49,5.548 -8.883,5.289 -8.957,4.888 L -9.208,3.519 C -9.281,3.122 -9.013,2.743 -8.614,2.681 L -0.191,1.359 C 0.509,1.25 0.643,0.3 0,0 m -15.371,15.305 -3.397,-24.532 c -0.079,-0.569 0.512,-0.996 1.028,-0.741 L 13.108,5.248 c 0.574,0.282 0.519,1.117 -0.087,1.322 l -27.451,9.315 c -0.426,0.145 -0.879,-0.135 -0.941,-0.58" /></g><g
           transform="translate(22.834,23.8242)"
           id="g32"><path
             id="path34"
             style="fill:#231f20;fill-opacity:1;fill-rule:nonzero;stroke:none"
             d="m 0,0 -0.251,-1.369 c -0.073,-0.397 0.195,-0.776 0.594,-0.838 l 8.423,-1.321 c 0.7,-0.11 0.834,-1.06 0.191,-1.36 L 6.313,-6.118 C 6.192,-6.174 6.06,-6.195 5.927,-6.18 l -6.41,0.751 c -0.377,0.044 -0.723,-0.213 -0.79,-0.586 l -0.766,-4.298 c -0.039,-0.217 -0.176,-0.405 -0.371,-0.508 l -4.444,-2.353 c -0.518,-0.273 -1.127,0.153 -1.046,0.734 l 2.86,20.464 c 0.062,0.442 0.509,0.722 0.934,0.582 L 18.75,1.113 c 0.613,-0.201 0.67,-1.046 0.09,-1.327 L 14.409,-2.363 C 14.263,-2.435 14.096,-2.454 13.937,-2.418 L 0.865,0.57 C 0.467,0.661 0.074,0.401 0,0" /></g></g></g></g></svg>