<?xml version="1.0" encoding="UTF-8" standalone="no"?>
<svg
   xmlns:dc="http://purl.org/dc/elements/1.1/"
   xmlns:cc="http://creativecommons.org/ns#"
   xmlns:rdf="http://www.w3.org/1999/02/22-rdf-syntax-ns#"
   xmlns:svg="http://www.w3.org/2000/svg"
   xmlns="http://www.w3.org/2000/svg"
   viewBox="0 0 66.666664 66.666664"
   height="66.666664"
   width="66.666664"
   xml:space="preserve"
   id="svg2"
   version="1.1"><metadata
     id="metadata8"><rdf:RDF><cc:Work
         rdf:about=""><dc:format>image/svg+xml</dc:format><dc:type
           rdf:resource="http://purl.org/dc/dcmitype/StillImage" /></cc:Work></rdf:RDF></metadata><defs
     id="defs6"><clipPath
       id="clipPath18"
       clipPathUnits="userSpaceOnUse"><path
         id="path16"
         d="M 0,50 H 50 V 0 H 0 Z" /></clipPath></defs><g
     transform="matrix(1.3333333,0,0,-1.3333333,0,66.666667)"
     id="g10"><g
       id="g12"><g
         clip-path="url(#clipPath18)"
         id="g14"><g
           transform="translate(35.4268,11.8252)"
           id="g20"><path
             id="path22"
             style="fill:#fff200;fill-opacity:1;fill-rule:nonzero;stroke:none"
             d="M 0,0 -0.218,-0.977 -6.081,0.324 -4.357,6.076 -3.398,5.79 -4.657,1.591 c 4.615,2.655 7.369,7.723 6.897,12.851 -0.451,4.898 -3.677,9.16 -8.418,11.122 l 0.383,0.924 C -0.71,24.383 2.751,19.802 3.236,14.534 3.734,9.113 0.895,3.753 -3.904,0.865 Z m -15.059,-0.139 c -5.085,2.106 -8.545,6.687 -9.03,11.954 -0.499,5.421 2.34,10.782 7.139,13.669 l -3.904,0.866 0.218,0.977 5.863,-1.301 -1.723,-5.753 -0.959,0.287 1.259,4.2 c -4.616,-2.657 -7.369,-7.726 -6.897,-12.853 0.45,-4.897 3.676,-9.159 8.417,-11.122 z m 4.632,33.042 c -10.878,0 -19.728,-8.85 -19.728,-19.728 0,-10.878 8.85,-19.729 19.728,-19.729 10.878,0 19.729,8.851 19.729,19.729 0,10.878 -8.851,19.728 -19.729,19.728" /></g><g
           transform="translate(25,5.2715)"
           id="g24"><path
             id="path26"
             style="fill:#231f20;fill-opacity:1;fill-rule:nonzero;stroke:none"
             d="m 0,0 c -10.878,0 -19.729,8.851 -19.729,19.729 0,10.878 8.851,19.728 19.729,19.728 10.878,0 19.729,-8.85 19.729,-19.728 C 19.729,8.851 10.878,0 0,0 m 0,41.457 c -12,0 -21.729,-9.728 -21.729,-21.728 C -21.729,7.729 -12,-2 0,-2 12,-2 21.729,7.729 21.729,19.729 21.729,31.729 12,41.457 0,41.457" /></g><g
           transform="translate(38.6631,26.3594)"
           id="g28"><path
             id="path30"
             style="fill:#231f20;fill-opacity:1;fill-rule:nonzero;stroke:none"
             d="M 0,0 C -0.485,5.268 -3.946,9.849 -9.031,11.954 L -9.414,11.03 c 4.741,-1.963 7.967,-6.224 8.418,-11.122 0.472,-5.128 -2.282,-10.196 -6.898,-12.851 l 1.259,4.199 -0.959,0.286 -1.723,-5.752 5.863,-1.301 0.218,0.977 -3.905,0.865 C -2.342,-10.781 0.498,-5.421 0,0" /></g><g
           transform="translate(12.3335,23.7324)"
           id="g32"><path
             id="path34"
             style="fill:#231f20;fill-opacity:1;fill-rule:nonzero;stroke:none"
             d="M 0,0 C -0.472,5.127 2.282,10.196 6.897,12.853 L 5.638,8.652 6.597,8.366 8.32,14.119 2.457,15.419 2.24,14.442 6.143,13.577 C 1.345,10.689 -1.495,5.329 -0.996,-0.092 -0.511,-5.359 2.949,-9.94 8.035,-12.046 l 0.382,0.924 C 3.676,-9.159 0.451,-4.897 0,0" /></g></g></g></g></svg>