<?xml version="1.0" encoding="UTF-8" standalone="no"?>
<svg
   xmlns:dc="http://purl.org/dc/elements/1.1/"
   xmlns:cc="http://creativecommons.org/ns#"
   xmlns:rdf="http://www.w3.org/1999/02/22-rdf-syntax-ns#"
   xmlns:svg="http://www.w3.org/2000/svg"
   xmlns="http://www.w3.org/2000/svg"
   viewBox="0 0 66.666664 66.666664"
   height="66.666664"
   width="66.666664"
   xml:space="preserve"
   id="svg2"
   version="1.1"><metadata
     id="metadata8"><rdf:RDF><cc:Work
         rdf:about=""><dc:format>image/svg+xml</dc:format><dc:type
           rdf:resource="http://purl.org/dc/dcmitype/StillImage" /></cc:Work></rdf:RDF></metadata><defs
     id="defs6"><clipPath
       id="clipPath18"
       clipPathUnits="userSpaceOnUse"><path
         id="path16"
         d="M 0,50 H 50 V 0 H 0 Z" /></clipPath></defs><g
     transform="matrix(1.3333333,0,0,-1.3333333,0,66.666667)"
     id="g10"><g
       id="g12"><g
         clip-path="url(#clipPath18)"
         id="g14"><g
           transform="translate(35.8643,18.21)"
           id="g20"><path
             id="path22"
             style="fill:#fff200;fill-opacity:1;fill-rule:nonzero;stroke:none"
             d="m 0,0 c 0,-2.25 -1.824,-4.074 -4.074,-4.074 h -13.58 c -2.25,0 -4.075,1.824 -4.075,4.074 v 13.58 c 0,2.25 1.825,4.074 4.075,4.074 h 13.58 C -1.824,17.654 0,15.83 0,13.58 Z m -10.864,26.519 c -10.879,0 -19.729,-8.851 -19.729,-19.729 0,-10.878 8.85,-19.728 19.729,-19.728 10.878,0 19.728,8.85 19.728,19.728 0,10.878 -8.85,19.729 -19.728,19.729" /></g><g
           transform="translate(25,5.2715)"
           id="g24"><path
             id="path26"
             style="fill:#231f20;fill-opacity:1;fill-rule:nonzero;stroke:none"
             d="m 0,0 c -10.878,0 -19.729,8.851 -19.729,19.729 0,10.878 8.851,19.728 19.729,19.728 10.878,0 19.729,-8.85 19.729,-19.728 C 19.729,8.851 10.878,0 0,0 m 0,41.457 c -12,0 -21.729,-9.728 -21.729,-21.728 C -21.729,7.729 -12,-2 0,-2 12,-2 21.729,7.729 21.729,19.729 21.729,31.729 12,41.457 0,41.457" /></g><g
           transform="translate(31.79,33.8643)"
           id="g28"><path
             id="path30"
             style="fill:#f15a29;fill-opacity:1;fill-rule:nonzero;stroke:none"
             d="m 0,0 h -13.58 c -1.144,0 -2.074,-0.931 -2.074,-2.074 v -13.58 c 0,-1.144 0.93,-2.075 2.074,-2.075 H 0 c 1.144,0 2.074,0.931 2.074,2.075 v 13.58 C 2.074,-0.931 1.144,0 0,0" /></g><g
           transform="translate(33.8643,18.21)"
           id="g32"><path
             id="path34"
             style="fill:#231f20;fill-opacity:1;fill-rule:nonzero;stroke:none"
             d="m 0,0 c 0,-1.144 -0.931,-2.074 -2.074,-2.074 h -13.58 c -1.144,0 -2.075,0.93 -2.075,2.074 v 13.58 c 0,1.144 0.931,2.074 2.075,2.074 h 13.58 C -0.931,15.654 0,14.724 0,13.58 Z m -2.074,17.654 h -13.58 c -2.25,0 -4.075,-1.824 -4.075,-4.074 V 0 c 0,-2.25 1.825,-4.074 4.075,-4.074 h 13.58 C 0.176,-4.074 2,-2.25 2,0 v 13.58 c 0,2.25 -1.824,4.074 -4.074,4.074" /></g></g></g></g></svg>