<?xml version="1.0" encoding="UTF-8" standalone="no"?>
<svg
   xmlns:dc="http://purl.org/dc/elements/1.1/"
   xmlns:cc="http://creativecommons.org/ns#"
   xmlns:rdf="http://www.w3.org/1999/02/22-rdf-syntax-ns#"
   xmlns:svg="http://www.w3.org/2000/svg"
   xmlns="http://www.w3.org/2000/svg"
   viewBox="0 0 66.666664 66.666664"
   height="66.666664"
   width="66.666664"
   xml:space="preserve"
   id="svg2"
   version="1.1"><metadata
     id="metadata8"><rdf:RDF><cc:Work
         rdf:about=""><dc:format>image/svg+xml</dc:format><dc:type
           rdf:resource="http://purl.org/dc/dcmitype/StillImage" /></cc:Work></rdf:RDF></metadata><defs
     id="defs6"><clipPath
       id="clipPath18"
       clipPathUnits="userSpaceOnUse"><path
         id="path16"
         d="M 0,50 H 50 V 0 H 0 Z" /></clipPath></defs><g
     transform="matrix(1.3333333,0,0,-1.3333333,0,66.666667)"
     id="g10"><g
       id="g12"><g
         clip-path="url(#clipPath18)"
         id="g14"><g
           transform="translate(10.5962,22.1045)"
           id="g20"><path
             id="path22"
             style="fill:#fff200;fill-opacity:1;fill-rule:nonzero;stroke:none"
             d="m 0,0 h -2.797 c -0.831,0 -1.505,-0.673 -1.505,-1.504 v -16.049 c 0,-0.831 0.674,-1.505 1.505,-1.505 H 0 c 0.831,0 1.504,0.674 1.504,1.505 V -1.504 C 1.504,-0.673 0.831,0 0,0" /></g><g
           transform="translate(7.7988,22.1045)"
           id="g24"><path
             id="path26"
             style="fill:#231f20;fill-opacity:1;fill-rule:nonzero;stroke:none"
             d="m 0,0 h 2.797 c 0.831,0 1.505,-0.673 1.505,-1.504 v -16.049 c 0,-0.831 -0.674,-1.505 -1.505,-1.505 H 0 c -0.831,0 -1.504,0.674 -1.504,1.505 V -1.504 C -1.504,-0.673 -0.831,0 0,0 m -1.5,-20.558 h 5.797 c 0.831,0 1.505,0.674 1.505,1.505 V -0.004 C 5.802,0.827 5.128,1.5 4.297,1.5 H -1.5 c -0.831,0 -1.504,-0.673 -1.504,-1.504 v -19.049 c 0,-0.831 0.673,-1.505 1.504,-1.505" /></g><g
           transform="translate(21.1309,27.7842)"
           id="g28"><path
             id="path30"
             style="fill:#fff200;fill-opacity:1;fill-rule:nonzero;stroke:none"
             d="m 0,0 h -2.797 c -0.831,0 -1.505,-0.674 -1.505,-1.505 v -21.727 c 0,-0.831 0.674,-1.505 1.505,-1.505 H 0 c 0.831,0 1.505,0.674 1.505,1.505 V -1.505 C 1.505,-0.674 0.831,0 0,0" /></g><g
           transform="translate(18.334,27.7842)"
           id="g32"><path
             id="path34"
             style="fill:#231f20;fill-opacity:1;fill-rule:nonzero;stroke:none"
             d="m 0,0 h 2.797 c 0.831,0 1.505,-0.674 1.505,-1.505 v -21.727 c 0,-0.831 -0.674,-1.505 -1.505,-1.505 H 0 c -0.831,0 -1.505,0.674 -1.505,1.505 V -1.505 C -1.505,-0.674 -0.831,0 0,0 m -1.5,-26.237 h 5.797 c 0.831,0 1.505,0.674 1.505,1.505 V -0.005 C 5.802,0.826 5.128,1.5 4.297,1.5 H -1.5 c -0.831,0 -1.505,-0.674 -1.505,-1.505 v -24.727 c 0,-0.831 0.674,-1.505 1.505,-1.505" /></g><g
           transform="translate(31.666,33.2983)"
           id="g36"><path
             id="path38"
             style="fill:#fff200;fill-opacity:1;fill-rule:nonzero;stroke:none"
             d="m 0,0 h -2.797 c -0.831,0 -1.505,-0.674 -1.505,-1.505 v -27.242 c 0,-0.831 0.674,-1.504 1.505,-1.504 H 0 c 0.831,0 1.505,0.673 1.505,1.504 V -1.505 C 1.505,-0.674 0.831,0 0,0" /></g><g
           transform="translate(28.8691,33.2983)"
           id="g40"><path
             id="path42"
             style="fill:#231f20;fill-opacity:1;fill-rule:nonzero;stroke:none"
             d="m 0,0 h 2.797 c 0.831,0 1.505,-0.674 1.505,-1.505 v -27.242 c 0,-0.831 -0.674,-1.504 -1.505,-1.504 H 0 c -0.831,0 -1.505,0.673 -1.505,1.504 V -1.505 C -1.505,-0.674 -0.831,0 0,0 m -1.5,-31.751 h 5.797 c 0.831,0 1.505,0.673 1.505,1.504 V -0.005 C 5.802,0.826 5.128,1.5 4.297,1.5 H -1.5 c -0.831,0 -1.505,-0.674 -1.505,-1.505 v -30.242 c 0,-0.831 0.674,-1.504 1.505,-1.504" /></g><g
           transform="translate(39.4043,3.0469)"
           id="g44"><path
             id="path46"
             style="fill:#fff200;fill-opacity:1;fill-rule:nonzero;stroke:none"
             d="m 0,0 h 2.797 c 0.831,0 1.505,0.674 1.505,1.505 v 33.497 c 0,0.831 -0.674,1.505 -1.505,1.505 H 0 c -0.831,0 -1.505,-0.674 -1.505,-1.505 V 1.505 C -1.505,0.674 -0.831,0 0,0" /></g><g
           transform="translate(42.2012,3.0469)"
           id="g48"><path
             id="path50"
             style="fill:#231f20;fill-opacity:1;fill-rule:nonzero;stroke:none"
             d="m 0,0 h -2.797 c -0.831,0 -1.505,0.674 -1.505,1.505 v 33.497 c 0,0.831 0.674,1.505 1.505,1.505 H 0 c 0.831,0 1.505,-0.674 1.505,-1.505 V 1.505 C 1.505,0.674 0.831,0 0,0 M -5.802,36.502 V 0.005 c 0,-0.831 0.674,-1.505 1.505,-1.505 H 1.5 c 0.831,0 1.505,0.674 1.505,1.505 v 36.497 c 0,0.831 -0.674,1.505 -1.505,1.505 h -5.797 c -0.831,0 -1.505,-0.674 -1.505,-1.505" /></g></g></g></g></svg>