<?xml version="1.0" encoding="UTF-8" standalone="no"?>
<svg
   xmlns:dc="http://purl.org/dc/elements/1.1/"
   xmlns:cc="http://creativecommons.org/ns#"
   xmlns:rdf="http://www.w3.org/1999/02/22-rdf-syntax-ns#"
   xmlns:svg="http://www.w3.org/2000/svg"
   xmlns="http://www.w3.org/2000/svg"
   viewBox="0 0 66.666664 66.666664"
   height="66.666664"
   width="66.666664"
   xml:space="preserve"
   id="svg2"
   version="1.1"><metadata
     id="metadata8"><rdf:RDF><cc:Work
         rdf:about=""><dc:format>image/svg+xml</dc:format><dc:type
           rdf:resource="http://purl.org/dc/dcmitype/StillImage" /></cc:Work></rdf:RDF></metadata><defs
     id="defs6"><clipPath
       id="clipPath18"
       clipPathUnits="userSpaceOnUse"><path
         id="path16"
         d="M 0,50 H 50 V 0 H 0 Z" /></clipPath></defs><g
     transform="matrix(1.3333333,0,0,-1.3333333,0,66.666667)"
     id="g10"><g
       id="g12"><g
         clip-path="url(#clipPath18)"
         id="g14"><g
           transform="translate(10.4775,22.1045)"
           id="g20"><path
             id="path22"
             style="fill:#ffffff;fill-opacity:1;fill-rule:nonzero;stroke:none"
             d="m 0,0 h -2.56 c -0.897,0 -1.623,-0.727 -1.623,-1.623 v -15.811 c 0,-0.896 0.726,-1.624 1.623,-1.624 H 0 c 0.896,0 1.623,0.728 1.623,1.624 V -1.623 C 1.623,-0.727 0.896,0 0,0" /></g><g
           transform="translate(7.9175,22.1045)"
           id="g24"><path
             id="path26"
             style="fill:#231f20;fill-opacity:1;fill-rule:nonzero;stroke:none"
             d="m 0,0 h 2.56 c 0.897,0 1.623,-0.727 1.623,-1.623 v -15.811 c 0,-0.896 -0.726,-1.624 -1.623,-1.624 H 0 c -0.896,0 -1.623,0.728 -1.623,1.624 V -1.623 C -1.623,-0.727 -0.896,0 0,0 m -1.5,-20.558 h 5.56 c 0.897,0 1.623,0.728 1.623,1.624 V -0.123 C 5.683,0.773 4.957,1.5 4.06,1.5 H -1.5 c -0.896,0 -1.623,-0.727 -1.623,-1.623 v -18.811 c 0,-0.896 0.727,-1.624 1.623,-1.624" /></g><g
           transform="translate(21.0122,27.7842)"
           id="g28"><path
             id="path30"
             style="fill:#ffffff;fill-opacity:1;fill-rule:nonzero;stroke:none"
             d="m 0,0 h -2.56 c -0.896,0 -1.623,-0.727 -1.623,-1.624 v -21.489 c 0,-0.897 0.727,-1.624 1.623,-1.624 H 0 c 0.897,0 1.624,0.727 1.624,1.624 V -1.624 C 1.624,-0.727 0.897,0 0,0" /></g><g
           transform="translate(18.4526,27.7842)"
           id="g32"><path
             id="path34"
             style="fill:#231f20;fill-opacity:1;fill-rule:nonzero;stroke:none"
             d="m 0,0 h 2.56 c 0.897,0 1.623,-0.727 1.623,-1.624 v -21.489 c 0,-0.897 -0.726,-1.624 -1.623,-1.624 H 0 c -0.896,0 -1.624,0.727 -1.624,1.624 V -1.624 C -1.624,-0.727 -0.896,0 0,0 m -1.5,-26.237 h 5.56 c 0.897,0 1.623,0.727 1.623,1.624 V -0.124 C 5.683,0.773 4.957,1.5 4.06,1.5 H -1.5 c -0.896,0 -1.624,-0.727 -1.624,-1.624 v -24.489 c 0,-0.897 0.728,-1.624 1.624,-1.624" /></g><g
           transform="translate(31.5469,33.2983)"
           id="g36"><path
             id="path38"
             style="fill:#ffffff;fill-opacity:1;fill-rule:nonzero;stroke:none"
             d="m 0,0 h -2.56 c -0.896,0 -1.623,-0.727 -1.623,-1.624 v -27.003 c 0,-0.897 0.727,-1.624 1.623,-1.624 H 0 c 0.897,0 1.624,0.727 1.624,1.624 V -1.624 C 1.624,-0.727 0.897,0 0,0" /></g><g
           transform="translate(28.9873,33.2983)"
           id="g40"><path
             id="path42"
             style="fill:#231f20;fill-opacity:1;fill-rule:nonzero;stroke:none"
             d="m 0,0 h 2.56 c 0.897,0 1.624,-0.727 1.624,-1.624 v -27.003 c 0,-0.897 -0.727,-1.624 -1.624,-1.624 H 0 c -0.896,0 -1.623,0.727 -1.623,1.624 V -1.624 C -1.623,-0.727 -0.896,0 0,0 m -1.5,-31.751 h 5.56 c 0.897,0 1.624,0.727 1.624,1.624 V -0.124 C 5.684,0.773 4.957,1.5 4.06,1.5 H -1.5 c -0.896,0 -1.623,-0.727 -1.623,-1.624 v -30.003 c 0,-0.897 0.727,-1.624 1.623,-1.624" /></g><g
           transform="translate(39.5225,3.0469)"
           id="g44"><path
             id="path46"
             style="fill:#ffffff;fill-opacity:1;fill-rule:nonzero;stroke:none"
             d="m 0,0 h 2.56 c 0.896,0 1.624,0.728 1.624,1.624 v 33.259 c 0,0.897 -0.728,1.624 -1.624,1.624 H 0 c -0.896,0 -1.623,-0.727 -1.623,-1.624 V 1.624 C -1.623,0.728 -0.896,0 0,0" /></g><g
           transform="translate(42.082,3.0469)"
           id="g48"><path
             id="path50"
             style="fill:#231f20;fill-opacity:1;fill-rule:nonzero;stroke:none"
             d="m 0,0 h -2.56 c -0.896,0 -1.623,0.728 -1.623,1.624 v 33.259 c 0,0.897 0.727,1.624 1.623,1.624 H 0 c 0.896,0 1.624,-0.727 1.624,-1.624 V 1.624 C 1.624,0.728 0.896,0 0,0 M -5.683,36.383 V 0.124 c 0,-0.896 0.727,-1.624 1.623,-1.624 H 1.5 c 0.896,0 1.624,0.728 1.624,1.624 v 36.259 c 0,0.897 -0.728,1.624 -1.624,1.624 h -5.56 c -0.896,0 -1.623,-0.727 -1.623,-1.624" /></g><g
           transform="translate(12.1113,45.3911)"
           id="g52"><path
             id="path54"
             style="fill:#ed1c24;fill-opacity:1;fill-rule:nonzero;stroke:none"
             d="m 0,0 c 1.178,0 2.279,-0.326 3.228,-0.884 l -7.974,-9.783 c -1.022,1.134 -1.65,2.629 -1.65,4.272 C -6.396,-2.869 -3.526,0 0,0 m 6.395,-6.395 c 0,-3.526 -2.869,-6.396 -6.395,-6.396 -1.164,0 -2.252,0.318 -3.193,0.863 l 7.966,9.774 c 1.005,-1.13 1.622,-2.613 1.622,-4.241 M 0,-14.791 c 4.636,0 8.395,3.759 8.395,8.396 C 8.395,-1.759 4.636,2 0,2 c -4.637,0 -8.396,-3.759 -8.396,-8.395 0,-4.637 3.759,-8.396 8.396,-8.396" /></g></g></g></g></svg>