<?xml version="1.0" encoding="UTF-8" standalone="no"?>
<svg
   xmlns:dc="http://purl.org/dc/elements/1.1/"
   xmlns:cc="http://creativecommons.org/ns#"
   xmlns:rdf="http://www.w3.org/1999/02/22-rdf-syntax-ns#"
   xmlns:svg="http://www.w3.org/2000/svg"
   xmlns="http://www.w3.org/2000/svg"
   viewBox="0 0 66.666664 66.666664"
   height="66.666664"
   width="66.666664"
   xml:space="preserve"
   id="svg2"
   version="1.1"><metadata
     id="metadata8"><rdf:RDF><cc:Work
         rdf:about=""><dc:format>image/svg+xml</dc:format><dc:type
           rdf:resource="http://purl.org/dc/dcmitype/StillImage" /></cc:Work></rdf:RDF></metadata><defs
     id="defs6"><clipPath
       id="clipPath18"
       clipPathUnits="userSpaceOnUse"><path
         id="path16"
         d="M 0,50 H 50 V 0 H 0 Z" /></clipPath></defs><g
     transform="matrix(1.3333333,0,0,-1.3333333,0,66.666667)"
     id="g10"><g
       id="g12"><g
         clip-path="url(#clipPath18)"
         id="g14"><g
           transform="translate(10.4082,22.1045)"
           id="g20"><path
             id="path22"
             style="fill:#fff200;fill-opacity:1;fill-rule:nonzero;stroke:none"
             d="m 0,0 h -2.421 c -0.935,0 -1.693,-0.757 -1.693,-1.692 v -15.672 c 0,-0.936 0.758,-1.694 1.693,-1.694 H 0 c 0.935,0 1.692,0.758 1.692,1.694 V -1.692 C 1.692,-0.757 0.935,0 0,0" /></g><g
           transform="translate(7.9868,22.1045)"
           id="g24"><path
             id="path26"
             style="fill:#231f20;fill-opacity:1;fill-rule:nonzero;stroke:none"
             d="m 0,0 h 2.421 c 0.935,0 1.693,-0.757 1.693,-1.692 v -15.672 c 0,-0.936 -0.758,-1.694 -1.693,-1.694 H 0 c -0.935,0 -1.692,0.758 -1.692,1.694 V -1.692 C -1.692,-0.757 -0.935,0 0,0 m -1.5,-20.558 h 5.421 c 0.935,0 1.693,0.758 1.693,1.694 V -0.192 C 5.614,0.743 4.856,1.5 3.921,1.5 H -1.5 c -0.935,0 -1.692,-0.757 -1.692,-1.692 v -18.672 c 0,-0.936 0.757,-1.694 1.692,-1.694" /></g><g
           transform="translate(20.9434,27.7842)"
           id="g28"><path
             id="path30"
             style="fill:#fff200;fill-opacity:1;fill-rule:nonzero;stroke:none"
             d="m 0,0 h -2.422 c -0.934,0 -1.692,-0.758 -1.692,-1.693 v -21.351 c 0,-0.935 0.758,-1.693 1.692,-1.693 H 0 c 0.935,0 1.692,0.758 1.692,1.693 V -1.693 C 1.692,-0.758 0.935,0 0,0" /></g><g
           transform="translate(18.5215,27.7842)"
           id="g32"><path
             id="path34"
             style="fill:#231f20;fill-opacity:1;fill-rule:nonzero;stroke:none"
             d="m 0,0 h 2.422 c 0.934,0 1.692,-0.758 1.692,-1.693 v -21.351 c 0,-0.935 -0.758,-1.693 -1.692,-1.693 H 0 c -0.935,0 -1.692,0.758 -1.692,1.693 V -1.693 C -1.692,-0.758 -0.935,0 0,0 m -1.5,-26.237 h 5.422 c 0.934,0 1.692,0.758 1.692,1.693 V -0.193 C 5.614,0.742 4.856,1.5 3.922,1.5 H -1.5 c -0.935,0 -1.692,-0.758 -1.692,-1.693 v -24.351 c 0,-0.935 0.757,-1.693 1.692,-1.693" /></g><g
           transform="translate(31.4785,33.2983)"
           id="g36"><path
             id="path38"
             style="fill:#fff200;fill-opacity:1;fill-rule:nonzero;stroke:none"
             d="m 0,0 h -2.422 c -0.934,0 -1.692,-0.758 -1.692,-1.692 v -26.866 c 0,-0.936 0.758,-1.693 1.692,-1.693 H 0 c 0.935,0 1.692,0.757 1.692,1.693 V -1.692 C 1.692,-0.758 0.935,0 0,0" /></g><g
           transform="translate(29.0566,33.2983)"
           id="g40"><path
             id="path42"
             style="fill:#231f20;fill-opacity:1;fill-rule:nonzero;stroke:none"
             d="m 0,0 h 2.422 c 0.934,0 1.692,-0.758 1.692,-1.692 v -26.866 c 0,-0.936 -0.758,-1.693 -1.692,-1.693 H 0 c -0.935,0 -1.692,0.757 -1.692,1.693 V -1.692 C -1.692,-0.758 -0.935,0 0,0 m -1.5,-31.751 h 5.422 c 0.934,0 1.692,0.757 1.692,1.693 V -0.192 C 5.614,0.742 4.856,1.5 3.922,1.5 H -1.5 c -0.935,0 -1.692,-0.758 -1.692,-1.692 v -29.866 c 0,-0.936 0.757,-1.693 1.692,-1.693" /></g><g
           transform="translate(39.5918,3.0469)"
           id="g44"><path
             id="path46"
             style="fill:#ffffff;fill-opacity:1;fill-rule:nonzero;stroke:none"
             d="m 0,0 h 2.422 c 0.934,0 1.692,0.758 1.692,1.693 v 33.121 c 0,0.935 -0.758,1.693 -1.692,1.693 H 0 c -0.935,0 -1.692,-0.758 -1.692,-1.693 V 1.693 C -1.692,0.758 -0.935,0 0,0" /></g><g
           transform="translate(42.0137,3.0469)"
           id="g48"><path
             id="path50"
             style="fill:#231f20;fill-opacity:1;fill-rule:nonzero;stroke:none"
             d="m 0,0 h -2.422 c -0.934,0 -1.692,0.758 -1.692,1.693 v 33.121 c 0,0.935 0.758,1.693 1.692,1.693 H 0 c 0.935,0 1.692,-0.758 1.692,-1.693 V 1.693 C 1.692,0.758 0.935,0 0,0 M -5.614,36.314 V 0.193 c 0,-0.935 0.758,-1.693 1.692,-1.693 H 1.5 c 0.935,0 1.692,0.758 1.692,1.693 v 36.121 c 0,0.935 -0.757,1.693 -1.692,1.693 h -5.422 c -0.934,0 -1.692,-0.758 -1.692,-1.693" /></g></g></g></g></svg>