<?xml version="1.0" encoding="UTF-8" standalone="no"?>
<svg
   xmlns:dc="http://purl.org/dc/elements/1.1/"
   xmlns:cc="http://creativecommons.org/ns#"
   xmlns:rdf="http://www.w3.org/1999/02/22-rdf-syntax-ns#"
   xmlns:svg="http://www.w3.org/2000/svg"
   xmlns="http://www.w3.org/2000/svg"
   viewBox="0 0 66.666664 66.666664"
   height="66.666664"
   width="66.666664"
   xml:space="preserve"
   id="svg2"
   version="1.1"><metadata
     id="metadata8"><rdf:RDF><cc:Work
         rdf:about=""><dc:format>image/svg+xml</dc:format><dc:type
           rdf:resource="http://purl.org/dc/dcmitype/StillImage" /></cc:Work></rdf:RDF></metadata><defs
     id="defs6"><clipPath
       id="clipPath18"
       clipPathUnits="userSpaceOnUse"><path
         id="path16"
         d="M 0,50 H 50 V 0 H 0 Z" /></clipPath></defs><g
     transform="matrix(1.3333333,0,0,-1.3333333,0,66.666667)"
     id="g10"><g
       id="g12"><g
         clip-path="url(#clipPath18)"
         id="g14"><g
           transform="translate(10.4556,22.1045)"
           id="g20"><path
             id="path22"
             style="fill:#fff200;fill-opacity:1;fill-rule:nonzero;stroke:none"
             d="m 0,0 h -2.516 c -0.909,0 -1.645,-0.736 -1.645,-1.646 v -15.766 c 0,-0.908 0.736,-1.646 1.645,-1.646 H 0 c 0.909,0 1.645,0.738 1.645,1.646 V -1.646 C 1.645,-0.736 0.909,0 0,0" /></g><g
           transform="translate(7.9399,22.1045)"
           id="g24"><path
             id="path26"
             style="fill:#231f20;fill-opacity:1;fill-rule:nonzero;stroke:none"
             d="m 0,0 h 2.516 c 0.908,0 1.645,-0.736 1.645,-1.646 v -15.766 c 0,-0.908 -0.737,-1.646 -1.645,-1.646 H 0 c -0.909,0 -1.646,0.738 -1.646,1.646 V -1.646 C -1.646,-0.736 -0.909,0 0,0 m -1.5,-20.558 h 5.516 c 0.908,0 1.645,0.738 1.645,1.646 V -0.146 C 5.661,0.764 4.924,1.5 4.016,1.5 H -1.5 c -0.909,0 -1.646,-0.736 -1.646,-1.646 v -18.766 c 0,-0.908 0.737,-1.646 1.646,-1.646" /></g><g
           transform="translate(20.9902,27.7842)"
           id="g28"><path
             id="path30"
             style="fill:#ffffff;fill-opacity:1;fill-rule:nonzero;stroke:none"
             d="m 0,0 h -2.516 c -0.908,0 -1.645,-0.737 -1.645,-1.646 v -21.446 c 0,-0.908 0.737,-1.645 1.645,-1.645 H 0 c 0.909,0 1.646,0.737 1.646,1.645 V -1.646 C 1.646,-0.737 0.909,0 0,0" /></g><g
           transform="translate(18.4746,27.7842)"
           id="g32"><path
             id="path34"
             style="fill:#231f20;fill-opacity:1;fill-rule:nonzero;stroke:none"
             d="m 0,0 h 2.516 c 0.908,0 1.645,-0.737 1.645,-1.646 v -21.446 c 0,-0.908 -0.737,-1.645 -1.645,-1.645 H 0 c -0.909,0 -1.646,0.737 -1.646,1.645 V -1.646 C -1.646,-0.737 -0.909,0 0,0 m -1.5,-26.237 h 5.516 c 0.908,0 1.645,0.737 1.645,1.645 V -0.146 C 5.661,0.763 4.924,1.5 4.016,1.5 H -1.5 c -0.909,0 -1.646,-0.737 -1.646,-1.646 v -24.446 c 0,-0.908 0.737,-1.645 1.646,-1.645" /></g><g
           transform="translate(31.5254,33.2983)"
           id="g36"><path
             id="path38"
             style="fill:#ffffff;fill-opacity:1;fill-rule:nonzero;stroke:none"
             d="m 0,0 h -2.516 c -0.909,0 -1.645,-0.737 -1.645,-1.646 v -26.96 c 0,-0.908 0.736,-1.645 1.645,-1.645 H 0 c 0.908,0 1.646,0.737 1.646,1.645 v 26.96 C 1.646,-0.737 0.908,0 0,0" /></g><g
           transform="translate(29.0098,33.2983)"
           id="g40"><path
             id="path42"
             style="fill:#231f20;fill-opacity:1;fill-rule:nonzero;stroke:none"
             d="m 0,0 h 2.516 c 0.908,0 1.645,-0.737 1.645,-1.646 v -26.96 c 0,-0.908 -0.737,-1.645 -1.645,-1.645 H 0 c -0.909,0 -1.646,0.737 -1.646,1.645 v 26.96 C -1.646,-0.737 -0.909,0 0,0 m -1.5,-31.751 h 5.516 c 0.908,0 1.645,0.737 1.645,1.645 v 29.96 C 5.661,0.763 4.924,1.5 4.016,1.5 H -1.5 c -0.909,0 -1.646,-0.737 -1.646,-1.646 v -29.96 c 0,-0.908 0.737,-1.645 1.646,-1.645" /></g><g
           transform="translate(39.5449,3.0469)"
           id="g44"><path
             id="path46"
             style="fill:#ffffff;fill-opacity:1;fill-rule:nonzero;stroke:none"
             d="m 0,0 h 2.516 c 0.908,0 1.645,0.737 1.645,1.646 v 33.215 c 0,0.909 -0.737,1.646 -1.645,1.646 H 0 c -0.909,0 -1.646,-0.737 -1.646,-1.646 V 1.646 C -1.646,0.737 -0.909,0 0,0" /></g><g
           transform="translate(42.0605,3.0469)"
           id="g48"><path
             id="path50"
             style="fill:#231f20;fill-opacity:1;fill-rule:nonzero;stroke:none"
             d="m 0,0 h -2.516 c -0.909,0 -1.645,0.737 -1.645,1.646 v 33.215 c 0,0.909 0.736,1.646 1.645,1.646 H 0 c 0.908,0 1.646,-0.737 1.646,-1.646 V 1.646 C 1.646,0.737 0.908,0 0,0 M -5.661,36.361 V 0.146 c 0,-0.909 0.736,-1.646 1.645,-1.646 H 1.5 c 0.908,0 1.646,0.737 1.646,1.646 v 36.215 c 0,0.909 -0.738,1.646 -1.646,1.646 h -5.516 c -0.909,0 -1.645,-0.737 -1.645,-1.646" /></g></g></g></g></svg>