<?xml version="1.0" encoding="UTF-8" standalone="no"?>
<svg
   xmlns:dc="http://purl.org/dc/elements/1.1/"
   xmlns:cc="http://creativecommons.org/ns#"
   xmlns:rdf="http://www.w3.org/1999/02/22-rdf-syntax-ns#"
   xmlns:svg="http://www.w3.org/2000/svg"
   xmlns="http://www.w3.org/2000/svg"
   viewBox="0 0 133.33333 133.33333"
   height="133.33333"
   width="133.33333"
   xml:space="preserve"
   id="svg2"
   version="1.1"><metadata
     id="metadata8"><rdf:RDF><cc:Work
         rdf:about=""><dc:format>image/svg+xml</dc:format><dc:type
           rdf:resource="http://purl.org/dc/dcmitype/StillImage" /></cc:Work></rdf:RDF></metadata><defs
     id="defs6"><clipPath
       id="clipPath18"
       clipPathUnits="userSpaceOnUse"><path
         id="path16"
         d="M 0,100 H 100 V 0 H 0 Z" /></clipPath></defs><g
     transform="matrix(1.3333333,0,0,-1.3333333,0,133.33333)"
     id="g10"><g
       id="g12"><g
         clip-path="url(#clipPath18)"
         id="g14"><g
           transform="translate(81.2285,49.1323)"
           id="g20"><path
             id="path22"
             style="fill:white;fill-opacity:1;fill-rule:nonzero;stroke:none"
             d="m 0,0 c 0,-21.108 -17.111,-38.219 -38.219,-38.219 -21.108,0 -38.219,17.111 -38.219,38.219 0,21.108 17.111,38.219 38.219,38.219 C -17.111,38.219 0,21.108 0,0" /></g><g
           transform="translate(73.6006,56.3965)"
           id="g24"><path
             id="path26"
             style="fill:#ee304b;fill-opacity:1;fill-rule:nonzero;stroke:none"
             d="M 0,0 -6.443,-9.091 C -6.705,-9.46 -7.129,-9.679 -7.581,-9.679 h -14.368 c -0.77,0 -1.395,-0.625 -1.395,-1.395 v -21.455 c 0,-0.288 -0.089,-0.57 -0.256,-0.805 l -9.209,-13.025 -0.067,-0.096 c -0.556,-0.786 -1.722,-0.786 -2.278,-0.001 l -0.069,0.099 -16.712,23.616 c -0.587,0.83 -1.838,0.772 -2.347,-0.109 L -68.04,-46.685 c -0.713,-1.236 -2.603,-0.729 -2.603,0.698 v 18.498 c 0,0.245 0.064,0.485 0.187,0.697 l 35.045,60.687 c 0.713,1.235 2.602,0.729 2.602,-0.698 0,-0.771 0.625,-1.395 1.395,-1.395 h 5.656 2.414 43.137 c 1.131,0 1.792,-1.277 1.139,-2.2 l -6.416,-9.066 c -0.261,-0.37 -0.686,-0.589 -1.139,-0.589 h -35.326 c -0.77,0 -1.395,-0.625 -1.395,-1.395 V 3.596 c 0,-0.77 0.625,-1.395 1.395,-1.395 h 20.81 C -0.006,2.201 0.654,0.923 0,0 m 15.766,18.121 9.832,13.895 c 0.653,0.923 -0.007,2.2 -1.139,2.2 h -53.458 c -0.771,0 -1.395,0.625 -1.395,1.395 v 6.595 c 0,1.427 -1.889,1.934 -2.603,0.698 l -39.874,-69.049 c -0.122,-0.211 -0.186,-0.452 -0.186,-0.697 v -28.157 c 0,-1.428 1.889,-1.934 2.602,-0.697 l 16.38,28.375 c 0.509,0.881 1.76,0.938 2.347,0.108 l 14.091,-19.914 2.485,-3.51 c 0.556,-0.785 1.721,-0.785 2.277,10e-4 l 2.481,3.509 9.208,13.026 c 0.167,0.236 0.256,0.517 0.256,0.806 v 19.807 c 0,0.77 0.625,1.394 1.396,1.394 h 13.201 c 0.453,0 0.877,0.22 1.139,0.589 L 4.671,2.414 C 5.325,3.338 4.665,4.616 3.532,4.616 h -23.066 c -0.771,0 -1.396,0.624 -1.396,1.395 v 10.126 c 0,0.771 0.625,1.395 1.396,1.395 h 34.161 c 0.453,0 0.877,0.22 1.139,0.589" /></g><g
           transform="translate(21.7363,37.7344)"
           id="g28"><path
             id="path30"
             style="fill:#231f20;fill-opacity:1;fill-rule:nonzero;stroke:none"
             d="M 0,0 16.641,-23.515 V 28.829 Z" /></g><g
           transform="translate(50.2568,85.7842)"
           id="g32"><path
             id="path34"
             style="fill:#ffffff;fill-opacity:1;fill-rule:nonzero;stroke:none"
             d="M 0,0 H 41.166 L 36.192,-7.026 H 0 Z m 20.232,-29.602 -4.997,-7.05 H 0 v 7.05 z m -32.111,-41.962 -16.642,23.514 16.642,28.829 z m -33.006,14.414 9.609,16.635 15.26,26.414 L -11.879,0 V -14.39 L -31.316,-48.048 -44.885,-71.564 Z M -2.415,0 v -61.593 l -7.05,-9.971 V 0 Z m 40.274,-8.852 6.416,9.066 c 0.654,0.924 -0.007,2.2 -1.138,2.2 H 0 -2.415 -8.07 c -0.77,0 -1.395,0.625 -1.395,1.395 0,1.427 -1.889,1.934 -2.602,0.698 L -47.112,-56.18 c -0.123,-0.212 -0.187,-0.452 -0.187,-0.697 v -18.498 c 0,-1.427 1.889,-1.934 2.603,-0.697 l 13.758,23.835 c 0.509,0.881 1.759,0.938 2.347,0.108 l 16.712,-23.616 0.069,-0.099 c 0.556,-0.785 1.722,-0.785 2.278,10e-4 l 0.067,0.096 9.209,13.025 C -0.089,-62.486 0,-62.205 0,-61.917 v 21.455 c 0,0.771 0.625,1.396 1.395,1.396 h 14.368 c 0.452,0 0.876,0.218 1.137,0.587 l 6.444,9.091 c 0.654,0.924 -0.006,2.201 -1.139,2.201 H 1.395 c -0.77,0 -1.395,0.625 -1.395,1.395 v 14.956 c 0,0.771 0.625,1.395 1.395,1.395 h 35.326 c 0.453,0 0.878,0.219 1.138,0.589" /></g><g
           transform="translate(91.4229,85.7842)"
           id="g36"><path
             id="path38"
             style="fill:#231f20;fill-opacity:1;fill-rule:nonzero;stroke:none"
             d="M 0,0 H -41.166 V -7.026 H -4.974 Z" /></g><g
           transform="translate(65.4922,49.1323)"
           id="g40"><path
             id="path42"
             style="fill:#231f20;fill-opacity:1;fill-rule:nonzero;stroke:none"
             d="M 0,0 4.997,7.05 H -15.235 V 0 Z" /></g><g
           transform="translate(38.3774,71.394)"
           id="g44"><path
             id="path46"
             style="fill:#231f20;fill-opacity:1;fill-rule:nonzero;stroke:none"
             d="m 0,0 v 14.39 l -8.137,-14.1 -15.259,-26.415 -9.61,-16.635 v -14.414 l 13.569,23.516 z" /></g><g
           transform="translate(40.7915,14.2197)"
           id="g48"><path
             id="path50"
             style="fill:#231f20;fill-opacity:1;fill-rule:nonzero;stroke:none"
             d="M 0,0 7.05,9.972 V 71.564 H 0 Z" /></g></g></g></g></svg>